<svg width="48" height="48" viewBox="0 0 48 48" fill="none" xmlns="http://www.w3.org/2000/svg">
<path d="M43.8816 29.367L43.3191 29.1513C42.3202 28.7693 41.2293 28.7154 40.2117 28.9788L38.9487 28.0761C37.9242 27.3475 36.4822 27.2582 35.3657 27.8605L35.2856 27.9021L34.9157 27.5801C34.0822 26.8577 32.8464 26.7144 31.8339 27.2274L27.7413 29.3423H24.7532C24.1191 29.3423 23.4902 29.2052 22.9345 28.948C18.6305 26.947 14.8159 27.4369 11.6025 30.4052C11.265 30.7164 10.9344 30.949 10.5917 31.1107L4.49618 34.0391C3.92685 34.3209 3.50415 34.817 3.35242 35.3961C3.2007 35.9753 3.32515 36.5853 3.70868 37.0752L7.1604 41.5025C7.60357 42.0693 8.31096 42.3805 9.03881 42.3805C9.41552 42.3805 9.79905 42.2973 10.1502 42.1171L16.0939 39.141C16.8677 38.7529 17.7729 38.6158 18.6456 38.7405L27.3934 40.0314C28.6957 40.2224 30.0184 39.9652 31.1161 39.309L44.108 31.5116C44.5239 31.2605 44.7557 30.8307 44.7097 30.3825C44.6602 29.9296 44.3432 29.5414 43.8813 29.3674L43.8816 29.367ZM36.0066 28.8355C36.6884 28.4705 37.5611 28.5244 38.1748 28.9665L38.9094 29.4856L33.6526 31.9595C33.5861 31.3972 33.3355 30.8842 32.9657 30.4591L36.0066 28.8355ZM32.456 28.2148C32.9776 27.9514 33.6202 28.0238 34.0498 28.3996L34.1691 28.5013L31.9344 29.6966C31.4776 29.4748 30.9628 29.3439 30.4139 29.3439H30.2759L32.456 28.2148ZM43.4109 30.5685L30.4191 38.3659C29.5855 38.868 28.5816 39.0652 27.5895 38.9158L18.8417 37.6249C17.6912 37.457 16.4946 37.6434 15.477 38.1502L9.53328 41.1263C9.06964 41.3589 8.48155 41.2403 8.17815 40.8459L4.72642 36.4186C4.55427 36.1968 4.49461 35.9226 4.5679 35.6592C4.6412 35.3896 4.82529 35.1755 5.08949 35.0492L11.1851 32.1209C11.6419 31.8991 12.0714 31.6018 12.5009 31.2074C14.1799 29.6547 15.9987 28.883 18.0013 28.883C19.3701 28.883 20.8172 29.2419 22.3649 29.9643C23.0928 30.3048 23.9195 30.4835 24.7581 30.4835H30.4104C31.5149 30.4835 32.4132 31.2968 32.4132 32.2934V32.8372L25.005 32.8387C24.6607 32.8387 24.3778 33.096 24.3778 33.4056C24.3778 33.7167 24.6556 33.9724 25.005 33.9724H33.0455C33.3898 33.9724 33.6727 33.7152 33.6727 33.4056V33.2377L39.901 30.3094C40.8129 29.8796 41.8851 29.8426 42.8294 30.2015L43.3919 30.4172C43.4055 30.4233 43.4447 30.4357 43.4515 30.4896C43.4566 30.5373 43.4243 30.562 43.4106 30.5681L43.4109 30.5685Z" fill="white"/>
<path d="M26.4854 27.6456C26.5706 27.6872 26.6712 27.7057 26.7632 27.7057C26.8553 27.7057 26.9541 27.6872 27.0411 27.6456C34.1883 24.4555 38.2875 19.3104 38.2875 13.5262V9.06968C38.2875 8.75852 38.0096 8.50282 37.6602 8.50282C36.542 8.50282 35.6369 7.68487 35.6369 6.67436V6.36936C35.6369 5.58068 34.9295 4.94141 34.0568 4.94141H19.4709C18.5982 4.94141 17.8908 5.58068 17.8908 6.36936V6.68052C17.8908 7.69103 16.9857 8.50898 15.8675 8.50898C15.5232 8.50898 15.2402 8.76622 15.2402 9.07584V13.5276C15.2453 19.3102 19.3448 24.4554 26.4854 27.6456ZM16.5018 9.5843C18.0086 9.32089 19.1524 8.11474 19.1524 6.67448L19.1541 6.36948C19.1541 6.20774 19.299 6.0768 19.478 6.0768H34.0638C34.2428 6.0768 34.3877 6.20774 34.3877 6.36948V6.68064C34.3877 8.1209 35.5315 9.32089 37.0383 9.59046V13.5277C37.0383 18.7914 33.3019 23.5109 26.7702 26.5056C20.2383 23.5064 16.5021 18.7914 16.5021 13.5277L16.5018 9.5843Z" fill="white"/>
<path d="M26.453 24.4159C26.5519 24.4698 26.6575 24.4929 26.77 24.4929C26.8825 24.4929 26.9882 24.4682 27.0871 24.4159C32.2178 21.7325 35.1528 17.7661 35.1528 13.53V11.0808C35.1528 10.8898 35.0471 10.7111 34.8682 10.6033C33.8898 10.0303 33.1432 9.16918 32.7716 8.17097C32.6863 7.93837 32.4477 7.78279 32.1767 7.78279L21.3614 7.78125C21.0904 7.78125 20.8517 7.93683 20.7665 8.16943C20.3966 9.16144 19.6483 10.0271 18.6699 10.6017C18.4909 10.7034 18.3853 10.8883 18.3853 11.0793V13.5285C18.387 17.7598 21.3224 21.7328 26.453 24.4159ZM19.6366 11.3718C20.5894 10.7449 21.336 9.88992 21.7911 8.91636H31.7424C32.1992 9.88992 32.9458 10.7448 33.8969 11.3718V13.5222C33.8969 17.3162 31.3708 20.7635 26.7702 23.2605C22.1679 20.7635 19.6435 17.3162 19.6435 13.5222V11.3718H19.6366Z" fill="white"/>
<path d="M25.706 19.5027C26.248 19.5027 26.7577 19.3116 27.1412 18.965L31.452 15.0694C31.8355 14.7228 32.0469 14.2622 32.0469 13.7662C32.0469 13.2763 31.8355 12.8157 31.452 12.463C30.6594 11.7467 29.3691 11.7467 28.5765 12.463L25.7077 15.0555L25.302 14.6997C24.5094 13.9834 23.2191 13.9834 22.4265 14.6997C21.6339 15.4159 21.6339 16.582 22.4265 17.2983L24.2708 18.965C24.6543 19.3116 25.1639 19.5027 25.706 19.5027ZM23.3128 15.5052C23.4645 15.3681 23.6639 15.3019 23.8616 15.3019C24.0594 15.3019 24.2588 15.3681 24.4105 15.5052L25.256 16.2692C25.5014 16.4911 25.8969 16.4911 26.1423 16.2692L29.4542 13.2762C29.7576 13.0021 30.2536 13.0021 30.5519 13.2762C30.6968 13.4072 30.7769 13.5874 30.7769 13.7723C30.7769 13.9571 30.6968 14.1373 30.5519 14.2683L26.2411 18.1639C25.9497 18.4273 25.4349 18.4273 25.1434 18.1639L23.2991 16.4972C23.0076 16.223 23.0077 15.7748 23.3128 15.5052Z" fill="white"/>
</svg>
