<svg width="42" height="42" viewBox="0 0 42 42" fill="none" xmlns="http://www.w3.org/2000/svg">
<path d="M14.874 18H27.126M14.874 22.812H27.126M20.124 18C21.291 18.291 23.625 19.314 23.625 22.374C23.625 27.624 16.623 27.624 16.623 27.624C16.623 27.624 20.124 30.687 25.374 32.001" stroke="white" stroke-width="1.5" stroke-linecap="round" stroke-linejoin="round"/>
<path d="M21 40.5C31.5 40.5 39 36.786 39 28.518C39 19.533 34.5 13.542 25.5 9.048L29.04 4.494C29.2203 4.19528 29.3182 3.85411 29.3237 3.50525C29.3292 3.15638 29.2422 2.81228 29.0715 2.508C28.9007 2.20372 28.6524 1.95013 28.3517 1.77306C28.0511 1.59599 27.7089 1.50177 27.36 1.5H14.64C14.2918 1.50362 13.9508 1.59899 13.6512 1.77649C13.3517 1.95398 13.1042 2.20733 12.9338 2.51098C12.7635 2.81463 12.6762 3.15785 12.6808 3.506C12.6853 3.85416 12.7817 4.19495 12.96 4.494L16.5 9.078C7.5 13.602 3 19.593 3 28.578C3 36.786 10.5 40.5 21 40.5Z" stroke="white" stroke-width="1.5" stroke-linecap="round" stroke-linejoin="round"/>
</svg>
