<svg width="48" height="48" viewBox="0 0 48 48" fill="none" xmlns="http://www.w3.org/2000/svg">
<path d="M19.6462 15.6288C16.8123 15.6288 14.5059 13.2109 14.5059 10.2402C14.5059 7.26942 16.8123 4.85156 19.6462 4.85156C22.48 4.85156 24.7865 7.26942 24.7865 10.2402C24.7865 13.2109 22.4722 15.6288 19.6462 15.6288ZM19.6462 6.09762C17.4657 6.09762 15.6866 7.95434 15.6866 10.2484C15.6866 12.5425 17.4578 14.3992 19.6462 14.3992C21.8345 14.3992 23.6057 12.5425 23.6057 10.2484C23.6057 7.95434 21.8267 6.09762 19.6462 6.09762Z" fill="white"/>
<path d="M11.4445 26.0002C9.15377 26.0002 7.28027 24.0445 7.28027 21.6349C7.28027 19.2335 9.1459 17.2695 11.4445 17.2695C13.7431 17.2695 15.6087 19.2253 15.6087 21.6349C15.6008 24.0445 13.7352 26.0002 11.4445 26.0002ZM11.4445 18.5156C9.79926 18.5156 8.46105 19.9184 8.46105 21.6431C8.46105 23.3678 9.79926 24.7707 11.4445 24.7707C13.0897 24.7707 14.4279 23.3678 14.4279 21.6431C14.42 19.9184 13.0818 18.5156 11.4445 18.5156Z" fill="white"/>
<path d="M38.7038 29.9782C36.6886 29.9782 35.0513 28.2618 35.0513 26.1493C35.0513 24.0367 36.6886 22.3203 38.7038 22.3203C40.719 22.3203 42.3563 24.0367 42.3563 26.1493C42.3642 28.2618 40.719 29.9782 38.7038 29.9782ZM38.7038 23.5581C37.342 23.5581 36.232 24.7217 36.232 26.1493C36.232 27.5769 37.342 28.7404 38.7038 28.7404C40.0656 28.7404 41.1756 27.5769 41.1756 26.1493C41.1834 24.7217 40.0735 23.5581 38.7038 23.5581Z" fill="white"/>
<path d="M30.2417 17.2565C27.6991 17.2565 25.6367 15.0862 25.6367 12.429C25.6367 9.77185 27.707 7.60156 30.2417 7.60156C32.7765 7.60156 34.8468 9.77185 34.8468 12.429C34.8468 15.0862 32.7765 17.2565 30.2417 17.2565ZM30.2417 8.83112C28.3525 8.83112 26.8175 10.4403 26.8175 12.4208C26.8175 14.4013 28.3525 16.0104 30.2417 16.0104C32.131 16.0104 33.666 14.4013 33.666 12.4208C33.666 10.4403 32.131 8.83112 30.2417 8.83112Z" fill="white"/>
<path d="M42.491 43.851H41.3102V41.4497C41.3102 41.1113 41.5779 40.8307 41.9006 40.8307C42.4595 40.8307 42.9161 40.3521 42.9161 39.7662V34.4106C42.9161 32.9088 41.7511 31.6792 40.3105 31.6792H37.1067C35.674 31.6792 34.5011 32.9005 34.5011 34.4106V39.7662C34.5011 40.3521 34.9577 40.8307 35.5166 40.8307C35.8393 40.8307 36.1069 41.1113 36.1069 41.4497V43.851H34.9262V41.986C34.0052 41.7137 33.3203 40.8225 33.3203 39.7662V34.4106C33.3203 32.2238 35.0206 30.4414 37.1067 30.4414H40.3105C42.3965 30.4414 44.0969 32.2238 44.0969 34.4106V39.7662C44.0969 40.8225 43.4199 41.7137 42.491 41.986V43.851Z" fill="white"/>
<path d="M26.1016 19.8302C25.1806 18.6337 23.8187 17.9405 22.3467 17.9405H16.9309C15.8288 17.9405 14.7425 18.3448 13.8924 19.0793L13.1445 18.122C14.2072 17.2061 15.5533 16.7109 16.9309 16.7109H22.3467C24.173 16.7109 25.8733 17.5692 27.0226 19.0628L26.1016 19.8302Z" fill="white"/>
<path d="M15.8211 43.8517H14.6403V39.7834C14.6403 39.4451 14.908 39.1645 15.2307 39.1645C15.9549 39.1645 16.5453 38.5456 16.5453 37.7864V31.4323C16.5453 29.5839 15.1127 28.0737 13.3415 28.0737H10.1377C10.3345 29.3033 9.79917 30.5741 8.72073 31.226C7.98077 31.6716 7.11487 31.7542 6.33556 31.4818V37.7782C6.33556 38.5374 6.92595 39.1563 7.65016 39.1563C7.9729 39.1563 8.24055 39.4368 8.24055 39.7752V43.8434H7.05977V40.3198C5.96558 40.0392 5.15479 39.0077 5.15479 37.7782V31.4241C5.15479 31.0857 5.19414 30.7309 5.27286 30.3761C5.32009 30.1698 5.46179 30.0047 5.65071 29.9387C5.83964 29.8644 6.05217 29.8975 6.20961 30.0295C6.76851 30.4751 7.52421 30.5246 8.13821 30.1533C8.94114 29.6664 9.2324 28.6101 8.81519 27.7437C8.72073 27.5539 8.7286 27.3311 8.83093 27.1495C8.93327 26.968 9.11432 26.8524 9.31111 26.8442C9.32686 26.8442 9.35047 26.8442 9.36622 26.8442C9.42132 26.8442 9.47642 26.8359 9.54727 26.8359H13.3494C15.766 26.8359 17.734 28.899 17.734 31.4323V37.7864C17.734 39.016 16.9232 40.0475 15.829 40.3281V43.8517H15.8211Z" fill="white"/>
<path d="M26.0227 43.8519H25.4323V36.3673C23.9839 36.0785 22.8818 34.7417 22.8818 33.1325V23.6014C22.8818 20.8947 24.9836 18.6914 27.5656 18.6914H32.8082V19.9292H27.5656C25.637 19.9292 24.0626 21.5796 24.0626 23.6014V33.1325C24.0626 34.263 24.9443 35.1873 26.0227 35.1873C26.3454 35.1873 26.6131 35.4678 26.6131 35.8062V43.8519H26.0227Z" fill="white"/>
<path d="M34.9573 23.3034C34.3433 23.3034 33.7214 23.1053 33.2018 22.6845C32.58 22.1894 32.1785 21.4714 32.0683 20.6627C31.9581 19.854 32.1628 19.0453 32.6272 18.3934L33.4301 17.2794C33.8237 16.7348 34.5558 16.6275 35.0753 17.0401L37.8698 19.2516C38.3894 19.6642 38.4917 20.4317 38.0981 20.9763L37.2952 22.0903C36.7206 22.8825 35.8389 23.3034 34.9573 23.3034ZM34.3669 18.0303L33.5718 19.1361C33.2884 19.5239 33.1703 20.0108 33.2333 20.4894C33.2963 20.9763 33.5403 21.4054 33.9103 21.6942C34.6817 22.3049 35.7759 22.1398 36.3506 21.3394L37.1456 20.2336L34.3669 18.0303Z" fill="white"/>
<path d="M7.26405 31.6386C6.24858 31.6386 5.2646 31.0857 4.72932 30.1037L4.06808 28.8989C3.91064 28.6101 3.87129 28.28 3.95 27.9664C4.02872 27.6446 4.22552 27.3805 4.50103 27.2155L7.53169 25.3835C8.09059 25.0452 8.8148 25.2432 9.13754 25.8374L9.79878 27.0422C10.6017 28.5028 10.1215 30.3843 8.72821 31.2342C8.26377 31.5065 7.75997 31.6386 7.26405 31.6386ZM5.09142 28.2882L5.75265 29.4848C6.23284 30.3595 7.30341 30.6566 8.13782 30.1532C8.97224 29.6498 9.25562 28.5275 8.77544 27.6528L8.1142 26.4563L5.09142 28.2882Z" fill="white"/>
</svg>
