<svg width="48" height="48" viewBox="0 0 48 48" fill="none" xmlns="http://www.w3.org/2000/svg">
<path d="M39.9083 33.4389C39.893 33.4543 39.8759 33.4697 39.8589 33.4836L30.5997 40.4694C29.7661 41.0994 28.8287 41.4044 27.736 41.4044H7.99583C7.72992 41.4044 7.51514 41.2103 7.51514 40.97C7.51514 40.7297 7.72991 40.5356 7.99583 40.5356H27.736C28.5934 40.5356 29.3281 40.2953 29.9826 39.8023L39.2108 32.8382C39.6523 32.3699 39.6233 31.666 39.1393 31.2223C38.6466 30.7833 37.8506 30.7633 37.3324 31.1823C37.3103 31.2008 37.2864 31.2162 37.2609 31.23L29.4849 35.4692C29.2582 36.1085 28.6769 36.6137 27.9286 36.7816C27.8911 36.7893 27.8519 36.794 27.8127 36.794L22.1845 36.7955C21.9186 36.7955 21.7038 36.6014 21.7038 36.3611C21.7038 36.1208 21.9186 35.9267 22.1845 35.9267H27.7481C28.2356 35.7957 28.5851 35.4076 28.6243 34.947C28.6703 34.4879 28.4146 34.0628 27.9851 33.8564H23.4478C23.2926 33.8564 23.1478 33.7886 23.0574 33.6746C22.246 32.6487 19.2511 32.2436 17.5313 33.2264L14.0131 35.2212C13.9364 35.2643 13.8478 35.2874 13.7574 35.2874H10.1472C9.88132 35.2874 9.66654 35.0933 9.66654 34.853C9.66654 34.6127 9.88131 34.4186 10.1472 34.4186H13.6194L17.0183 32.4916C19.1046 31.2978 22.4471 31.7707 23.6763 32.9876H28.0962C28.1627 32.9876 28.2275 32.9999 28.2888 33.0245C28.9434 33.2833 29.4019 33.8086 29.5451 34.4232L36.7298 30.506C37.6264 29.8128 38.9747 29.8544 39.8218 30.6092C40.6724 31.3886 40.7082 32.6287 39.9088 33.4389L39.9083 33.4389ZM26.0861 16.4774C26.352 16.4774 26.5668 16.6715 26.5668 16.9118V25.5073C26.5668 25.7476 26.352 25.9417 26.0861 25.9417H22.919C22.6531 25.9417 22.4383 25.7476 22.4383 25.5073V16.9118C22.4383 16.6715 22.6531 16.4774 22.919 16.4774H26.0861ZM25.6071 17.3462H23.4014V25.0729H25.6071V17.3462ZM30.9796 13.9219C31.2455 13.9219 31.4603 14.1159 31.4603 14.3563V25.5071C31.4603 25.7474 31.2455 25.9415 30.9796 25.9415H27.8125C27.5466 25.9415 27.3318 25.7474 27.3318 25.5071V14.3563C27.3318 14.116 27.5466 13.9219 27.8125 13.9219H30.9796ZM30.4989 14.7906H28.2932V25.0743H30.4989V14.7906ZM36.354 11.0336V25.5072C36.354 25.7475 36.1392 25.9416 35.8733 25.9416H32.7046C32.4387 25.9416 32.2239 25.7475 32.2239 25.5072V11.0336C32.2239 10.7933 32.4386 10.5992 32.7046 10.5992H35.8716C36.1375 10.5992 36.354 10.7933 36.354 11.0336ZM35.3909 11.468H33.1853V25.0744H35.3909V11.468ZM17.5459 17.0981C17.655 17.0981 17.764 17.0642 17.8527 16.9964L21.8754 13.9649L25.3118 14.6596C25.4567 14.6889 25.6084 14.6565 25.7226 14.5702L36.3284 6.68337C36.5329 6.53087 36.5619 6.25669 36.3932 6.07183C36.2244 5.88698 35.9227 5.86079 35.7165 6.01329L25.293 13.7661L21.855 13.0714C21.7084 13.0421 21.5567 13.076 21.4425 13.1623L17.2374 16.3309C17.0328 16.4849 17.0073 16.7591 17.176 16.9424C17.2715 17.0456 17.4078 17.0981 17.5459 17.0981ZM11.7846 31.1386C10.9203 30.3577 10.4465 29.3225 10.4482 28.2227C10.4499 27.1275 10.9255 26.0985 11.7846 25.3252C12.5277 24.6536 13.484 24.2453 14.5186 24.1483V6.57673C14.5186 6.33643 14.7334 6.14232 14.9993 6.14232C15.2653 6.14232 15.48 6.33642 15.48 6.57673L15.4817 24.151C16.2266 24.2219 16.9323 24.456 17.546 24.835V18.8784C17.546 18.6381 17.7607 18.444 18.0267 18.444H21.1937C21.4596 18.444 21.6744 18.6381 21.6744 18.8784V25.507C21.6744 25.7473 21.4596 25.9414 21.1937 25.9414H18.7681C19.1823 26.4943 19.438 27.129 19.5164 27.7991H38.9551C39.221 27.7991 39.4358 27.9932 39.4358 28.2335C39.4358 28.4738 39.221 28.6679 38.9551 28.6679H19.5147C19.4056 29.5998 18.9521 30.4655 18.2056 31.1387C17.3482 31.9135 16.2095 32.3387 14.9959 32.3387C13.7823 32.3402 12.642 31.9135 11.7846 31.1386ZM18.5072 25.0725H20.7129V19.3131H18.5072V25.0725ZM11.411 28.2257C11.4093 29.0929 11.7843 29.9093 12.4645 30.5255C13.1395 31.1355 14.0378 31.4713 14.9957 31.4713C15.952 31.4713 16.852 31.1355 17.527 30.5255C18.2088 29.9093 18.5821 29.0929 18.5804 28.2257C18.5787 27.363 18.2054 26.5528 17.527 25.9428C16.8503 25.3312 15.952 24.9954 14.9957 24.9954C14.0395 24.9954 13.1395 25.3313 12.4645 25.9412C11.786 26.5513 11.411 27.363 11.411 28.2257ZM15.3008 29.307H13.8588C13.5929 29.307 13.3781 29.5011 13.3781 29.7414C13.3781 29.9818 13.5928 30.1759 13.8588 30.1759H14.5184V30.3207C14.5184 30.561 14.7332 30.7551 14.9991 30.7551C15.265 30.7551 15.4798 30.561 15.4798 30.3207V30.1589C16.1224 30.0804 16.6202 29.589 16.6202 28.9913C16.6202 28.3335 16.0287 27.799 15.3009 27.799H14.6889C14.4963 27.799 14.3395 27.6542 14.3395 27.4756C14.3395 27.3015 14.4963 27.1613 14.6889 27.1613H16.1412C16.4071 27.1613 16.6219 26.9672 16.6219 26.7269C16.6219 26.4866 16.4071 26.2925 16.1412 26.2925H15.4816V26.1477C15.4816 25.9074 15.2668 25.7133 15.0009 25.7133C14.7349 25.7133 14.5202 25.9074 14.5202 26.1477V26.3079C13.8775 26.3834 13.3798 26.8763 13.3798 27.4771C13.3798 28.1348 13.9679 28.6693 14.6906 28.6693H15.3025C15.5002 28.6693 15.6605 28.8141 15.6605 28.9928C15.6605 29.1622 15.4968 29.307 15.3008 29.307Z" fill="white"/>
</svg>
