<svg width="48" height="48" viewBox="0 0 48 48" fill="none" xmlns="http://www.w3.org/2000/svg">
<path d="M32.0591 19.3229H32.1818C32.9318 19.3229 33.5455 18.7509 33.5455 18.0517V16.7805C33.5455 16.0813 32.9318 15.5093 32.1818 15.5093H31.1659L33.15 12.4076C33.6682 11.5941 33.6819 10.5771 33.1773 9.75723C32.7069 8.98182 31.8682 8.51781 30.9477 8.51781H30.0409C30.2455 7.81864 30.1159 7.09408 29.6659 6.47757C29.1409 5.7657 28.2682 5.33984 27.3205 5.33984H20.6795C19.7317 5.33984 18.8522 5.7657 18.334 6.47757C17.884 7.08774 17.7545 7.81868 17.959 8.51781H17.0522C16.1317 8.51781 15.2999 8.98178 14.8226 9.75723C14.3181 10.5835 14.3317 11.6004 14.8499 12.4076L16.834 15.5093H15.8181C15.0681 15.5093 14.4545 16.0813 14.4545 16.7805V18.0517C14.4545 18.7509 15.0681 19.3229 15.8181 19.3229H15.9408C14.1886 21.9543 9.68164 29.2447 9.68164 34.5771C9.68164 42.8396 15.6136 43.4754 23.9996 43.4754C32.3856 43.4754 38.3176 42.8398 38.3176 34.5771C38.3176 29.2447 33.8108 21.9544 32.0584 19.3229H32.0591ZM29.5295 9.78879H30.9477C31.3773 9.78879 31.7591 10.0049 31.9909 10.3863C32.25 10.8121 32.25 11.3397 31.9773 11.7592L29.5773 15.5092H27.1295L29.5295 9.78879ZM19.4591 7.19557C19.725 6.82693 20.1818 6.61083 20.6796 6.61083H27.3206C27.8183 6.61083 28.2752 6.82693 28.5411 7.19557C28.7865 7.53243 28.8411 7.94559 28.6843 8.32056L25.6706 15.5092H22.3366L19.323 8.32056C19.1661 7.94556 19.2139 7.53243 19.4661 7.19557H19.4591ZM16.0228 11.7592C15.7569 11.3398 15.75 10.8122 16.0091 10.3864C16.241 10.0114 16.6159 9.78887 17.0523 9.78887H18.4705L20.8705 15.509H18.4228L16.0228 11.7592ZM15.8182 18.0517V16.7805H32.1819V18.0517H30.8182H15.8182ZM24 42.2043C15.1907 42.2043 11.0453 41.4542 11.0453 34.5771C11.0453 29.0856 16.4453 20.9374 17.5497 19.3229H30.443C31.5475 20.9373 36.9474 29.0791 36.9474 34.5771C36.9474 41.4542 32.8019 42.2043 23.9926 42.2043H24Z" fill="white"/>
<path d="M24.0002 23.7695C19.8616 23.7695 16.5 26.903 16.5 30.7613C16.5 34.6195 19.8614 37.753 24.0002 37.753C28.1391 37.753 31.5004 34.6195 31.5004 30.7613C31.5004 26.903 28.1391 23.7695 24.0002 23.7695ZM24.0002 36.4814C20.6184 36.4814 17.8641 33.9136 17.8641 30.7613C17.8641 27.6089 20.6186 25.0411 24.0002 25.0411C27.3818 25.0411 30.1364 27.6089 30.1364 30.7613C30.1364 33.9136 27.3818 36.4814 24.0002 36.4814Z" fill="white"/>
<path d="M27.6615 31.4417L24.682 30.3294V26.9481C24.682 26.5985 24.3752 26.3125 24.0002 26.3125C23.6252 26.3125 23.3184 26.5985 23.3184 26.9481V30.7617C23.3184 31.0222 23.4888 31.2574 23.7479 31.3527L27.157 32.6239C27.2388 32.6557 27.3275 32.6684 27.4093 32.6684C27.682 32.6684 27.9343 32.5159 28.0433 32.268C28.1865 31.9438 28.0161 31.5752 27.6615 31.4417Z" fill="white"/>
</svg>
