<svg width="48" height="48" viewBox="0 0 48 48" fill="none" xmlns="http://www.w3.org/2000/svg">
<path d="M23.9998 41.5587H8.99285C8.61615 41.5587 8.31104 41.2507 8.31104 40.8706V19.7193C8.31104 19.3392 8.61615 19.0312 8.99285 19.0312C9.36956 19.0312 9.67467 19.3392 9.67467 19.7193V40.1827H23.9996C24.3763 40.1827 24.6814 40.4907 24.6814 40.8708C24.6814 41.251 24.3765 41.5587 23.9998 41.5587Z" fill="white"/>
<path d="M34.8542 26.0642C34.4775 26.0642 34.1724 25.7563 34.1724 25.3762V19.7271C34.1724 19.347 34.4775 19.0391 34.8542 19.0391C35.2309 19.0391 35.536 19.347 35.536 19.7271V25.3762C35.536 25.7563 35.2309 26.0642 34.8542 26.0642Z" fill="white"/>
<path d="M6.95758 21.5146C6.82804 21.5146 6.69849 21.5026 6.56724 21.4768C6.032 21.3736 5.56666 21.0639 5.25985 20.6081C4.62747 19.6654 4.87292 18.3787 5.80531 17.7405L20.7748 7.50906C21.4719 7.03258 22.3719 7.0343 23.0691 7.50906L38.0368 17.7405C38.9692 18.3804 39.2146 19.6671 38.5822 20.6081C38.2004 21.1758 37.568 21.5129 36.8879 21.5129C36.4788 21.5129 36.0834 21.3908 35.7425 21.1585L21.922 11.7114L8.10145 21.1585C7.75884 21.3925 7.36327 21.5146 6.95758 21.5146ZM21.9218 8.53086C21.7888 8.53086 21.6559 8.57042 21.54 8.64955L6.57227 18.8793C6.26204 19.0926 6.18023 19.5226 6.38988 19.8357C6.49216 19.9871 6.64557 20.0903 6.82625 20.1247C7.00523 20.1574 7.18591 20.1213 7.33762 20.018L21.5399 10.3093C21.7718 10.151 22.0735 10.151 22.3053 10.3093L36.5076 20.018C36.8093 20.2245 37.2508 20.1367 37.4554 19.834C37.6667 19.5209 37.5832 19.0909 37.2713 18.8776L22.3036 8.64915C22.1876 8.57002 22.0548 8.53086 21.9218 8.53086Z" fill="white"/>
<path d="M34.9567 45.4795C30.9101 45.4795 26.8159 44.3613 26.8159 42.2249V30.8991C26.8159 28.7626 30.9102 27.6445 34.9567 27.6445C39.0032 27.6445 43.091 28.7627 43.091 30.8991V42.2249C43.091 44.3614 39.0001 45.4795 34.9567 45.4795ZM34.9567 29.0208C30.7533 29.0208 28.1796 30.2369 28.1796 30.8992V42.225C28.1796 42.8873 30.7534 44.1034 34.9567 44.1034C39.16 44.1034 41.7273 42.8873 41.7273 42.225V30.8992C41.7273 30.2369 39.1569 29.0208 34.9567 29.0208Z" fill="white"/>
<path d="M34.9564 37.9318C32.8104 37.9318 30.8042 37.6308 29.3107 37.0855C28.9562 36.9564 28.7738 36.5608 28.9017 36.2047C29.0295 35.8469 29.4215 35.6611 29.7744 35.7919C31.1039 36.277 32.9926 36.5556 34.9562 36.5556C36.9079 36.5556 38.7948 36.2804 40.1345 35.797C40.4891 35.6663 40.8794 35.8555 41.0056 36.2133C41.1317 36.5711 40.9476 36.965 40.5931 37.0923C39.0914 37.6325 37.0902 37.9318 34.9579 37.9318L34.9564 37.9318Z" fill="white"/>
<path d="M34.9566 33.6512C32.8106 33.6512 30.8061 33.3502 29.3109 32.8049C28.9564 32.6759 28.7723 32.282 28.9018 31.9242C29.0297 31.5664 29.42 31.3788 29.7746 31.5113C31.1058 31.9964 32.9945 32.2751 34.9564 32.2751C36.9081 32.2751 38.795 31.9999 40.1347 31.5165C40.4893 31.3875 40.8796 31.575 41.0057 31.9327C41.1319 32.2905 40.9478 32.6845 40.5932 32.8118C39.0915 33.3519 37.0904 33.6512 34.958 33.6512L34.9566 33.6512Z" fill="white"/>
<path d="M34.9566 41.9598C32.8106 41.9598 30.8061 41.6588 29.3109 41.1135C28.9564 40.9845 28.7723 40.5905 28.9018 40.2328C29.0297 39.875 29.42 39.6874 29.7746 39.8199C31.1058 40.305 32.9945 40.5837 34.9564 40.5837C36.9081 40.5837 38.795 40.3084 40.1347 39.8251C40.4893 39.696 40.8796 39.8835 41.0057 40.2413C41.1319 40.5991 40.9478 40.993 40.5932 41.1204C39.0915 41.6605 37.0904 41.9598 34.958 41.9598L34.9566 41.9598Z" fill="white"/>
<path d="M22.7843 41.5575H13.6242C13.2475 41.5575 12.9424 41.2496 12.9424 40.8694V28.3326C12.9424 27.9524 13.2475 27.6445 13.6242 27.6445H22.7843C23.1611 27.6445 23.4662 27.9524 23.4662 28.3326V40.8694C23.4662 41.2496 23.1611 41.5575 22.7843 41.5575ZM14.3058 40.1813H22.1023V29.0207H14.3058V40.1813Z" fill="white"/>
<path d="M21.9218 24.4196C19.844 24.4196 18.1548 22.7132 18.1548 20.618C18.1548 18.5228 19.8457 16.8164 21.9218 16.8164C23.9997 16.8164 25.6889 18.5228 25.6889 20.618C25.6889 22.7149 23.998 24.4196 21.9218 24.4196ZM21.9218 18.1906C20.5957 18.1906 19.5184 19.2795 19.5184 20.6161C19.5184 21.9544 20.5974 23.0415 21.9218 23.0415C23.248 23.0415 24.3252 21.9543 24.3252 20.6161C24.3252 19.2777 23.2462 18.1906 21.9218 18.1906Z" fill="white"/>
</svg>
