<svg width="3347" height="2317" viewBox="0 0 3347 2317" fill="none" xmlns="http://www.w3.org/2000/svg">
<path d="M311 417.86C211.45 417.86 130 336.41 130 236.86C130 137.31 211.45 55.8601 311 55.8601C410.55 55.8601 492 137.31 492 236.86C492 336.41 410.55 417.86 311 417.86Z" fill="#DBAB56"/>
<path d="M311.005 395.537C404.638 395.537 480.542 319.633 480.542 226C480.542 132.368 404.638 56.4634 311.005 56.4634C217.373 56.4634 141.469 132.368 141.469 226C141.469 319.633 217.373 395.537 311.005 395.537Z" fill="#EFB30C"/>
<path d="M161.375 246.513C161.375 152.997 237.395 76.9766 330.911 76.9766C372.542 76.9766 410.551 92.0599 440.115 116.797C409.345 79.9933 362.888 56.4633 311.001 56.4633C217.485 56.4633 141.465 132.483 141.465 226C141.465 277.887 164.995 324.343 201.798 355.717C176.458 326.153 161.375 288.143 161.375 246.513Z" fill="#E5A300"/>
<path d="M431.068 106.54C497.435 172.907 497.435 280.3 431.068 346.667C364.701 413.033 257.308 413.033 190.941 346.667" fill="#E5A300"/>
<path d="M311 407C211.45 407 130 325.55 130 226C130 126.45 211.45 45 311 45C410.55 45 492 126.45 492 226C492 325.55 410.55 407 311 407ZM311 67.9267C223.517 67.9267 152.927 139.12 152.927 226C152.927 313.483 224.12 384.073 311 384.073C397.88 384.073 469.073 312.88 469.073 226C469.073 139.12 398.483 67.9267 311 67.9267Z" fill="#F7D27F"/>
<path d="M491.999 226C491.999 180.147 475.106 138.517 447.352 107.143C415.376 79.39 373.746 62.4967 327.892 62.4967C297.122 62.4967 268.766 70.34 243.426 83.6134C263.939 73.3567 286.866 67.9267 310.999 67.9267C358.662 67.9267 402.102 89.6467 431.062 123.433C464.849 152.393 485.966 195.23 485.966 243.497C485.966 267.63 480.536 290.557 470.882 311.07C484.156 285.73 491.999 256.77 491.999 226Z" fill="#EFC273"/>
<path d="M146.895 243.497C146.895 289.35 163.788 330.98 191.541 362.353C223.518 390.107 265.148 407 310.398 407C341.168 407 369.525 399.157 394.865 385.883C374.351 395.537 351.425 400.967 327.291 400.967C279.628 400.967 236.188 379.247 207.228 345.46C173.441 316.5 151.721 273.663 151.721 225.397C151.721 201.263 157.151 178.337 166.805 157.823C154.738 183.767 146.895 212.727 146.895 243.497Z" fill="#EAC06C"/>
<path d="M321.259 111.97C321.259 117.4 316.433 126.45 311.003 126.45C305.573 126.45 300.746 117.4 300.746 111.97C300.746 106.54 305.573 101.713 311.003 101.713C316.433 101.713 321.259 106.54 321.259 111.97Z" fill="#E5A300"/>
<path d="M311.003 122.227C316.667 122.227 321.259 117.635 321.259 111.97C321.259 106.305 316.667 101.713 311.003 101.713C305.338 101.713 300.746 106.305 300.746 111.97C300.746 117.635 305.338 122.227 311.003 122.227Z" fill="#F7D27F"/>
<path d="M318.246 104.73C322.469 108.953 322.469 114.987 318.246 119.21C314.022 123.433 307.989 123.433 303.766 119.21" fill="#EFC273"/>
<path d="M312.206 61.8933C312.206 62.4966 311.603 63.0999 311 63.0999C310.396 63.0999 309.793 62.4966 309.793 61.8933V50.4299C309.793 49.8266 310.396 49.2233 311 49.2233C311.603 49.2233 312.206 49.8266 312.206 50.4299V61.8933Z" fill="#FFE0A1"/>
<path d="M312.206 402.173C312.206 402.777 311.603 403.38 311 403.38C310.396 403.38 309.793 402.777 309.793 402.173V390.71C309.793 390.107 310.396 389.503 311 389.503C311.603 389.503 312.206 390.107 312.206 390.71V402.173Z" fill="#FFE0A1"/>
<path d="M428.048 111.367C427.444 111.97 426.841 111.97 426.238 111.367C425.634 110.763 425.634 110.16 426.238 109.557L434.684 101.11C435.288 100.507 435.891 100.507 436.494 101.11C437.098 101.713 437.098 102.317 436.494 102.92L428.048 111.367Z" fill="#FFE0A1"/>
<path d="M187.927 351.493C187.323 352.097 186.72 352.097 186.117 351.493C185.513 350.89 185.513 350.287 186.117 349.683L194.563 341.237C195.167 340.633 195.77 340.633 196.373 341.237C196.977 341.84 196.977 342.443 196.373 343.047L187.927 351.493Z" fill="#FFE0A1"/>
<path d="M475.109 227.81C474.506 227.81 473.902 227.207 473.902 226.603C473.902 226 474.506 225.397 475.109 225.397H486.572C487.176 225.397 487.779 226 487.779 226.603C487.779 227.207 487.176 227.81 486.572 227.81H475.109Z" fill="#FFE0A1"/>
<path d="M135.433 227.81C134.83 227.81 134.227 227.207 134.227 226.603C134.227 226 134.83 225.397 135.433 225.397H146.897C147.5 224.793 148.103 225.397 148.103 226C148.103 226.603 147.5 227.207 146.897 227.207H135.433V227.81Z" fill="#FFE0A1"/>
<path d="M426.238 343.65C425.634 343.047 425.634 342.443 426.238 341.84C426.841 341.237 427.444 341.237 428.048 341.84L436.494 350.287C437.098 350.89 437.098 351.493 436.494 352.097C435.891 352.7 435.288 352.7 434.684 352.097L426.238 343.65Z" fill="#FFE0A1"/>
<path d="M185.511 102.92C184.908 102.317 184.908 101.713 185.511 101.11C186.114 100.507 186.718 100.507 187.321 101.11L195.768 109.557C196.371 110.16 196.371 110.763 195.768 111.367C195.164 111.97 194.561 111.97 193.958 111.367L185.511 102.92Z" fill="#FFE0A1"/>
<path d="M230.154 83.6133C230.757 84.2167 230.154 85.4233 229.55 85.4233C228.947 86.0267 227.74 85.4233 227.74 84.82L221.707 74.5633C221.104 73.96 221.707 72.7533 222.31 72.7533C222.914 72.15 224.12 72.7533 224.12 73.3567L230.154 83.6133Z" fill="#FFE0A1"/>
<path d="M400.294 378.04C400.898 378.643 400.294 379.85 399.691 379.85C399.088 380.453 397.881 379.85 397.881 379.247L391.848 368.99C391.244 368.387 391.848 367.18 392.451 367.18C393.054 366.577 394.261 367.18 394.261 367.783L400.294 378.04Z" fill="#FFE0A1"/>
<path d="M355.048 67.9265C355.048 68.5299 353.841 69.1332 353.238 69.1332C352.635 69.1332 352.031 67.9265 352.031 67.3232L355.048 55.8599C355.048 55.2565 356.255 54.6532 356.858 54.6532C357.461 54.6532 358.065 55.8599 358.065 56.4632L355.048 67.9265Z" fill="#FFE0A1"/>
<path d="M266.958 396.14C266.958 396.743 265.751 397.347 265.148 397.347C264.545 397.347 263.941 396.14 263.941 395.537L266.958 384.073C266.958 383.47 268.165 382.867 268.768 382.867C269.371 382.867 269.975 384.073 269.975 384.677L266.958 396.14Z" fill="#FFE0A1"/>
<path d="M453.99 145.153C453.386 145.757 452.18 145.153 452.18 144.55C451.576 143.947 452.18 142.74 452.783 142.74L463.04 136.707C463.643 136.103 464.85 136.707 464.85 137.31C465.453 137.913 464.85 139.12 464.246 139.12L453.99 145.153Z" fill="#FFE0A1"/>
<path d="M159.568 315.293C158.964 315.897 157.758 315.293 157.758 314.69C157.154 314.087 157.758 312.88 158.361 312.88L168.618 306.847C169.221 306.243 170.428 306.847 170.428 307.45C171.031 308.053 170.428 309.26 169.824 309.26L159.568 315.293Z" fill="#FFE0A1"/>
<path d="M469.074 270.043C468.471 270.043 467.867 268.837 467.867 268.233C467.867 267.63 469.074 267.027 469.677 267.027L481.141 270.043C481.744 270.043 482.347 271.25 482.347 271.853C482.347 272.457 481.141 273.06 480.537 273.06L469.074 270.043Z" fill="#FFE0A1"/>
<path d="M140.863 181.957C140.26 181.957 139.656 180.75 139.656 180.147C139.656 179.543 140.863 178.94 141.466 178.94L152.93 181.957C153.533 181.957 154.136 183.163 154.136 183.767C154.136 184.37 152.93 184.973 152.326 184.973L140.863 181.957Z" fill="#FFE0A1"/>
<path d="M169.824 142.74C170.428 143.343 171.031 143.947 170.428 144.55C169.824 145.153 169.221 145.757 168.618 145.153L158.361 139.12C157.758 138.517 157.154 137.913 157.758 137.31C158.361 136.707 158.964 136.103 159.568 136.707L169.824 142.74Z" fill="#FFE0A1"/>
<path d="M464.246 312.88C464.85 313.483 465.453 314.087 464.85 314.69C464.246 315.293 463.643 315.897 463.04 315.293L452.783 309.26C452.18 308.657 451.576 308.053 452.18 307.45C452.783 306.847 453.386 306.243 453.99 306.847L464.246 312.88Z" fill="#FFE0A1"/>
<path d="M269.975 67.3232C269.975 67.9265 269.975 69.1332 268.768 69.1332C268.165 69.1332 266.958 69.1332 266.958 67.9265L263.941 56.4632C263.941 55.8599 263.941 54.6532 265.148 54.6532C265.751 54.6532 266.958 54.6532 266.958 55.8599L269.975 67.3232Z" fill="#FFE0A1"/>
<path d="M358.065 395.537C358.065 396.14 358.065 397.347 356.858 397.347C356.255 397.347 355.048 397.347 355.048 396.14L352.031 384.677C352.031 384.073 352.031 382.867 353.238 382.867C353.841 382.867 355.048 382.867 355.048 384.073L358.065 395.537Z" fill="#FFE0A1"/>
<path d="M394.261 84.82C393.658 85.4233 393.054 86.0267 392.451 85.4233C391.848 84.82 391.244 84.2167 391.848 83.6133L397.881 73.3567C398.484 72.7533 399.088 72.15 399.691 72.7533C400.294 73.3567 400.898 73.96 400.294 74.5633L394.261 84.82Z" fill="#FFE0A1"/>
<path d="M224.12 379.247C223.517 379.85 222.914 380.453 222.31 379.85C221.707 379.246 221.104 378.643 221.707 378.04L227.74 367.783C228.344 367.18 228.947 366.577 229.55 367.18C230.154 367.783 230.757 368.387 230.154 368.99L224.12 379.247Z" fill="#FFE0A1"/>
<path d="M469.677 184.973C469.074 184.973 467.867 184.973 467.867 183.767C467.867 183.163 467.867 181.957 469.074 181.957L480.537 178.94C481.141 178.94 482.347 178.94 482.347 180.147C482.347 180.75 482.347 181.957 481.141 181.957L469.677 184.973Z" fill="#FFE0A1"/>
<path d="M141.466 273.06C140.863 273.06 139.656 273.06 139.656 271.853C139.656 271.25 139.656 270.043 140.863 270.043L152.326 267.027C152.93 267.027 154.136 267.027 154.136 268.233C154.136 268.837 154.136 270.043 152.93 270.043L141.466 273.06Z" fill="#FFE0A1"/>
<path d="M222.312 291.16C221.708 291.16 221.105 291.16 220.502 290.557C193.955 279.093 181.285 248.323 192.748 221.173C193.955 218.76 196.368 217.553 198.782 218.76C201.195 219.967 202.402 222.38 201.195 224.793C196.368 235.653 196.368 247.72 201.195 257.977C205.418 268.837 213.865 277.283 224.725 282.11C227.138 283.317 228.345 285.73 227.138 288.143C225.932 289.953 224.122 291.16 222.312 291.16Z" fill="#F7D27F"/>
<path d="M200.588 258.58C196.968 249.53 196.365 239.877 199.382 230.223C199.382 227.207 199.985 224.19 201.192 221.173C200.588 219.967 199.985 219.363 198.778 218.76C196.365 217.553 193.952 218.76 192.745 221.173C191.538 223.587 190.935 226 190.332 228.413C187.918 250.737 200.589 273.06 222.309 282.713C222.912 282.713 223.515 283.317 224.118 283.317C224.722 283.317 224.722 283.317 225.325 283.317L224.722 282.713C213.259 277.887 204.812 269.44 200.588 258.58Z" fill="#EFC273"/>
<path d="M216.276 184.973C209.639 184.973 202.399 190.403 198.176 199.453C193.952 207.9 196.969 210.917 200.589 215.743L216.276 184.973Z" fill="#F7D27F"/>
<path d="M216.277 184.973C219.897 190.403 219.897 199.453 215.673 207.9C211.45 216.95 207.227 215.743 200.59 215.743L216.277 184.973Z" fill="#EFC273"/>
<path d="M177.062 198.247C181.286 197.643 186.112 201.263 189.129 206.09C192.146 211.52 190.336 213.33 188.526 216.95L177.062 198.247Z" fill="#F7D27F"/>
<path d="M177.059 198.247C174.646 201.263 175.249 207.297 178.266 212.727C181.283 218.157 184.299 216.95 187.919 216.95L177.059 198.247Z" fill="#EFC273"/>
<path d="M230.762 219.967C227.142 216.347 220.506 215.743 213.869 217.553C207.232 219.967 207.232 222.983 206.629 227.207L230.762 219.967Z" fill="#F7D27F"/>
<path d="M230.762 219.967C230.159 224.793 225.332 229.62 218.092 231.43C211.456 233.843 209.646 230.827 206.629 227.81L230.762 219.967Z" fill="#EFC273"/>
<path d="M224.723 241.083C222.309 238.67 216.879 237.463 210.846 239.273C205.416 241.083 205.416 243.497 204.812 247.117L224.723 241.083Z" fill="#F7D27F"/>
<path d="M224.723 241.083C224.119 244.703 220.499 248.927 214.466 250.737C208.432 252.547 207.829 250.133 204.812 247.72L224.723 241.083Z" fill="#EFC273"/>
<path d="M167.41 223.587C170.427 221.777 175.857 222.38 181.287 225.397C186.113 228.413 185.51 230.827 184.907 234.447L167.41 223.587Z" fill="#F7D27F"/>
<path d="M167.409 222.983C166.805 226.603 169.822 231.43 174.649 234.447C179.475 237.463 181.285 235.653 184.302 233.843L167.409 222.983Z" fill="#EFC273"/>
<path d="M168.016 244.703C170.429 242.29 174.652 241.083 179.479 242.29C184.306 243.497 184.306 245.91 184.909 248.927L168.016 244.703Z" fill="#F7D27F"/>
<path d="M168.016 244.703C168.619 247.72 172.239 250.737 177.066 251.943C181.892 253.15 183.099 251.34 184.909 248.927L168.016 244.703Z" fill="#EFC273"/>
<path d="M171.633 263.407C173.443 260.39 177.666 259.183 183.096 259.787C187.923 260.39 188.526 262.803 189.129 265.82L171.633 263.407Z" fill="#F7D27F"/>
<path d="M171.633 263.407C172.839 266.423 176.459 268.837 181.889 269.44C186.716 270.043 187.319 268.233 189.129 265.217L171.633 263.407Z" fill="#EFC273"/>
<path d="M184.305 281.507C185.511 279.093 188.528 276.68 192.751 276.68C196.975 276.077 197.578 277.887 198.785 280.3L184.305 281.507Z" fill="#F7D27F"/>
<path d="M184.305 280.903C185.511 283.317 189.735 284.523 193.958 284.523C198.181 283.92 198.181 282.11 199.388 279.697L184.305 280.903Z" fill="#EFC273"/>
<path d="M201.195 294.177C201.195 291.763 203.005 289.35 206.022 287.54C209.039 285.73 210.245 286.937 212.055 288.143L201.195 294.177Z" fill="#F7D27F"/>
<path d="M201.195 294.177C203.005 295.383 206.625 295.383 209.642 293.573C212.659 291.763 212.659 290.557 212.055 288.143L201.195 294.177Z" fill="#EFC273"/>
<path d="M226.533 254.96C223.516 253.15 219.293 253.753 214.466 256.167C210.243 258.58 210.846 260.993 210.846 264.01L226.533 254.96Z" fill="#F7D27F"/>
<path d="M226.533 254.96C226.533 257.977 224.119 262.2 219.896 264.613C215.673 267.027 213.863 265.82 211.449 264.01L226.533 254.96Z" fill="#EFC273"/>
<path d="M230.757 267.027C228.344 265.82 224.724 267.027 221.707 270.043C218.69 273.06 219.897 274.267 220.5 276.68L230.757 267.027Z" fill="#F7D27F"/>
<path d="M230.761 267.027C231.364 269.44 230.157 273.06 227.141 276.077C224.124 279.093 222.917 277.887 220.504 276.68L230.761 267.027Z" fill="#EFC273"/>
<path d="M399.691 291.16C400.294 291.16 400.897 291.16 401.501 290.557C428.047 279.093 440.717 248.323 429.254 221.173C428.047 218.76 425.634 217.553 423.221 218.76C420.807 219.967 419.601 222.38 420.807 224.793C425.634 235.653 425.634 247.72 420.807 257.977C416.584 268.837 408.137 277.283 397.277 282.11C394.864 283.317 393.657 285.73 394.864 288.143C396.071 289.953 397.881 291.16 399.691 291.16Z" fill="#F7D27F"/>
<path d="M421.411 258.58C425.031 249.53 425.634 239.877 423.221 230.223C423.221 227.207 422.617 224.19 421.411 221.173C422.014 219.967 422.617 219.363 423.824 218.76C426.237 217.553 428.651 218.76 429.857 221.173C431.064 223.587 431.667 226 432.271 228.413C434.684 250.737 422.014 273.06 400.294 282.713C399.691 282.713 399.087 283.317 398.484 283.317C397.881 283.317 397.881 283.317 397.277 283.317L397.881 282.713C408.741 277.887 417.187 269.44 421.411 258.58Z" fill="#EFC273"/>
<path d="M405.723 184.973C412.359 184.973 419.599 190.403 423.823 199.453C428.046 207.9 425.029 210.917 421.409 215.743L405.723 184.973Z" fill="#F7D27F"/>
<path d="M405.722 184.973C402.102 190.403 402.102 199.453 406.325 207.9C410.549 216.95 414.772 215.743 421.409 215.743L405.722 184.973Z" fill="#EFC273"/>
<path d="M444.942 198.247C440.719 197.643 435.892 201.263 432.875 206.09C429.859 211.52 431.669 213.33 433.479 216.95L444.942 198.247Z" fill="#F7D27F"/>
<path d="M444.944 198.247C446.754 201.867 446.754 207.297 443.134 212.727C440.117 218.157 437.1 216.95 433.48 216.95L444.944 198.247Z" fill="#EFC273"/>
<path d="M391.242 219.967C394.862 216.347 401.499 215.743 408.136 217.553C414.772 219.967 414.772 222.983 415.376 227.207L391.242 219.967Z" fill="#F7D27F"/>
<path d="M391.242 219.967C391.846 224.793 396.672 229.62 403.912 231.43C410.549 233.843 412.359 230.827 415.376 227.81L391.242 219.967Z" fill="#EFC273"/>
<path d="M397.277 241.083C399.691 238.67 405.121 237.463 411.154 239.273C416.584 241.083 416.584 243.497 417.187 247.117L397.277 241.083Z" fill="#F7D27F"/>
<path d="M397.277 241.083C397.881 244.703 401.501 248.927 407.534 250.737C412.964 252.547 414.171 250.133 417.187 247.72L397.277 241.083Z" fill="#EFC273"/>
<path d="M454.594 223.587C451.578 221.777 446.148 222.38 440.718 225.397C435.891 228.413 436.494 230.827 437.098 234.447L454.594 223.587Z" fill="#F7D27F"/>
<path d="M454.593 222.983C455.196 226.603 452.179 231.43 447.353 234.447C442.526 237.463 440.716 235.653 437.699 233.843L454.593 222.983Z" fill="#EFC273"/>
<path d="M453.995 244.703C451.582 242.29 447.358 241.083 442.532 242.29C437.705 243.497 437.705 245.91 437.102 248.927L453.995 244.703Z" fill="#F7D27F"/>
<path d="M453.995 244.703C453.392 247.72 449.772 250.737 444.945 251.943C440.118 253.15 438.912 251.34 437.102 248.927L453.995 244.703Z" fill="#EFC273"/>
<path d="M450.372 263.407C448.562 260.39 444.338 259.183 438.908 259.787C434.082 260.39 433.478 262.803 432.875 265.82L450.372 263.407Z" fill="#F7D27F"/>
<path d="M450.372 263.407C449.165 266.423 445.545 268.837 440.115 269.44C435.288 270.043 434.685 268.233 432.875 265.217L450.372 263.407Z" fill="#EFC273"/>
<path d="M437.703 281.507C436.496 279.093 433.479 276.68 429.256 276.68C425.033 276.077 424.429 277.887 423.223 280.3L437.703 281.507Z" fill="#F7D27F"/>
<path d="M437.701 280.903C436.494 283.317 432.271 284.523 428.047 284.523C423.824 283.92 423.824 282.11 422.617 279.697L437.701 280.903Z" fill="#EFC273"/>
<path d="M420.809 294.177C420.809 291.763 418.999 289.35 415.983 287.54C412.966 285.73 411.759 286.937 409.949 288.143L420.809 294.177Z" fill="#F7D27F"/>
<path d="M420.808 294.177C418.998 295.383 415.378 295.383 412.361 293.573C409.345 291.763 409.345 290.557 409.948 288.143L420.808 294.177Z" fill="#EFC273"/>
<path d="M395.465 254.96C398.482 253.15 402.705 253.753 407.532 256.167C411.755 258.58 411.152 260.993 411.152 264.01L395.465 254.96Z" fill="#F7D27F"/>
<path d="M395.465 254.96C395.465 257.977 397.878 262.2 402.102 264.613C406.325 267.027 408.135 265.82 410.548 264.01L395.465 254.96Z" fill="#EFC273"/>
<path d="M391.242 267.027C393.656 265.82 397.276 267.027 400.292 270.043C403.309 273.06 402.102 274.267 401.499 276.68L391.242 267.027Z" fill="#F7D27F"/>
<path d="M391.241 267.027C390.637 269.44 391.844 273.06 394.861 276.077C397.877 279.093 399.084 277.887 401.497 276.68L391.241 267.027Z" fill="#EFC273"/>
<path d="M367.713 198.247H357.456C356.853 186.783 352.63 175.923 345.39 167.477H367.713C372.54 167.477 376.16 163.857 376.16 159.03C376.16 154.203 372.54 150.583 367.713 150.583H307.38H272.99H254.287C249.46 150.583 245.84 154.203 245.84 159.03C245.84 163.857 249.46 167.477 254.287 167.477H272.99H307.38C324.877 167.477 338.753 181.353 339.96 198.247H254.287C249.46 198.247 245.84 201.867 245.84 206.693C245.84 211.52 249.46 215.14 254.287 215.14H339.96C337.547 230.827 324.273 242.29 307.983 242.29H273.593C270.577 242.29 267.56 244.1 265.75 247.117C263.94 250.133 264.543 253.15 266.353 256.167L324.273 343.047C326.083 345.46 328.497 346.667 331.513 346.667C333.323 346.667 335.133 346.063 336.34 345.46C340.563 343.047 341.167 337.617 338.753 333.393L289.883 259.787H307.983C333.927 259.787 355.043 239.877 358.06 215.14H368.317C373.143 215.14 376.763 211.52 376.763 206.693C376.763 201.867 372.54 198.247 367.713 198.247Z" fill="#F9E310"/>
<path d="M367.715 198.247H357.458C357.458 192.817 356.252 187.387 354.442 182.56L339.962 197.04C339.962 197.643 339.962 197.643 339.962 198.247H338.755L321.258 215.743H339.358C336.945 231.43 323.672 242.893 307.382 242.893H294.108L271.785 265.217L323.672 343.65C325.482 346.063 327.895 347.27 330.912 347.27C332.722 347.27 334.532 346.667 335.738 346.063C339.962 343.65 340.565 338.22 338.152 333.997L289.282 260.39H307.382C333.325 260.39 354.442 240.48 357.458 215.743H367.715C372.542 215.743 376.162 212.123 376.162 207.297C376.162 202.47 372.542 198.247 367.715 198.247Z" fill="#F7C011"/>
<path d="M376.164 160.84L369.527 167.477C373.147 166.27 375.561 163.857 376.164 160.84Z" fill="#F7C011"/>
<path d="M3086.71 535C2943.87 535 2827 418.131 2827 275.291C2827 132.452 2943.87 15.5826 3086.71 15.5826C3229.55 15.5826 3346.42 132.452 3346.42 275.291C3346.42 418.131 3229.55 535 3086.71 535Z" fill="#DBAB56"/>
<path d="M3086.71 502.969C3221.06 502.969 3329.97 394.058 3329.97 259.709C3329.97 125.36 3221.06 16.4482 3086.71 16.4482C2952.36 16.4482 2843.45 125.36 2843.45 259.709C2843.45 394.058 2952.36 502.969 3086.71 502.969Z" fill="#EFB30C"/>
<path d="M2872.02 289.142C2872.02 154.96 2981.1 45.8819 3115.28 45.8819C3175.01 45.8819 3229.55 67.5243 3271.97 103.018C3227.82 50.2104 3161.16 16.4482 3086.71 16.4482C2952.53 16.4482 2843.45 125.526 2843.45 259.709C2843.45 334.159 2877.22 400.817 2930.02 445.833C2893.66 403.414 2872.02 348.875 2872.02 289.142Z" fill="#E5A300"/>
<path d="M3258.99 88.3009C3354.22 183.527 3354.22 337.621 3258.99 432.848C3163.77 528.074 3009.67 528.074 2914.45 432.848" fill="#E5A300"/>
<path d="M3086.71 519.417C2943.87 519.417 2827 402.548 2827 259.709C2827 116.869 2943.87 0 3086.71 0C3229.55 0 3346.42 116.869 3346.42 259.709C3346.42 402.548 3229.55 519.417 3086.71 519.417ZM3086.71 32.8964C2961.18 32.8964 2859.9 135.049 2859.9 259.709C2859.9 385.235 2962.05 486.521 3086.71 486.521C3211.37 486.521 3313.52 384.369 3313.52 259.709C3313.52 135.049 3212.23 32.8964 3086.71 32.8964Z" fill="#F7D27F"/>
<path d="M3346.42 259.709C3346.42 193.916 3322.18 134.183 3282.36 89.1667C3236.47 49.3447 3176.74 25.1052 3110.95 25.1052C3066.8 25.1052 3026.11 36.3593 2989.75 55.4046C3019.18 40.6877 3052.08 32.8965 3086.71 32.8965C3155.1 32.8965 3217.43 64.0615 3258.98 112.54C3307.46 154.094 3337.76 215.558 3337.76 284.814C3337.76 319.442 3329.97 352.338 3316.12 381.772C3335.16 345.413 3346.42 303.859 3346.42 259.709Z" fill="#EFC273"/>
<path d="M2851.24 284.814C2851.24 350.607 2875.48 410.34 2915.3 455.356C2961.19 495.178 3020.92 519.417 3085.85 519.417C3130 519.417 3170.68 508.163 3207.04 489.118C3177.61 502.969 3144.71 510.76 3110.09 510.76C3041.7 510.76 2979.37 479.595 2937.81 431.116C2889.33 389.563 2858.17 328.099 2858.17 258.843C2858.17 224.215 2865.96 191.319 2879.81 161.885C2862.5 199.11 2851.24 240.663 2851.24 284.814Z" fill="#EAC06C"/>
<path d="M3101.43 96.0921C3101.43 103.883 3094.5 116.869 3086.71 116.869C3078.92 116.869 3071.99 103.883 3071.99 96.0921C3071.99 88.3008 3078.92 81.3752 3086.71 81.3752C3094.5 81.3752 3101.43 88.3008 3101.43 96.0921Z" fill="#E5A300"/>
<path d="M3086.71 110.809C3094.84 110.809 3101.43 104.22 3101.43 96.0921C3101.43 87.9642 3094.84 81.3752 3086.71 81.3752C3078.58 81.3752 3071.99 87.9642 3071.99 96.0921C3071.99 104.22 3078.58 110.809 3086.71 110.809Z" fill="#F7D27F"/>
<path d="M3097.1 85.7039C3103.16 91.7637 3103.16 100.421 3097.1 106.481C3091.04 112.54 3082.39 112.54 3076.33 106.481" fill="#EFC273"/>
<path d="M3088.44 24.2394C3088.44 25.1051 3087.57 25.9708 3086.7 25.9708C3085.84 25.9708 3084.97 25.1051 3084.97 24.2394V7.79121C3084.97 6.92551 3085.84 6.05981 3086.7 6.05981C3087.57 6.05981 3088.44 6.92551 3088.44 7.79121V24.2394Z" fill="#FFE0A1"/>
<path d="M3088.44 512.492C3088.44 513.357 3087.57 514.223 3086.7 514.223C3085.84 514.223 3084.97 513.357 3084.97 512.492V496.043C3084.97 495.178 3085.84 494.312 3086.7 494.312C3087.57 494.312 3088.44 495.178 3088.44 496.043V512.492Z" fill="#FFE0A1"/>
<path d="M3254.65 95.2264C3253.79 96.0921 3252.92 96.0921 3252.06 95.2264C3251.19 94.3608 3251.19 93.4951 3252.06 92.6294L3264.18 80.5096C3265.04 79.6439 3265.91 79.6439 3266.77 80.5096C3267.64 81.3753 3267.64 82.241 3266.77 83.1067L3254.65 95.2264Z" fill="#FFE0A1"/>
<path d="M2910.11 439.773C2909.24 440.639 2908.38 440.639 2907.51 439.773C2906.65 438.908 2906.65 438.042 2907.51 437.176L2919.63 425.056C2920.5 424.191 2921.36 424.191 2922.23 425.056C2923.1 425.922 2923.1 426.788 2922.23 427.654L2910.11 439.773Z" fill="#FFE0A1"/>
<path d="M3322.17 262.306C3321.31 262.306 3320.44 261.44 3320.44 260.574C3320.44 259.709 3321.31 258.843 3322.17 258.843H3338.62C3339.49 258.843 3340.35 259.709 3340.35 260.574C3340.35 261.44 3339.49 262.306 3338.62 262.306H3322.17Z" fill="#FFE0A1"/>
<path d="M2834.79 262.306C2833.92 262.306 2833.06 261.44 2833.06 260.574C2833.06 259.709 2833.92 258.843 2834.79 258.843H2851.24C2852.1 257.977 2852.97 258.843 2852.97 259.709C2852.97 260.574 2852.1 261.44 2851.24 261.44H2834.79V262.306Z" fill="#FFE0A1"/>
<path d="M3252.06 428.519C3251.19 427.653 3251.19 426.788 3252.06 425.922C3252.92 425.056 3253.79 425.056 3254.65 425.922L3266.77 438.042C3267.64 438.908 3267.64 439.773 3266.77 440.639C3265.91 441.505 3265.04 441.505 3264.18 440.639L3252.06 428.519Z" fill="#FFE0A1"/>
<path d="M2906.65 83.1067C2905.78 82.241 2905.78 81.3753 2906.65 80.5096C2907.51 79.6439 2908.38 79.6439 2909.24 80.5096L2921.36 92.6294C2922.23 93.4951 2922.23 94.3608 2921.36 95.2264C2920.5 96.0921 2919.63 96.0921 2918.77 95.2264L2906.65 83.1067Z" fill="#FFE0A1"/>
<path d="M2970.7 55.4045C2971.57 56.2702 2970.7 58.0016 2969.84 58.0016C2968.97 58.8673 2967.24 58.0016 2967.24 57.1359L2958.58 42.4191C2957.72 41.5534 2958.58 39.822 2959.45 39.822C2960.31 38.9563 2962.04 39.822 2962.04 40.6877L2970.7 55.4045Z" fill="#FFE0A1"/>
<path d="M3214.83 477.864C3215.7 478.729 3214.83 480.461 3213.96 480.461C3213.1 481.327 3211.37 480.461 3211.37 479.595L3202.71 464.878C3201.84 464.013 3202.71 462.281 3203.58 462.281C3204.44 461.416 3206.17 462.281 3206.17 463.147L3214.83 477.864Z" fill="#FFE0A1"/>
<path d="M3149.91 32.8963C3149.91 33.7619 3148.18 34.6276 3147.31 34.6276C3146.44 34.6276 3145.58 32.8963 3145.58 32.0306L3149.91 15.5823C3149.91 14.7166 3151.64 13.851 3152.5 13.851C3153.37 13.851 3154.24 15.5823 3154.24 16.448L3149.91 32.8963Z" fill="#FFE0A1"/>
<path d="M3023.51 503.835C3023.51 504.7 3021.78 505.566 3020.91 505.566C3020.05 505.566 3019.18 503.835 3019.18 502.969L3023.51 486.521C3023.51 485.655 3025.24 484.789 3026.11 484.789C3026.97 484.789 3027.84 486.521 3027.84 487.386L3023.51 503.835Z" fill="#FFE0A1"/>
<path d="M3291.87 143.705C3291.01 144.571 3289.28 143.705 3289.28 142.84C3288.41 141.974 3289.28 140.243 3290.14 140.243L3304.86 131.586C3305.72 130.72 3307.46 131.586 3307.46 132.451C3308.32 133.317 3307.46 135.048 3306.59 135.048L3291.87 143.705Z" fill="#FFE0A1"/>
<path d="M2869.42 387.831C2868.55 388.697 2866.82 387.831 2866.82 386.966C2865.96 386.1 2866.82 384.369 2867.69 384.369L2882.41 375.712C2883.27 374.846 2885 375.712 2885 376.577C2885.87 377.443 2885 379.174 2884.14 379.174L2869.42 387.831Z" fill="#FFE0A1"/>
<path d="M3313.52 322.905C3312.65 322.905 3311.79 321.173 3311.79 320.307C3311.79 319.442 3313.52 318.576 3314.38 318.576L3330.83 322.905C3331.7 322.905 3332.56 324.636 3332.56 325.502C3332.56 326.367 3330.83 327.233 3329.96 327.233L3313.52 322.905Z" fill="#FFE0A1"/>
<path d="M2842.58 196.513C2841.71 196.513 2840.85 194.782 2840.85 193.916C2840.85 193.05 2842.58 192.184 2843.44 192.184L2859.89 196.513C2860.76 196.513 2861.62 198.244 2861.62 199.11C2861.62 199.976 2859.89 200.841 2859.03 200.841L2842.58 196.513Z" fill="#FFE0A1"/>
<path d="M2884.14 140.243C2885 141.108 2885.87 141.974 2885 142.84C2884.14 143.705 2883.27 144.571 2882.41 143.705L2867.69 135.048C2866.82 134.183 2865.96 133.317 2866.82 132.451C2867.69 131.586 2868.55 130.72 2869.42 131.586L2884.14 140.243Z" fill="#FFE0A1"/>
<path d="M3306.59 384.369C3307.46 385.234 3308.32 386.1 3307.46 386.966C3306.59 387.831 3305.72 388.697 3304.86 387.831L3290.14 379.174C3289.28 378.309 3288.41 377.443 3289.28 376.577C3290.14 375.712 3291.01 374.846 3291.87 375.712L3306.59 384.369Z" fill="#FFE0A1"/>
<path d="M3027.84 32.0306C3027.84 32.8963 3027.84 34.6276 3026.11 34.6276C3025.24 34.6276 3023.51 34.6276 3023.51 32.8963L3019.18 16.448C3019.18 15.5823 3019.18 13.851 3020.91 13.851C3021.78 13.851 3023.51 13.851 3023.51 15.5823L3027.84 32.0306Z" fill="#FFE0A1"/>
<path d="M3154.24 502.969C3154.24 503.835 3154.24 505.566 3152.5 505.566C3151.64 505.566 3149.91 505.566 3149.91 503.835L3145.58 487.386C3145.58 486.521 3145.58 484.789 3147.31 484.789C3148.18 484.789 3149.91 484.789 3149.91 486.521L3154.24 502.969Z" fill="#FFE0A1"/>
<path d="M3206.17 57.1359C3205.31 58.0016 3204.44 58.8673 3203.58 58.0016C3202.71 57.1359 3201.84 56.2702 3202.71 55.4045L3211.37 40.6877C3212.23 39.822 3213.1 38.9563 3213.96 39.822C3214.83 40.6877 3215.7 41.5534 3214.83 42.4191L3206.17 57.1359Z" fill="#FFE0A1"/>
<path d="M2962.04 479.595C2961.18 480.461 2960.31 481.327 2959.45 480.461C2958.58 479.595 2957.72 478.729 2958.58 477.864L2967.24 463.147C2968.1 462.281 2968.97 461.416 2969.84 462.281C2970.7 463.147 2971.57 464.013 2970.7 464.878L2962.04 479.595Z" fill="#FFE0A1"/>
<path d="M3314.38 200.841C3313.52 200.841 3311.79 200.841 3311.79 199.11C3311.79 198.244 3311.79 196.513 3313.52 196.513L3329.96 192.184C3330.83 192.184 3332.56 192.184 3332.56 193.916C3332.56 194.782 3332.56 196.513 3330.83 196.513L3314.38 200.841Z" fill="#FFE0A1"/>
<path d="M2843.44 327.233C2842.58 327.233 2840.85 327.233 2840.85 325.502C2840.85 324.636 2840.85 322.905 2842.58 322.905L2859.03 318.576C2859.89 318.576 2861.62 318.576 2861.62 320.307C2861.62 321.173 2861.62 322.905 2859.89 322.905L2843.44 327.233Z" fill="#FFE0A1"/>
<path d="M2959.46 353.204C2958.59 353.204 2957.73 353.204 2956.86 352.338C2918.77 335.89 2900.59 291.739 2917.04 252.783C2918.77 249.32 2922.23 247.589 2925.7 249.32C2929.16 251.052 2930.89 254.515 2929.16 257.977C2922.23 273.56 2922.23 290.874 2929.16 305.591C2935.22 321.173 2947.34 333.293 2962.92 340.218C2966.38 341.95 2968.11 345.413 2966.38 348.875C2964.65 351.472 2962.05 353.204 2959.46 353.204Z" fill="#F7D27F"/>
<path d="M2928.29 306.456C2923.09 293.471 2922.23 279.62 2926.55 265.769C2926.55 261.44 2927.42 257.112 2929.15 252.783C2928.29 251.052 2927.42 250.186 2925.69 249.32C2922.23 247.589 2918.76 249.32 2917.03 252.783C2915.3 256.246 2914.43 259.709 2913.57 263.171C2910.11 295.202 2928.29 327.233 2959.45 341.084C2960.32 341.084 2961.18 341.95 2962.05 341.95C2962.91 341.95 2962.91 341.95 2963.78 341.95L2962.91 341.084C2946.46 334.159 2934.35 322.039 2928.29 306.456Z" fill="#EFC273"/>
<path d="M2950.8 200.841C2941.27 200.841 2930.88 208.633 2924.82 221.618C2918.76 233.738 2923.09 238.066 2928.29 244.992L2950.8 200.841Z" fill="#F7D27F"/>
<path d="M2950.79 200.841C2955.99 208.633 2955.99 221.618 2949.93 233.738C2943.87 246.723 2937.81 244.992 2928.29 244.992L2950.79 200.841Z" fill="#EFC273"/>
<path d="M2894.53 219.887C2900.59 219.021 2907.51 224.215 2911.84 231.141C2916.17 238.932 2913.57 241.529 2910.98 246.723L2894.53 219.887Z" fill="#F7D27F"/>
<path d="M2894.52 219.887C2891.06 224.215 2891.93 232.872 2896.25 240.663C2900.58 248.455 2904.91 246.723 2910.11 246.723L2894.52 219.887Z" fill="#EFC273"/>
<path d="M2971.58 251.052C2966.38 245.857 2956.86 244.992 2947.34 247.589C2937.81 251.052 2937.81 255.38 2936.95 261.44L2971.58 251.052Z" fill="#F7D27F"/>
<path d="M2971.58 251.052C2970.71 257.977 2963.79 264.903 2953.4 267.5C2943.87 270.963 2941.28 266.634 2936.95 262.306L2971.58 251.052Z" fill="#EFC273"/>
<path d="M2962.91 281.351C2959.45 277.888 2951.66 276.157 2943 278.754C2935.21 281.351 2935.21 284.814 2934.34 290.008L2962.91 281.351Z" fill="#F7D27F"/>
<path d="M2962.91 281.351C2962.05 286.545 2956.85 292.605 2948.19 295.202C2939.54 297.799 2938.67 294.337 2934.34 290.874L2962.91 281.351Z" fill="#EFC273"/>
<path d="M2880.68 256.246C2885 253.649 2892.8 254.514 2900.59 258.843C2907.51 263.171 2906.65 266.634 2905.78 271.828L2880.68 256.246Z" fill="#F7D27F"/>
<path d="M2880.67 255.38C2879.81 260.574 2884.14 267.5 2891.06 271.828C2897.99 276.157 2900.58 273.56 2904.91 270.963L2880.67 255.38Z" fill="#EFC273"/>
<path d="M2881.54 286.545C2885.01 283.082 2891.07 281.351 2897.99 283.082C2904.92 284.814 2904.92 288.277 2905.78 292.605L2881.54 286.545Z" fill="#F7D27F"/>
<path d="M2881.54 286.545C2882.41 290.874 2887.6 295.202 2894.53 296.934C2901.45 298.665 2903.19 296.068 2905.78 292.605L2881.54 286.545Z" fill="#EFC273"/>
<path d="M2886.74 313.382C2889.34 309.053 2895.4 307.322 2903.19 308.187C2910.11 309.053 2910.98 312.516 2911.84 316.844L2886.74 313.382Z" fill="#F7D27F"/>
<path d="M2886.74 313.382C2888.47 317.71 2893.66 321.173 2901.46 322.039C2908.38 322.904 2909.25 320.307 2911.84 315.979L2886.74 313.382Z" fill="#EFC273"/>
<path d="M2904.92 339.353C2906.65 335.89 2910.98 332.427 2917.04 332.427C2923.1 331.562 2923.96 334.159 2925.69 337.621L2904.92 339.353Z" fill="#F7D27F"/>
<path d="M2904.92 338.487C2906.65 341.95 2912.71 343.681 2918.77 343.681C2924.83 342.815 2924.83 340.218 2926.56 336.756L2904.92 338.487Z" fill="#EFC273"/>
<path d="M2929.15 357.532C2929.15 354.07 2931.75 350.607 2936.08 348.01C2940.41 345.413 2942.14 347.144 2944.73 348.875L2929.15 357.532Z" fill="#F7D27F"/>
<path d="M2929.15 357.532C2931.75 359.264 2936.94 359.264 2941.27 356.667C2945.6 354.069 2945.6 352.338 2944.73 348.875L2929.15 357.532Z" fill="#EFC273"/>
<path d="M2965.51 301.262C2961.18 298.665 2955.12 299.531 2948.2 302.994C2942.14 306.456 2943 309.919 2943 314.248L2965.51 301.262Z" fill="#F7D27F"/>
<path d="M2965.51 301.262C2965.51 305.59 2962.05 311.65 2955.99 315.113C2949.93 318.576 2947.33 316.844 2943.87 314.247L2965.51 301.262Z" fill="#EFC273"/>
<path d="M2971.57 318.576C2968.11 316.844 2962.92 318.576 2958.59 322.904C2954.26 327.233 2955.99 328.964 2956.86 332.427L2971.57 318.576Z" fill="#F7D27F"/>
<path d="M2971.58 318.576C2972.44 322.039 2970.71 327.233 2966.38 331.561C2962.05 335.89 2960.32 334.159 2956.86 332.427L2971.58 318.576Z" fill="#EFC273"/>
<path d="M3213.97 353.204C3214.83 353.204 3215.7 353.204 3216.57 352.338C3254.66 335.89 3272.84 291.739 3256.39 252.783C3254.66 249.32 3251.19 247.589 3247.73 249.32C3244.27 251.052 3242.54 254.515 3244.27 257.977C3251.19 273.56 3251.19 290.874 3244.27 305.591C3238.21 321.173 3226.09 333.293 3210.51 340.218C3207.04 341.95 3205.31 345.413 3207.04 348.875C3208.77 351.472 3211.37 353.204 3213.97 353.204Z" fill="#F7D27F"/>
<path d="M3245.13 306.456C3250.33 293.471 3251.19 279.62 3247.73 265.769C3247.73 261.44 3246.86 257.112 3245.13 252.783C3246 251.052 3246.86 250.186 3248.59 249.32C3252.06 247.589 3255.52 249.32 3257.25 252.783C3258.98 256.246 3259.85 259.709 3260.71 263.171C3264.18 295.202 3246 327.233 3214.83 341.084C3213.97 341.084 3213.1 341.95 3212.24 341.95C3211.37 341.95 3211.37 341.95 3210.5 341.95L3211.37 341.084C3226.95 334.159 3239.07 322.039 3245.13 306.456Z" fill="#EFC273"/>
<path d="M3222.62 200.841C3232.15 200.841 3242.54 208.633 3248.6 221.618C3254.66 233.738 3250.33 238.066 3245.13 244.992L3222.62 200.841Z" fill="#F7D27F"/>
<path d="M3222.62 200.841C3217.43 208.633 3217.43 221.618 3223.49 233.738C3229.55 246.723 3235.61 244.992 3245.13 244.992L3222.62 200.841Z" fill="#EFC273"/>
<path d="M3278.9 219.887C3272.84 219.021 3265.91 224.215 3261.58 231.141C3257.26 238.932 3259.85 241.529 3262.45 246.723L3278.9 219.887Z" fill="#F7D27F"/>
<path d="M3278.9 219.887C3281.49 225.081 3281.49 232.872 3276.3 240.663C3271.97 248.455 3267.64 246.723 3262.45 246.723L3278.9 219.887Z" fill="#EFC273"/>
<path d="M3201.84 251.052C3207.04 245.857 3216.56 244.992 3226.08 247.589C3235.61 251.052 3235.61 255.38 3236.47 261.44L3201.84 251.052Z" fill="#F7D27F"/>
<path d="M3201.84 251.052C3202.71 257.977 3209.63 264.903 3220.02 267.5C3229.55 270.963 3232.14 266.634 3236.47 262.306L3201.84 251.052Z" fill="#EFC273"/>
<path d="M3210.5 281.351C3213.97 277.888 3221.76 276.157 3230.41 278.754C3238.21 281.351 3238.21 284.814 3239.07 290.008L3210.5 281.351Z" fill="#F7D27F"/>
<path d="M3210.5 281.351C3211.37 286.545 3216.56 292.605 3225.22 295.202C3233.01 297.799 3234.74 294.337 3239.07 290.874L3210.5 281.351Z" fill="#EFC273"/>
<path d="M3292.75 256.246C3288.42 253.649 3280.63 254.514 3272.84 258.843C3265.91 263.171 3266.78 266.634 3267.64 271.828L3292.75 256.246Z" fill="#F7D27F"/>
<path d="M3292.74 255.38C3293.61 260.574 3289.28 267.5 3282.36 271.828C3275.43 276.157 3272.83 273.56 3268.5 270.963L3292.74 255.38Z" fill="#EFC273"/>
<path d="M3291.88 286.545C3288.42 283.082 3282.36 281.351 3275.44 283.082C3268.51 284.814 3268.51 288.277 3267.64 292.605L3291.88 286.545Z" fill="#F7D27F"/>
<path d="M3291.88 286.545C3291.02 290.874 3285.82 295.202 3278.9 296.934C3271.97 298.665 3270.24 296.068 3267.64 292.605L3291.88 286.545Z" fill="#EFC273"/>
<path d="M3286.69 313.382C3284.09 309.053 3278.03 307.322 3270.24 308.187C3263.31 309.053 3262.45 312.516 3261.58 316.844L3286.69 313.382Z" fill="#F7D27F"/>
<path d="M3286.69 313.382C3284.96 317.71 3279.76 321.173 3271.97 322.039C3265.04 322.904 3264.18 320.307 3261.58 315.979L3286.69 313.382Z" fill="#EFC273"/>
<path d="M3268.51 339.353C3266.78 335.89 3262.45 332.427 3256.39 332.427C3250.33 331.562 3249.47 334.159 3247.73 337.621L3268.51 339.353Z" fill="#F7D27F"/>
<path d="M3268.51 338.487C3266.78 341.95 3260.72 343.681 3254.66 343.681C3248.6 342.815 3248.6 340.218 3246.87 336.756L3268.51 338.487Z" fill="#EFC273"/>
<path d="M3244.27 357.532C3244.27 354.07 3241.67 350.607 3237.34 348.01C3233.01 345.413 3231.28 347.144 3228.68 348.875L3244.27 357.532Z" fill="#F7D27F"/>
<path d="M3244.27 357.532C3241.67 359.264 3236.48 359.264 3232.15 356.667C3227.82 354.069 3227.82 352.338 3228.69 348.875L3244.27 357.532Z" fill="#EFC273"/>
<path d="M3207.91 301.262C3212.23 298.665 3218.29 299.531 3225.22 302.994C3231.28 306.456 3230.41 309.919 3230.41 314.248L3207.91 301.262Z" fill="#F7D27F"/>
<path d="M3207.91 301.262C3207.91 305.59 3211.37 311.65 3217.43 315.113C3223.49 318.576 3226.09 316.844 3229.55 314.247L3207.91 301.262Z" fill="#EFC273"/>
<path d="M3201.84 318.576C3205.31 316.844 3210.5 318.576 3214.83 322.904C3219.16 327.233 3217.43 328.964 3216.56 332.427L3201.84 318.576Z" fill="#F7D27F"/>
<path d="M3201.85 318.576C3200.98 322.039 3202.71 327.233 3207.04 331.561C3211.37 335.89 3213.1 334.159 3216.56 332.427L3201.85 318.576Z" fill="#EFC273"/>
<path d="M3168.09 219.887H3153.37C3152.5 203.439 3146.44 187.856 3136.05 175.736H3168.09C3175.01 175.736 3180.21 170.542 3180.21 163.617C3180.21 156.691 3175.01 151.497 3168.09 151.497H3081.52H3032.17H3005.33C2998.41 151.497 2993.21 156.691 2993.21 163.617C2993.21 170.542 2998.41 175.736 3005.33 175.736H3032.17H3081.52C3106.62 175.736 3126.53 195.647 3128.26 219.887H3005.33C2998.41 219.887 2993.21 225.081 2993.21 232.007C2993.21 238.932 2998.41 244.126 3005.33 244.126H3128.26C3124.8 266.634 3105.76 283.083 3082.38 283.083H3033.04C3028.71 283.083 3024.38 285.68 3021.78 290.008C3019.19 294.337 3020.05 298.665 3022.65 302.994L3105.76 427.654C3108.35 431.116 3111.82 432.848 3116.14 432.848C3118.74 432.848 3121.34 431.982 3123.07 431.116C3129.13 427.654 3129.99 419.862 3126.53 413.803L3056.41 308.188H3082.38C3119.61 308.188 3149.91 279.62 3154.23 244.126H3168.95C3175.88 244.126 3181.07 238.932 3181.07 232.007C3181.07 225.081 3175.01 219.887 3168.09 219.887Z" fill="#F9E310"/>
<path d="M3168.08 219.887H3153.37C3153.37 212.095 3151.63 204.304 3149.04 197.379L3128.26 218.155C3128.26 219.021 3128.26 219.021 3128.26 219.887H3126.53L3101.42 244.992H3127.4C3123.93 267.5 3104.89 283.948 3081.51 283.948H3062.47L3030.44 315.979L3104.89 428.519C3107.48 431.982 3110.95 433.714 3115.28 433.714C3117.87 433.714 3120.47 432.848 3122.2 431.982C3128.26 428.519 3129.13 420.728 3125.66 414.668L3055.54 309.053H3081.51C3118.74 309.053 3149.04 280.485 3153.37 244.992H3168.08C3175.01 244.992 3180.2 239.798 3180.2 232.872C3180.2 225.947 3175.01 219.887 3168.08 219.887Z" fill="#F7C011"/>
<path d="M3180.21 166.214L3170.68 175.736C3175.88 174.005 3179.34 170.542 3180.21 166.214Z" fill="#F7C011"/>
<path d="M831 1176.33V1496.33C831 1569.97 651.914 1629.67 431 1629.67C210.086 1629.67 31 1569.97 31 1496.33V1176.33" fill="#FFDB2D"/>
<path d="M431 1176.33V1629.67C651.914 1629.67 831 1569.97 831 1496.33V1176.33H431Z" fill="#FFAF33"/>
<path d="M431 1309.67C651.914 1309.67 831 1249.97 831 1176.33C831 1102.7 651.914 1043 431 1043C210.086 1043 31 1102.7 31 1176.33C31 1249.97 210.086 1309.67 431 1309.67Z" fill="#FFEA8A"/>
<path d="M431 1043V1309.67C651.914 1309.67 831 1249.97 831 1176.33C831 1102.7 651.914 1043 431 1043Z" fill="#FFDB2D"/>
<path d="M431 1429.67C210.086 1429.67 31 1369.97 31 1296.33V1423.94C54.5734 1439.3 84.65 1453.77 122.859 1466.51C206.353 1494.34 315.784 1509.67 431 1509.67C546.216 1509.67 655.648 1494.34 739.141 1466.51C777.352 1453.77 807.428 1439.3 831 1423.94V1296.33C831 1369.97 651.914 1429.67 431 1429.67Z" fill="#FFAF33"/>
<path d="M431 1429.67V1509.67C546.216 1509.67 655.648 1494.34 739.141 1466.51C777.352 1453.77 807.428 1439.3 831 1423.94V1296.33C831 1369.97 651.914 1429.67 431 1429.67Z" fill="#FF9408"/>
<path d="M831 964.333V1284.33C831 1357.97 651.914 1417.67 431 1417.67C210.086 1417.67 31 1357.97 31 1284.33V964.333" fill="#FFDB2D"/>
<path d="M431 964.333V1417.67C651.914 1417.67 831 1357.97 831 1284.33V964.333H431Z" fill="#FFAF33"/>
<path d="M431 1097.67C651.914 1097.67 831 1037.97 831 964.333C831 890.695 651.914 831 431 831C210.086 831 31 890.695 31 964.333C31 1037.97 210.086 1097.67 431 1097.67Z" fill="#FFEA8A"/>
<path d="M431 831V1097.67C651.914 1097.67 831 1037.97 831 964.334C831 890.697 651.914 831 431 831Z" fill="#FFDB2D"/>
<path d="M431 1217.67C210.086 1217.67 31 1157.97 31 1084.33V1211.94C54.5734 1227.3 84.65 1241.77 122.859 1254.51C206.353 1282.34 315.784 1297.67 431 1297.67C546.216 1297.67 655.648 1282.34 739.141 1254.51C777.352 1241.77 807.428 1227.3 831 1211.94V1084.33C831 1157.97 651.914 1217.67 431 1217.67Z" fill="#FFAF33"/>
<path d="M431 1217.67V1297.67C546.216 1297.67 655.648 1282.34 739.141 1254.51C777.352 1241.77 807.428 1227.3 831 1211.94V1084.33C831 1157.97 651.914 1217.67 431 1217.67Z" fill="#FF9408"/>
<path d="M831 584.333V904.333C831 977.97 651.914 1037.67 431 1037.67C210.086 1037.67 31 977.97 31 904.333V584.333" fill="#FFDB2D"/>
<path d="M431 584.333V1037.67C651.914 1037.67 831 977.97 831 904.333V584.333H431Z" fill="#FFAF33"/>
<path d="M431 717.666C651.914 717.666 831 657.971 831 584.333C831 510.695 651.914 451 431 451C210.086 451 31 510.695 31 584.333C31 657.971 210.086 717.666 431 717.666Z" fill="#FFEA8A"/>
<path d="M431 451V717.667C651.914 717.667 831 657.972 831 584.334C831 510.697 651.914 451 431 451Z" fill="#FFDB2D"/>
<path d="M431 837.666C210.086 837.666 31 777.971 31 704.333V831.944C54.5734 847.299 84.65 861.77 122.859 874.51C206.353 902.339 315.784 917.667 431 917.667C546.216 917.667 655.648 902.339 739.141 874.51C777.352 861.774 807.428 847.299 831 831.944V704.333C831 777.971 651.914 837.666 431 837.666Z" fill="#FFAF33"/>
<path d="M431 837.666V917.666C546.216 917.666 655.648 902.338 739.141 874.508C777.352 861.772 807.428 847.297 831 831.942V704.333C831 777.971 651.914 837.666 431 837.666Z" fill="#FF9408"/>
<path d="M830.875 103H2419.62C2507.4 103 2578.5 174.069 2578.5 261.812V1849.94C2578.5 1937.68 2507.4 2008.75 2419.62 2008.75H830.875C743.097 2008.75 672 1937.68 672 1849.94V261.812C672 174.069 743.097 103 830.875 103Z" fill="#7297FF"/>
<path d="M830.875 261.812H2419.62V1849.94H830.875V261.812Z" fill="#1D4ED8"/>
<path d="M729.193 534.573H932.156V866.491H729.193V534.573Z" fill="#154B8B"/>
<path d="M729.193 1245.66H932.156V1577.57H729.193V1245.66Z" fill="#32A48E"/>
<path d="M1471.88 390C1714.96 390 1913.15 587.722 1913.15 831.102C1913.15 1074.48 1715.35 1272.2 1471.88 1272.2C1228.4 1272.2 1031 1074.08 1031 831.102C1031 588.119 1228.8 390 1471.88 390ZM1155.72 771.547H1307.44C1325.31 722.712 1363.44 684.597 1412.3 666.731V515.065C1282.42 539.284 1180.34 641.718 1155.72 771.547ZM1528.28 831.102C1528.28 800.133 1502.86 774.723 1471.88 774.723C1440.9 774.723 1415.48 800.133 1415.48 831.102C1415.48 862.07 1440.9 887.48 1471.88 887.48C1502.86 887.48 1528.28 862.07 1528.28 831.102ZM1531.46 515.065V666.731C1580.31 684.597 1618.44 722.712 1636.31 771.547H1788.04C1763.81 641.718 1661.34 539.284 1531.46 515.065ZM1788.04 890.656H1636.31C1618.44 939.491 1580.31 977.606 1531.46 995.473V1147.14C1661.34 1122.92 1763.81 1020.49 1788.04 890.656ZM1412.3 1147.14V995.473C1363.44 977.606 1325.31 939.491 1307.44 890.656H1155.72C1180.34 1020.49 1282.42 1122.92 1412.3 1147.14Z" fill="white"/>
<path d="M1472 1630.33V1950.33C1472 2023.97 1292.91 2083.67 1072 2083.67C851.086 2083.67 672 2023.97 672 1950.33V1630.33" fill="#FFDB2D"/>
<path d="M1072 1630.33V2083.67C1292.91 2083.67 1472 2023.97 1472 1950.33V1630.33H1072Z" fill="#FFAF33"/>
<path d="M1072 1763.67C1292.91 1763.67 1472 1703.97 1472 1630.33C1472 1556.7 1292.91 1497 1072 1497C851.086 1497 672 1556.7 672 1630.33C672 1703.97 851.086 1763.67 1072 1763.67Z" fill="#FFEA8A"/>
<path d="M1072 1497V1763.67C1292.91 1763.67 1472 1703.97 1472 1630.33C1472 1556.7 1292.91 1497 1072 1497Z" fill="#FFDB2D"/>
<path d="M1072 1883.67C851.086 1883.67 672 1823.97 672 1750.33V1877.94C695.573 1893.3 725.65 1907.77 763.859 1920.51C847.353 1948.34 956.784 1963.67 1072 1963.67C1187.22 1963.67 1296.65 1948.34 1380.14 1920.51C1418.35 1907.77 1448.43 1893.3 1472 1877.94V1750.33C1472 1823.97 1292.91 1883.67 1072 1883.67Z" fill="#FFAF33"/>
<path d="M1072 1883.67V1963.67C1187.22 1963.67 1296.65 1948.34 1380.14 1920.51C1418.35 1907.77 1448.43 1893.3 1472 1877.94V1750.33C1472 1823.97 1292.91 1883.67 1072 1883.67Z" fill="#FF9408"/>
<path d="M1472 1277.33V1597.33C1472 1670.97 1292.91 1730.67 1072 1730.67C851.086 1730.67 672 1670.97 672 1597.33V1277.33" fill="#FFDB2D"/>
<path d="M1072 1277.33V1730.67C1292.91 1730.67 1472 1670.97 1472 1597.33V1277.33H1072Z" fill="#FFAF33"/>
<path d="M1072 1410.67C1292.91 1410.67 1472 1350.97 1472 1277.33C1472 1203.7 1292.91 1144 1072 1144C851.086 1144 672 1203.7 672 1277.33C672 1350.97 851.086 1410.67 1072 1410.67Z" fill="#FFEA8A"/>
<path d="M1072 1144V1410.67C1292.91 1410.67 1472 1350.97 1472 1277.33C1472 1203.7 1292.91 1144 1072 1144Z" fill="#FFDB2D"/>
<path d="M1072 1530.67C851.086 1530.67 672 1470.97 672 1397.33V1524.94C695.573 1540.3 725.65 1554.77 763.859 1567.51C847.353 1595.34 956.784 1610.67 1072 1610.67C1187.22 1610.67 1296.65 1595.34 1380.14 1567.51C1418.35 1554.77 1448.43 1540.3 1472 1524.94V1397.33C1472 1470.97 1292.91 1530.67 1072 1530.67Z" fill="#FFAF33"/>
<path d="M1072 1530.67V1610.67C1187.22 1610.67 1296.65 1595.34 1380.14 1567.51C1418.35 1554.77 1448.43 1540.3 1472 1524.94V1397.33C1472 1470.97 1292.91 1530.67 1072 1530.67Z" fill="#FF9408"/>
<path d="M1845 794.14V1555.57C1845 1875.37 2128.51 2164.71 2547.5 2317C2966.5 2164.71 3250 1875.37 3250 1555.57V794.14H1845Z" fill="#95A5A6"/>
<path d="M1845 718V1479.43C1845 1799.23 2128.51 2088.57 2547.5 2240.86C2966.5 2088.57 3250 1799.23 3250 1479.43V718H1845Z" fill="#ECF0F1"/>
<path d="M1845 718V1479.43C1845 1799.23 2128.51 2088.57 2547.5 2240.86V718H1845Z" fill="#BDC3C7"/>
<path d="M2001.11 870.28V1479.42C2001.11 1738.31 2221.63 1966.74 2547.5 2088.57C2873.38 1966.74 3093.89 1738.31 3093.89 1479.42V870.28H2001.11Z" fill="#1D4ED8"/>
<path d="M2547.5 870.28V2088.57C2873.38 1966.74 3093.89 1738.31 3093.89 1479.42V870.28H2547.5Z" fill="#7297FF"/>
<path d="M2547.63 1127.89C2453.64 1127.89 2376.72 1204.81 2376.72 1298.79V1387.27C2376.72 1481.26 2453.64 1558.18 2547.63 1558.18C2641.61 1558.18 2718.53 1481.26 2718.53 1387.27V1298.86C2718.53 1204.81 2641.67 1127.89 2547.63 1127.89ZM2654.14 1388.68C2654.14 1447.26 2606.2 1495.2 2547.63 1495.2C2489.05 1495.2 2441.11 1447.26 2441.11 1388.68V1293.84C2441.11 1235.26 2489.05 1187.32 2547.63 1187.32C2606.2 1187.32 2654.14 1235.26 2654.14 1293.84V1388.68Z" fill="#9BCFDD"/>
<path d="M2547.63 1566.19C2500.05 1566.19 2455.17 1547.54 2421.29 1513.67C2404.85 1497.22 2391.94 1478.08 2382.89 1456.8C2373.54 1434.72 2368.77 1411.37 2368.77 1387.34V1298.86C2368.77 1251.28 2387.42 1206.4 2421.29 1172.53C2455.17 1138.65 2500.05 1120 2547.63 1120C2595.2 1120 2640.08 1138.65 2673.96 1172.53C2707.83 1206.4 2726.48 1251.28 2726.48 1298.86V1387.34C2726.48 1411.37 2721.71 1434.79 2712.36 1456.8C2703.31 1478.08 2690.4 1497.22 2673.96 1513.67C2640.08 1547.54 2595.2 1566.19 2547.63 1566.19ZM2547.63 1135.84C2504.27 1135.84 2463.43 1152.84 2432.55 1183.72C2401.67 1214.59 2384.67 1255.44 2384.67 1298.79V1387.27C2384.67 1430.63 2401.67 1471.47 2432.55 1502.35C2463.43 1533.23 2504.27 1550.23 2547.63 1550.23C2590.98 1550.23 2631.82 1533.23 2662.7 1502.35C2693.58 1471.47 2710.58 1430.63 2710.58 1387.27V1298.86C2710.58 1255.5 2693.58 1214.66 2662.7 1183.78C2631.82 1152.9 2590.98 1135.84 2547.63 1135.84ZM2547.63 1503.15C2517.17 1503.15 2488.43 1491.22 2466.79 1469.52C2445.08 1447.81 2433.16 1419.13 2433.16 1388.68V1293.84C2433.16 1263.39 2445.08 1234.65 2466.79 1213C2488.5 1191.3 2517.17 1179.37 2547.63 1179.37C2578.08 1179.37 2606.82 1191.3 2628.46 1213C2650.11 1234.71 2662.09 1263.39 2662.09 1293.84V1388.68C2662.09 1419.13 2650.17 1447.87 2628.46 1469.52C2606.75 1491.16 2578.08 1503.15 2547.63 1503.15ZM2547.63 1195.27C2521.39 1195.27 2496.69 1205.54 2477.98 1224.26C2459.33 1242.91 2448.99 1267.67 2448.99 1293.9V1388.74C2448.99 1414.97 2459.27 1439.68 2477.98 1458.39C2496.63 1477.1 2521.39 1487.37 2547.63 1487.37C2573.86 1487.37 2598.56 1477.1 2617.27 1458.39C2635.92 1439.74 2646.26 1414.97 2646.26 1388.74V1293.84C2646.26 1267.61 2635.98 1242.91 2617.27 1224.19C2598.56 1205.48 2573.86 1195.27 2547.63 1195.27Z" fill="#154B8B"/>
<path d="M2750.51 1676.55H2344.74C2333.52 1676.55 2324.45 1667.48 2324.45 1656.26V1388.74C2324.45 1377.52 2333.52 1368.45 2344.74 1368.45H2750.51C2761.73 1368.45 2770.8 1377.52 2770.8 1388.74V1656.32C2770.8 1667.48 2761.73 1676.55 2750.51 1676.55Z" fill="#FCFCFC"/>
<path d="M2750.51 1676.55H2344.74C2333.52 1676.55 2324.45 1667.48 2324.45 1656.26V1388.74C2324.45 1377.52 2333.52 1368.45 2344.74 1368.45H2750.51C2761.73 1368.45 2770.8 1377.52 2770.8 1388.74V1656.32C2770.8 1667.48 2761.73 1676.55 2750.51 1676.55Z" stroke="black"/>
<path d="M2750.51 1676.55H2344.74C2333.52 1676.55 2324.45 1667.48 2324.45 1656.26V1388.74C2324.45 1377.52 2333.52 1368.45 2344.74 1368.45H2750.51C2761.73 1368.45 2770.8 1377.52 2770.8 1388.74V1656.32C2770.8 1667.48 2761.73 1676.55 2750.51 1676.55Z" stroke="black" stroke-opacity="0.97"/>
<path d="M2750.51 1685H2344.74C2328.9 1685 2316 1672.1 2316 1656.26V1388.74C2316 1372.9 2328.9 1360 2344.74 1360H2750.51C2766.35 1360 2779.25 1372.9 2779.25 1388.74V1656.32C2779.25 1672.16 2766.35 1685 2750.51 1685ZM2344.74 1375.9C2337.65 1375.9 2331.9 1381.65 2331.9 1388.74V1656.32C2331.9 1663.42 2337.65 1669.16 2344.74 1669.16H2750.51C2757.6 1669.16 2763.35 1663.42 2763.35 1656.32V1388.74C2763.35 1381.65 2757.6 1375.9 2750.51 1375.9H2344.74Z" fill="#10457E"/>
<path d="M2516.56 1466.15C2516.56 1474.39 2519.84 1482.29 2525.66 1488.12C2531.49 1493.94 2539.39 1497.22 2547.63 1497.22C2555.86 1497.22 2563.76 1493.94 2569.59 1488.12C2575.42 1482.29 2578.69 1474.39 2578.69 1466.15C2578.69 1457.92 2575.42 1450.02 2569.59 1444.19C2563.76 1438.36 2555.86 1435.09 2547.63 1435.09C2539.39 1435.09 2531.49 1438.36 2525.66 1444.19C2519.84 1450.02 2516.56 1457.92 2516.56 1466.15Z" fill="#154B8B"/>
<path d="M2547.62 1611.68C2541.57 1611.68 2536.62 1606.73 2536.62 1600.68V1495.2C2536.62 1489.15 2541.57 1484.19 2547.62 1484.19C2553.68 1484.19 2558.63 1489.15 2558.63 1495.2V1600.68C2558.63 1606.79 2553.74 1611.68 2547.62 1611.68Z" fill="#144884"/>
<rect x="163.5" y="1489.5" width="1335" height="723" fill="white" stroke="#32A48E" stroke-width="67"/>
<rect x="271.5" y="1588.5" width="1123" height="523" fill="#80D4C4" stroke="#32A48E" stroke-width="67"/>
<path d="M468.5 1833.5C468.5 1867.04 458.74 1896.84 443.64 1917.91C428.524 1939.01 408.846 1950.5 388.5 1950.5C368.154 1950.5 348.476 1939.01 333.36 1917.91C318.26 1896.84 308.5 1867.04 308.5 1833.5C308.5 1799.96 318.26 1770.16 333.36 1749.09C348.476 1727.99 368.154 1716.5 388.5 1716.5C408.846 1716.5 428.524 1727.99 443.64 1749.09C458.74 1770.16 468.5 1799.96 468.5 1833.5Z" fill="white" stroke="#32A48E" stroke-width="27"/>
<path d="M1351.5 1833.5C1351.5 1867.04 1341.74 1896.84 1326.64 1917.91C1311.52 1939.01 1291.85 1950.5 1271.5 1950.5C1251.15 1950.5 1231.48 1939.01 1216.36 1917.91C1201.26 1896.84 1191.5 1867.04 1191.5 1833.5C1191.5 1799.96 1201.26 1770.16 1216.36 1749.09C1231.48 1727.99 1251.15 1716.5 1271.5 1716.5C1291.85 1716.5 1311.52 1727.99 1326.64 1749.09C1341.74 1770.16 1351.5 1799.96 1351.5 1833.5Z" fill="white" stroke="#32A48E" stroke-width="27"/>
<path d="M1017.5 1849.5C1017.5 1986.42 931.109 2091.5 831 2091.5C730.891 2091.5 644.5 1986.42 644.5 1849.5C644.5 1712.58 730.891 1607.5 831 1607.5C931.109 1607.5 1017.5 1712.58 1017.5 1849.5Z" fill="white" stroke="#32A48E" stroke-width="27"/>
<path d="M929.114 1785.84L919.455 1818.8H735.364L745.023 1785.84H929.114ZM842.75 2008L738.773 1880.73L738.205 1856.86H789.909C803.356 1856.86 814.814 1854.97 824.284 1851.18C833.754 1847.3 840.998 1841.52 846.017 1833.85C851.036 1826.09 853.545 1816.33 853.545 1804.59C853.545 1787.26 848.337 1773.67 837.92 1763.82C827.504 1753.88 811.5 1748.91 789.909 1748.91H735.364L745.023 1717.09H789.909C813.015 1717.09 831.955 1720.93 846.727 1728.6C861.595 1736.17 872.58 1746.59 879.682 1759.85C886.879 1773.01 890.477 1787.92 890.477 1804.59C890.477 1819.65 887.163 1833.52 880.534 1846.21C874 1858.8 863.489 1868.94 849 1876.61C834.606 1884.28 815.572 1888.11 791.898 1888.11H791.045L887.068 2005.73V2008H842.75ZM929.114 1717.09L919.455 1750.05L774.568 1748.91L784.227 1717.09H929.114Z" fill="#32A48E"/>
</svg>
