<svg width="3744" height="2502" viewBox="0 0 3744 2502" fill="none" xmlns="http://www.w3.org/2000/svg">
<path d="M917.641 1979.25C917.641 2034.92 973.282 2079.88 1042.17 2079.88H2701.27C2770.16 2079.88 2825.8 2034.92 2825.8 1979.25V1769.43H917.641V1979.25ZM1871.5 1867.56C1910.36 1867.56 1942.16 1893.26 1942.16 1924.66C1942.16 1956.06 1910.36 1981.75 1871.5 1981.75C1832.64 1981.75 1800.84 1956.06 1800.84 1924.66C1800.84 1893.26 1832.64 1867.56 1871.5 1867.56Z" fill="#BDC3C7"/>
<path d="M2294.55 2376.06H2159.42L2130.28 2136.98H1612.72L1583.58 2376.06H1448.45C1429.01 2376.06 1413.12 2388.91 1413.12 2404.61C1413.12 2420.31 1429.01 2433.16 1448.45 2433.16H2295C2314.43 2433.16 2330.32 2420.31 2330.32 2404.61C2330.32 2388.91 2314.43 2376.06 2294.55 2376.06Z" fill="#1D4ED8"/>
<path d="M2700.52 867H1042.48C973.621 867 918 918.951 918 983.272V1712.24H2825V983.272C2825 918.951 2769.38 867 2700.52 867ZM2218.03 1618.64H1524.97C1508.64 1618.64 1498.49 1602.15 1506.43 1588.96L1852.96 1028.21C1861.35 1015.02 1881.65 1015.02 1890.04 1028.21L2236.57 1588.96C2244.95 1602.15 2234.36 1618.64 2218.03 1618.64Z" fill="#7297FF"/>
<path d="M1962.03 1404.09H1781.97V1605.76H1962.03V1404.09Z" fill="#FDCC9B"/>
<path d="M1781.98 1427.84C1781.98 1427.84 1857.71 1476.08 1962.03 1464.91V1404.09H1781.98V1427.84Z" fill="#FCBC85"/>
<path d="M1522.33 1191.62C1570.85 1191.62 1610.19 1146.74 1610.19 1091.38C1610.19 1036.01 1570.85 991.136 1522.33 991.136C1473.8 991.136 1434.46 1036.01 1434.46 1091.38C1434.46 1146.74 1473.8 1191.62 1522.33 1191.62Z" fill="#FCBC85"/>
<path d="M2221.68 1191.62C2270.2 1191.62 2309.54 1146.74 2309.54 1091.38C2309.54 1036.01 2270.2 991.136 2221.68 991.136C2173.15 991.136 2133.82 1036.01 2133.82 1091.38C2133.82 1146.74 2173.15 1191.62 2221.68 1191.62Z" fill="#FCBC85"/>
<path d="M2221.32 899.912C2221.32 752.258 2113.28 644.22 1872 644.22C1630.71 644.22 1522.68 752.258 1522.68 899.912C1522.68 1047.57 1497.47 1436.5 1872 1436.5C2246.53 1436.5 2221.32 1047.57 2221.32 899.912Z" fill="#FDCC9B"/>
<path d="M1872 1485.12V1712H2309.54C2309.54 1620.17 2079.08 1485.12 1872 1485.12Z" fill="#7A707B"/>
<path d="M1872 1485.12V1712H1434.46C1434.46 1620.17 1664.92 1485.12 1872 1485.12Z" fill="#7A707B"/>
<path d="M1669.45 1522.56L1778.45 1712H1872V1684.67L1739.25 1501.75C1715.43 1507.47 1692.05 1514.51 1669.45 1522.56Z" fill="#665D67"/>
<path d="M2074.55 1522.56L1965.55 1712H1872V1684.67L2004.75 1501.75C2028.57 1507.47 2051.95 1514.51 2074.55 1522.56Z" fill="#665D67"/>
<path d="M1720 1506.68C1760.99 1574.19 1835.06 1690.34 1872 1712V1485.12C1821.49 1485.12 1769.61 1493.2 1720 1506.68Z" fill="white"/>
<path d="M2024 1506.68C1983.01 1574.19 1908.93 1690.34 1872 1712V1485.12C1922.51 1485.12 1974.39 1493.2 2024 1506.68Z" fill="white"/>
<path d="M1873.61 1485.12C1829.56 1485.12 1784.47 1491.28 1740.75 1501.78C1741.05 1502.17 1789.24 1564.35 1873.61 1564.35C1951.74 1564.35 2003.67 1511.1 2011.21 1502.91C1966.01 1491.69 1919.25 1485.12 1873.61 1485.12Z" fill="#C7C5C4"/>
<path d="M1781.97 1492.98C1781.97 1492.98 1808.3 1529.06 1872 1529.06C1935.69 1529.06 1962.03 1492.97 1962.03 1492.97C1962.03 1492.97 1868.62 1458.96 1781.97 1492.98Z" fill="#FDCC9B"/>
<path d="M1872 518C1354.31 518 1441.48 1108.79 1530.57 1108.79C1553.29 1108.79 1537.72 811.494 1579.4 816.903C1621.08 822.312 1694.64 840.432 1872.01 840.432C2049.36 840.432 2122.93 822.312 2164.61 816.903C2206.28 811.5 2190.72 1108.79 2213.44 1108.79C2302.52 1108.79 2389.68 518 1872 518Z" fill="#BF904B"/>
<path d="M1872 1570.49C1793.28 1570.49 1728.86 1633.73 1728.86 1711.01V1783.76C1728.86 1861.04 1793.28 1924.29 1872 1924.29C1950.72 1924.29 2015.14 1861.04 2015.14 1783.76V1711.06C2015.14 1633.73 1950.77 1570.49 1872 1570.49ZM1961.22 1784.92C1961.22 1833.08 1921.06 1872.5 1872 1872.5C1822.94 1872.5 1782.78 1833.08 1782.78 1784.92V1706.94C1782.78 1658.77 1822.94 1619.36 1872 1619.36C1921.06 1619.36 1961.22 1658.77 1961.22 1706.94V1784.92Z" fill="#9BCFDD"/>
<path d="M1872 1930.87C1832.16 1930.87 1794.57 1915.54 1766.19 1887.69C1752.42 1874.16 1741.61 1858.42 1734.03 1840.93C1726.19 1822.78 1722.2 1803.57 1722.2 1783.81V1711.06C1722.2 1671.95 1737.82 1635.04 1766.19 1607.19C1794.57 1579.33 1832.16 1564 1872 1564C1911.85 1564 1949.44 1579.33 1977.81 1607.19C2006.18 1635.04 2021.8 1671.95 2021.8 1711.06V1783.81C2021.8 1803.57 2017.81 1822.83 2009.97 1840.93C2002.39 1858.42 1991.59 1874.16 1977.81 1887.69C1949.44 1915.54 1911.85 1930.87 1872 1930.87ZM1872 1577.02C1835.69 1577.02 1801.48 1591 1775.62 1616.39C1749.75 1641.78 1735.51 1675.36 1735.51 1711.01V1783.76C1735.51 1819.41 1749.75 1852.99 1775.62 1878.38C1801.48 1903.77 1835.69 1917.75 1872 1917.75C1908.31 1917.75 1942.52 1903.77 1968.39 1878.38C1994.25 1852.99 2008.49 1819.41 2008.49 1783.76V1711.06C2008.49 1675.41 1994.25 1641.83 1968.39 1616.44C1942.52 1591.05 1908.31 1577.02 1872 1577.02ZM1872 1879.04C1846.5 1879.04 1822.43 1869.23 1804.3 1851.39C1786.11 1833.54 1776.13 1809.96 1776.13 1784.92V1706.94C1776.13 1681.9 1786.11 1658.27 1804.3 1640.47C1822.48 1622.62 1846.5 1612.82 1872 1612.82C1897.51 1612.82 1921.58 1622.62 1939.71 1640.47C1957.84 1658.32 1967.87 1681.9 1967.87 1706.94V1784.92C1967.87 1809.96 1957.89 1833.59 1939.71 1851.39C1921.53 1869.18 1897.51 1879.04 1872 1879.04ZM1872 1625.89C1850.03 1625.89 1829.34 1634.34 1813.67 1649.72C1798.05 1665.06 1789.39 1685.42 1789.39 1706.99V1784.97C1789.39 1806.54 1798 1826.85 1813.67 1842.23C1829.29 1857.62 1850.03 1866.07 1872 1866.07C1893.97 1866.07 1914.66 1857.62 1930.33 1842.23C1945.95 1826.9 1954.61 1806.54 1954.61 1784.97V1706.94C1954.61 1685.37 1946.01 1665.06 1930.33 1649.67C1914.66 1634.29 1893.97 1625.89 1872 1625.89Z" fill="#154B8B"/>
<path d="M2041.93 2022.03H1702.07C1692.44 2022.03 1684.66 2014.38 1684.66 2004.93V1784.97C1684.66 1775.52 1692.44 1767.87 1702.07 1767.87H2041.93C2051.56 1767.87 2059.34 1775.52 2059.34 1784.97V2004.98C2059.34 2014.38 2051.56 2022.03 2041.93 2022.03Z" fill="#FCFCFC"/>
<path d="M2041.93 2028.56H1702.07C1688.81 2028.56 1678 2017.95 1678 2004.93V1784.97C1678 1771.95 1688.81 1761.34 1702.07 1761.34H2041.93C2055.19 1761.34 2066 1771.95 2066 1784.97V2004.98C2066 2018 2055.19 2028.56 2041.93 2028.56ZM1702.07 1774.41C1696.13 1774.41 1691.32 1779.14 1691.32 1784.97V2004.98C1691.32 2010.81 1696.13 2015.54 1702.07 2015.54H2041.93C2047.87 2015.54 2052.68 2010.81 2052.68 2004.98V1784.97C2052.68 1779.14 2047.87 1774.41 2041.93 1774.41H1702.07Z" fill="#10457E"/>
<path d="M1845.98 1848.62C1845.98 1855.39 1848.72 1861.89 1853.6 1866.68C1858.48 1871.47 1865.1 1874.16 1872 1874.16C1878.9 1874.16 1885.51 1871.47 1890.39 1866.68C1895.27 1861.89 1898.01 1855.39 1898.01 1848.62C1898.01 1841.85 1895.27 1835.35 1890.39 1830.56C1885.51 1825.77 1878.9 1823.08 1872 1823.08C1865.1 1823.08 1858.48 1825.77 1853.6 1830.56C1848.72 1835.35 1845.98 1841.85 1845.98 1848.62Z" fill="#154B8B"/>
<path d="M1872 1968.28C1866.93 1968.28 1862.79 1964.21 1862.79 1959.23V1872.5C1862.79 1867.52 1866.93 1863.45 1872 1863.45C1877.07 1863.45 1881.22 1867.52 1881.22 1872.5V1959.23C1881.22 1964.26 1877.13 1968.28 1872 1968.28Z" fill="#144884"/>
<path d="M1020.3 430.535L823.422 346.16C819.906 344.613 815.969 344.613 812.453 346.16L615.578 430.535C610.375 432.785 607 437.848 607 443.473C607 445.582 607.984 582.691 666.766 677.754C672.531 687.176 678.859 696.176 685.891 704.613C716.547 741.316 759.016 766.91 817.938 766.91C876.859 766.91 919.328 741.316 949.984 704.613C957.016 696.176 963.344 687.174 969.109 677.754C1027.89 582.691 1028.88 445.582 1028.88 443.473C1028.88 437.848 1025.5 432.785 1020.3 430.535Z" fill="#2197F3"/>
<path d="M969.109 677.754C963.344 687.176 957.016 696.176 949.984 704.613C919.328 741.316 876.859 766.91 817.938 766.91C759.016 766.91 716.547 741.316 685.891 704.613C678.859 696.176 672.531 687.174 666.766 677.754C694.469 622.207 751.844 584.098 817.938 584.098C884.031 584.098 941.406 622.207 969.109 677.754Z" fill="#3F51B5"/>
<path d="M817.938 570.035C856.77 570.035 888.25 538.555 888.25 499.723C888.25 460.89 856.77 429.41 817.938 429.41C779.105 429.41 747.625 460.89 747.625 499.723C747.625 538.555 779.105 570.035 817.938 570.035Z" fill="#FFC10A"/>
<path d="M3120.3 459.535L2923.42 375.16C2919.91 373.613 2915.97 373.613 2912.45 375.16L2715.58 459.535C2710.38 461.785 2707 466.848 2707 472.473C2707 474.582 2707.98 611.691 2766.77 706.754C2772.53 716.176 2778.86 725.176 2785.89 733.613C2816.55 770.316 2859.02 795.91 2917.94 795.91C2976.86 795.91 3019.33 770.316 3049.98 733.613C3057.02 725.176 3063.34 716.174 3069.11 706.754C3127.89 611.691 3128.88 474.582 3128.88 472.473C3128.88 466.848 3125.5 461.785 3120.3 459.535Z" fill="#2197F3"/>
<path d="M3069.11 706.754C3063.34 716.176 3057.02 725.176 3049.98 733.613C3019.33 770.316 2976.86 795.91 2917.94 795.91C2859.02 795.91 2816.55 770.316 2785.89 733.613C2778.86 725.176 2772.53 716.174 2766.77 706.754C2794.47 651.207 2851.84 613.098 2917.94 613.098C2984.03 613.098 3041.41 651.207 3069.11 706.754Z" fill="#3F51B5"/>
<path d="M2917.94 599.035C2956.77 599.035 2988.25 567.555 2988.25 528.723C2988.25 489.89 2956.77 458.41 2917.94 458.41C2879.1 458.41 2847.62 489.89 2847.62 528.723C2847.62 567.555 2879.1 599.035 2917.94 599.035Z" fill="#FFC10A"/>
</svg>
