<svg width="2214" height="2324" viewBox="0 0 2214 2324" fill="none" xmlns="http://www.w3.org/2000/svg">
<path d="M1523.27 2323.64H180.727C77.4546 2323.64 0 2246.18 0 2142.91V180.727C0 77.4545 77.4546 0 180.727 0H1523.27C1626.55 0 1704 77.4545 1704 180.727V2142.91C1704 2246.18 1626.55 2323.64 1523.27 2323.64Z" fill="#1D4ED8"/>
<path d="M1342.1 1774H361.082C283.633 1774 232 1716.89 232 1631.22V374.778C232 289.111 283.633 232 361.082 232H1367.92C1445.37 232 1497 289.111 1497 374.778V1631.22C1471.18 1716.89 1419.55 1774 1342.1 1774Z" fill="#FCFCFC"/>
<path d="M697.09 2054C697.09 2095.08 713.411 2134.49 742.462 2163.54C771.513 2192.59 810.914 2208.91 851.999 2208.91C893.083 2208.91 932.485 2192.59 961.536 2163.54C990.587 2134.49 1006.91 2095.08 1006.91 2054C1006.91 2012.92 990.587 1973.51 961.536 1944.46C932.485 1915.41 893.083 1899.09 851.999 1899.09C810.914 1899.09 771.513 1915.41 742.462 1944.46C713.411 1973.51 697.09 2012.92 697.09 2054Z" fill="white"/>
<path d="M832.686 1410.76L805.294 1383.36C797.238 1375.31 785.959 1375.31 777.903 1383.36L607.109 1552.55L537.825 1484.87C529.769 1476.82 518.49 1476.82 510.434 1484.87L483.042 1512.27C474.986 1520.32 474.986 1531.6 483.042 1539.66L578.107 1634.72C586.163 1642.78 595.83 1646 605.498 1646C615.166 1646 624.833 1642.78 632.889 1634.72L832.686 1438.15C839.131 1431.7 839.131 1418.81 832.686 1410.76Z" fill="#1D4ED8"/>
<path d="M1225.83 1594.44H889.077C874.576 1594.44 863.297 1583.16 863.297 1568.66V1517.1C863.297 1502.6 874.576 1491.32 889.077 1491.32H1225.83C1240.33 1491.32 1251.61 1502.6 1251.61 1517.1V1568.66C1251.61 1583.16 1240.33 1594.44 1225.83 1594.44Z" fill="#1D4ED8"/>
<path d="M833.729 1141.59L806.337 1114.2C798.281 1106.15 787.002 1106.15 778.946 1114.2L608.152 1283.39L538.868 1215.71C530.812 1207.66 519.533 1207.66 511.477 1215.71L484.085 1243.1C476.029 1251.16 476.029 1262.44 484.085 1270.5L579.15 1365.56C587.206 1373.62 596.873 1376.84 606.541 1376.84C616.209 1376.84 625.876 1373.62 633.932 1365.56L833.729 1168.99C840.174 1162.54 840.174 1149.65 833.729 1141.59Z" fill="#1D4ED8"/>
<path d="M1226.87 1325.28H890.12C875.619 1325.28 864.34 1314 864.34 1299.5V1247.94C864.34 1233.44 875.619 1222.16 890.12 1222.16H1226.87C1241.37 1222.16 1252.65 1233.44 1252.65 1247.94V1299.5C1252.65 1314 1241.37 1325.28 1226.87 1325.28Z" fill="#1D4ED8"/>
<path d="M834.78 872.434L807.388 845.042C799.332 836.986 788.053 836.986 779.997 845.042L609.203 1014.22L539.919 946.552C531.863 938.495 520.584 938.495 512.527 946.552L485.136 973.943C477.08 981.999 477.08 993.278 485.136 1001.33L580.2 1096.4C588.257 1104.46 597.924 1107.68 607.592 1107.68C617.259 1107.68 626.927 1104.46 634.983 1096.4L834.78 899.825C841.225 893.38 841.225 880.49 834.78 872.434Z" fill="#1D4ED8"/>
<path d="M1227.92 1056.12H891.171C876.669 1056.12 865.391 1044.84 865.391 1030.34V978.777C865.391 964.276 876.669 952.997 891.171 952.997H1227.92C1242.43 952.997 1253.7 964.276 1253.7 978.777V1030.34C1253.7 1044.84 1242.43 1056.12 1227.92 1056.12Z" fill="#1D4ED8"/>
<path d="M2150.19 1388.5C2150.19 1399.35 2150.19 1409.88 2150.19 1420.41C2142.74 1527.96 2096.66 1629.19 2020.42 1705.42C1944.19 1781.66 1842.96 1827.74 1735.41 1835.19C1724.88 1835.19 1714.35 1835.19 1703.5 1835.19C1692.65 1835.19 1682.12 1835.19 1671.59 1835.19C1564.04 1827.74 1462.81 1781.66 1386.58 1705.42C1310.35 1629.19 1264.26 1527.96 1256.81 1420.41C1256.81 1409.88 1256.81 1399.35 1256.81 1388.5C1256.81 1377.65 1256.81 1367.12 1256.81 1356.59C1264.26 1249.04 1310.35 1147.81 1386.58 1071.58C1462.81 995.346 1564.04 949.256 1671.59 941.812C1682.12 941.812 1692.65 941.812 1703.5 941.812C1714.35 941.812 1724.88 941.812 1735.41 941.812C1842.96 949.256 1944.19 995.346 2020.42 1071.58C2096.66 1147.81 2142.74 1249.04 2150.19 1356.59C2150.19 1367.12 2150.19 1377.65 2150.19 1388.5Z" fill="#7297FF"/>
<path d="M1735.41 1771.38V1835.19C1724.88 1835.19 1714.35 1835.19 1703.5 1835.19C1692.65 1835.19 1682.12 1835.19 1671.59 1835.19V1771.38C1671.59 1762.91 1674.96 1754.8 1680.94 1748.81C1686.92 1742.83 1695.04 1739.47 1703.5 1739.47C1711.96 1739.47 1720.08 1742.83 1726.06 1748.81C1732.04 1754.8 1735.41 1762.91 1735.41 1771.38Z" fill="#0D47A1"/>
<path d="M2150.19 1388.5C2150.19 1399.35 2150.19 1409.88 2150.19 1420.41H2086.38C2077.91 1420.41 2069.8 1417.04 2063.81 1411.06C2057.83 1405.08 2054.47 1396.96 2054.47 1388.5C2054.47 1380.04 2057.83 1371.92 2063.81 1365.94C2069.8 1359.96 2077.91 1356.59 2086.38 1356.59H2150.19C2150.19 1367.12 2150.19 1377.65 2150.19 1388.5Z" fill="#0D47A1"/>
<path d="M1352.53 1388.5C1352.53 1396.96 1349.17 1405.08 1343.19 1411.06C1337.2 1417.04 1329.09 1420.41 1320.62 1420.41H1256.81C1256.81 1409.88 1256.81 1399.35 1256.81 1388.5C1256.81 1377.65 1256.81 1367.12 1256.81 1356.59H1320.62C1329.09 1356.59 1337.2 1359.96 1343.19 1365.94C1349.17 1371.92 1352.53 1380.04 1352.53 1388.5Z" fill="#304046"/>
<path d="M1735.41 941.812V1005.62C1735.41 1014.09 1732.04 1022.2 1726.06 1028.19C1720.08 1034.17 1711.96 1037.53 1703.5 1037.53C1695.04 1037.53 1686.92 1034.17 1680.94 1028.19C1674.96 1022.2 1671.59 1014.09 1671.59 1005.62V941.812C1682.12 941.812 1692.65 941.812 1703.5 941.812C1714.35 941.812 1724.88 941.812 1735.41 941.812Z" fill="#0D47A1"/>
<path d="M1703.5 1420.41C1697.4 1420.41 1691.43 1418.66 1686.29 1415.37C1681.16 1412.08 1677.07 1407.39 1674.52 1401.85C1671.97 1396.31 1671.05 1390.16 1671.89 1384.11C1672.73 1378.07 1675.28 1372.4 1679.25 1367.76L1870.69 1144.42C1873.41 1141.23 1876.73 1138.62 1880.47 1136.72C1884.2 1134.82 1888.28 1133.67 1892.45 1133.35C1896.63 1133.02 1900.83 1133.52 1904.82 1134.82C1908.8 1136.12 1912.49 1138.19 1915.68 1140.91C1918.86 1143.63 1921.48 1146.96 1923.38 1150.69C1925.28 1154.43 1926.42 1158.5 1926.75 1162.68C1927.07 1166.85 1926.57 1171.05 1925.28 1175.04C1923.98 1179.02 1921.91 1182.71 1919.19 1185.9L1727.75 1409.24C1724.75 1412.74 1721.03 1415.55 1716.85 1417.48C1712.66 1419.41 1708.11 1420.41 1703.5 1420.41Z" fill="#0D47A1"/>
<path d="M1703.5 1420.41H1543.97C1535.51 1420.41 1527.39 1417.04 1521.41 1411.06C1515.43 1405.08 1512.06 1396.96 1512.06 1388.5C1512.06 1380.04 1515.43 1371.92 1521.41 1365.94C1527.39 1359.96 1535.51 1356.59 1543.97 1356.59H1703.5C1711.96 1356.59 1720.08 1359.96 1726.06 1365.94C1732.04 1371.92 1735.41 1380.04 1735.41 1388.5C1735.41 1396.96 1732.04 1405.08 1726.06 1411.06C1720.08 1417.04 1711.96 1420.41 1703.5 1420.41Z" fill="#0D47A1"/>
<path d="M1671.59 941.812C1564.04 949.256 1462.81 995.346 1386.58 1071.58C1310.35 1147.81 1264.26 1249.04 1256.81 1356.59C1256.81 1367.12 1256.81 1377.65 1256.81 1388.5C1256.81 1399.35 1256.81 1409.88 1256.81 1420.41C1264.26 1527.96 1310.35 1629.19 1386.58 1705.42C1462.81 1781.66 1564.04 1827.74 1671.59 1835.19C1682.12 1835.19 1692.65 1835.19 1703.5 1835.19V941.812C1692.65 941.812 1682.12 941.812 1671.59 941.812Z" fill="#7297FF"/>
<path d="M1671.59 1771.38V1835.19C1682.12 1835.19 1692.65 1835.19 1703.5 1835.19V1739.47C1695.04 1739.47 1686.92 1742.83 1680.94 1748.81C1674.96 1754.8 1671.59 1762.91 1671.59 1771.38Z" fill="#1565C0"/>
<path d="M1352.53 1388.5C1352.53 1396.96 1349.17 1405.08 1343.19 1411.06C1337.2 1417.04 1329.09 1420.41 1320.62 1420.41H1256.81C1256.81 1409.88 1256.81 1399.35 1256.81 1388.5C1256.81 1377.65 1256.81 1367.12 1256.81 1356.59H1320.62C1329.09 1356.59 1337.2 1359.96 1343.19 1365.94C1349.17 1371.92 1352.53 1380.04 1352.53 1388.5Z" fill="#1565C0"/>
<path d="M1671.59 941.812V1005.62C1671.59 1014.09 1674.96 1022.2 1680.94 1028.19C1686.92 1034.17 1695.04 1037.53 1703.5 1037.53V941.812C1692.65 941.812 1682.12 941.812 1671.59 941.812Z" fill="#1565C0"/>
<path d="M1679.25 1367.76C1675.28 1372.39 1672.73 1378.07 1671.89 1384.11C1671.05 1390.15 1671.97 1396.31 1674.52 1401.85C1677.07 1407.39 1681.16 1412.08 1686.29 1415.37C1691.43 1418.66 1697.4 1420.41 1703.5 1420.41V1339.36L1679.25 1367.76Z" fill="#1565C0"/>
<path d="M1543.97 1356.59C1535.51 1356.59 1527.39 1359.96 1521.41 1365.94C1515.43 1371.92 1512.06 1380.04 1512.06 1388.5C1512.06 1396.96 1515.43 1405.08 1521.41 1411.06C1527.39 1417.04 1535.51 1420.41 1543.97 1420.41H1703.5V1356.59H1543.97Z" fill="#1565C0"/>
<path d="M851.371 272C839.312 272.043 827.169 277.829 818.539 289.343C805.011 307.394 595.328 658.993 584.84 681.213C576.978 707.761 595.819 734.863 612.741 733.771C616.9 734.787 670.326 735.038 854.284 734.896C1084.49 734.719 1077.01 735.283 1085.17 734.797C1110.2 735.15 1127.97 704.904 1118.73 682.934C1117.46 680.1 1090.27 634.823 1058.29 582.319C1026.32 529.815 974.762 443.497 943.745 390.488C912.729 337.48 885.736 291.855 883.74 289.111C875.406 277.655 863.431 271.959 851.371 272ZM821.981 404.786H881.986C878.738 453.247 876.834 511.318 873.878 567.888H830.62C826.445 517.206 825.323 462.767 821.981 404.786ZM851.934 598.768C871.091 598.768 886.62 614.297 886.62 633.454C886.62 652.611 871.091 668.14 851.934 668.14C832.777 668.14 817.248 652.611 817.248 633.454C817.248 614.297 832.777 598.768 851.934 598.768Z" fill="#3F51B5"/>
</svg>
