<svg width="2825" height="2263" viewBox="0 0 2825 2263" fill="none" xmlns="http://www.w3.org/2000/svg">
<path d="M2825 818.051V872.962C2821.59 875.092 2816.91 877.652 2813.07 880.201L2707.5 942.781C2699.84 947.03 2692.6 952.145 2683.66 956.823C2683.66 957.248 2683.24 957.248 2683.24 957.248H2682.81C2655.56 973.007 2623.21 991.733 2594.26 1008.76C2575.96 1019.83 2558.5 1029.62 2544.46 1038.14L2411.21 1116.46L2359.7 1146.69L1663.67 1555.79L1651.75 1563.03L1643.66 1567.71L1618.97 1582.19L1600.66 1593.25L1536.38 1631.14L1503.6 1650.3C1492.11 1656.69 1479.34 1661.37 1465.72 1664.78C1464.44 1665.2 1463.16 1665.2 1461.89 1665.63C1446.13 1669.04 1429.11 1670.31 1412.5 1669.46C1395.9 1670.31 1378.87 1669.04 1363.12 1665.63C1361.84 1665.21 1360.57 1665.21 1359.29 1664.78C1345.66 1661.37 1332.89 1656.69 1321.4 1650.3L1288.62 1630.72L1255.84 1611.56L1224.34 1593.25L1210.3 1584.74L1206.04 1582.19L1181.35 1567.71L843.763 1369.33L483.189 1157.33L413.8 1116.46L280.556 1038.14C270.768 1032.6 259.7 1025.79 247.776 1018.97C214.571 999.386 174.983 975.975 142.203 957.243H141.778C141.778 957.243 141.353 957.243 141.353 956.818C132.415 952.139 125.176 947.03 117.512 942.776L11.9274 880.206C8.09268 877.657 3.41377 875.097 0.00390625 872.967V818.056C0.00390625 808.688 1.28398 801.029 3.83862 794.215C3.83862 793.796 4.26348 793.796 4.26348 793.796C6.81811 792.091 9.37275 790.811 11.9274 789.106L46.4122 768.674L117.506 726.531C162.629 700.565 235.853 657.142 280.551 631.171L285.66 628.186L413.8 552.832L614.303 434.916L672.199 400.856L1321.4 19.0008C1346.52 4.953 1380.15 -1.43084 1412.5 0.268573C1444.86 -1.43084 1478.91 4.95851 1503.6 19.0008L1938.25 274.426L2152.81 400.861L2208.57 433.641L2411.21 552.837L2544.46 631.171C2548.29 633.3 2552.12 635.425 2556.38 637.979C2583.63 654.162 2618.53 675.019 2651.31 693.751C2671.74 706.099 2691.33 717.167 2707.51 726.531L2751.36 752.497L2778.6 768.674L2813.08 789.106C2815.63 790.811 2818.19 792.091 2820.74 793.796C2823.72 800.599 2825 808.682 2825 818.051Z" fill="#1D4ED8"/>
<path d="M2825 1062.41V1117.32C2821.59 1119.45 2817.33 1122.01 2813.07 1124.56L2707.5 1187.14C2682.81 1201.19 2649.61 1220.76 2617.25 1239.5C2590.86 1255.25 2564.46 1270.58 2544.45 1282.5L2334.58 1405.95L1901.21 1660.95L1896.1 1663.93L1856.51 1686.93L1759.45 1743.97L1754.76 1746.95L1503.6 1894.67C1492.11 1901.06 1479.33 1905.74 1465.71 1909.15C1449.11 1913.4 1430.38 1914.68 1412.5 1913.83C1394.62 1914.68 1375.89 1913.41 1359.29 1909.15C1345.66 1905.74 1332.89 1901.06 1321.4 1894.67L1070.66 1747.38L1070.24 1746.95L1015.32 1714.6L968.493 1686.93L928.474 1663.51L509.58 1417.03L280.551 1282.51C264.798 1273.14 245.641 1262.08 225.209 1249.73C187.745 1228.02 146.876 1203.75 117.506 1187.15L11.9274 1124.56C8.09268 1122.01 3.41377 1119.45 0.00390625 1117.32V1062.41C0.00390625 1053.04 1.28398 1045.38 3.83862 1038.57C3.83862 1038.15 4.26348 1038.15 4.26348 1038.15C6.81811 1036.44 9.37275 1035.16 11.9274 1033.46L46.4122 1013.03L117.506 970.882C124.745 966.628 132.834 961.944 141.348 956.829C177.107 935.967 221.805 909.582 257.57 889.151C258.42 888.301 259.7 887.87 260.549 887.446C267.789 883.186 274.172 878.932 280.562 875.522L444.881 778.887L786.722 577.954L971.053 469.395L1321.41 263.352C1346.53 249.305 1380.16 242.921 1412.51 244.62C1444.87 242.921 1478.92 249.31 1503.62 263.352L1854.4 469.395L2028.94 572.419L2394.62 787.401L2544.47 875.522C2551.28 879.776 2559.37 884.036 2567.46 889.145C2572.57 891.694 2577.68 894.674 2582.79 898.083C2615.57 917.241 2652.6 938.952 2683.68 956.824C2692.2 961.938 2700.28 966.617 2707.52 970.877L2778.62 1013.02L2813.1 1033.45C2815.65 1035.16 2818.21 1036.44 2820.76 1038.14C2823.72 1044.95 2825 1053.04 2825 1062.41Z" fill="url(#paint0_linear_483_10263)"/>
<path d="M1471.67 1533.24C1471.67 1533.24 1462.31 1538.78 1446.98 1546.86C1437.62 1551.97 1425.7 1557.93 1412.5 1565.59C1406.11 1569 1398.88 1572.83 1391.21 1576.66L1363.12 1591.56L1359.28 1593.26L1350.34 1598.37L1288.61 1630.72L1203.47 1675.85C1195.81 1679.68 1188.15 1683.94 1180.9 1688.2C1167.71 1695.01 1154.94 1702.24 1143.44 1707.78C1123.01 1718.85 1107.25 1727.36 1101.3 1730.35C1096.61 1732.9 1085.12 1738.86 1070.22 1746.95L1069.8 1747.37C1050.21 1757.59 1025.1 1771.21 999.977 1784.41L693.47 1947.02L560.651 2017.7L148.99 2236.09C132.387 2244.6 114.505 2254.39 97.9078 2262.91H46.8371C42.1527 2262.91 37.4683 2262.91 33.6391 2262.49C22.9957 2261.63 15.3317 2259.93 9.37275 2257.37C6.39326 2255.67 3.83862 2254.39 2.13369 2252.69C1.28398 2251.41 0.853613 2250.99 0.42876 2249.71C0.42876 2248.43 0.00390625 2247.15 0.42876 2245.45C0.00390625 2243.32 0.00390625 2241.2 0.00390625 2238.64V829.544C0.00390625 821.03 1.28398 813.797 3.83862 807.832C3.83862 807.413 4.26348 807.413 4.26348 807.413C9.79761 794.64 20.0162 786.976 34.0639 785.701C37.8931 784.421 41.7278 784.421 46.4067 784.852C56.6253 785.277 68.5433 788.256 81.3165 795.495L237.552 878.082L254.579 887.446L257.559 889.15L260.114 890.425L326.948 925.754C335.462 930.014 344.83 935.548 355.044 940.657C389.953 958.959 432.946 981.526 467.431 1000.25C475.095 1004.09 482.329 1008.34 489.143 1011.75L922.091 1241.63L1314.16 1449.8L1335.88 1461.3C1336.73 1461.72 1337.58 1461.72 1338.01 1462.15C1339.71 1462.58 1340.99 1463.43 1342.69 1464.28C1346.52 1466.41 1350.35 1468.1 1353.76 1470.23C1354.18 1470.66 1355.03 1470.66 1355.46 1471.08C1360.57 1473.64 1365.25 1476.19 1369.93 1478.74C1388.66 1488.54 1403.99 1496.62 1412.5 1501.73C1417.61 1503.86 1420.16 1505.57 1421.01 1505.99C1422.72 1507.27 1434.63 1513.23 1446.98 1520.47C1447.4 1520.47 1447.4 1520.89 1447.83 1520.89C1449.96 1521.74 1452.09 1522.59 1453.79 1523.87C1464.01 1528.98 1471.67 1532.81 1471.67 1533.24Z" fill="#7297FF"/>
<path d="M2824.26 821.422C2824.67 825.754 2825 834.372 2825 840.574V2226.66C2825 2232.86 2825 2239.05 2825 2240.43C2825 2241.8 2824.51 2245.83 2824.51 2246.57C2824.51 2247.31 2824.51 2247.92 2824.51 2249.46C2824.51 2249.46 2824.51 2249.55 2824.51 2249.65C2824.51 2249.76 2820.32 2252.7 2815.19 2256.19L2789.44 2261.6C2783.28 2262.32 2773.17 2262.91 2766.97 2262.91H2738.34C2732.13 2262.91 2722.57 2260.55 2717.08 2257.68L2685.86 2241.25C2680.37 2238.37 2671.4 2233.64 2665.92 2230.73L1834.89 1789.82C1829.41 1786.91 1820.45 1782.16 1814.97 1779.25L1733.48 1735.69C1728.02 1732.76 1719.07 1727.98 1713.59 1725.06L1631.61 1681.49C1626.15 1678.57 1617.19 1673.81 1611.71 1670.9L1475.62 1598.84C1470.14 1595.94 1461.18 1591.19 1455.69 1588.29L1443.64 1581.93C1438.16 1579.03 1429.17 1574.32 1423.67 1571.45C1423.67 1571.45 1418.91 1568.97 1412.51 1565.52C1378.54 1547.07 1353.45 1533.62 1353.45 1533.24C1353.45 1532.86 1364.28 1527.48 1377.07 1520.56C1389.86 1513.64 1394.21 1511.3 1394.21 1511.3C1399.67 1508.36 1404.91 1505.52 1405.86 1505C1406.81 1504.47 1416.95 1499.3 1422.39 1496.33C1422.39 1496.33 1451.87 1480.22 1482.39 1464.46C1483.87 1463.7 1483.87 1463.7 1483.87 1463.7C1485.49 1462.85 1487.15 1461.99 1487.56 1461.78C1487.96 1461.57 1492.82 1459.11 1497.15 1456.78C1501.48 1454.46 1509.51 1450.18 1514.98 1447.28L2325.83 1017.11C2331.31 1014.21 2340.26 1009.45 2345.74 1006.53L2488.23 931.035C2493.71 928.132 2502.68 923.387 2508.16 920.479L2733.83 800.787C2739.31 797.879 2748.46 793.536 2754.17 791.125C2754.17 791.125 2761.56 787.726 2767.66 786.667C2773.75 785.608 2783.72 785.674 2789.81 786.816L2813.05 799.015C2817.18 803.623 2823.85 817.091 2824.26 821.422Z" fill="#7297FF"/>
<path d="M2825 2068.1V2238.5C2825 2241.13 2825 2243.38 2824.5 2245.63C2825 2247.13 2824.5 2248.26 2824.5 2249.76C2824.5 2249.76 2824.5 2249.76 2824.5 2250.14C2820.96 2258.02 2804.82 2262.89 2777.08 2262.89H192.066L700.997 1923.98L701.499 1923.61L1338.55 1499.5L1400.59 1458.59L1417.23 1447.33L1472.21 1471.35L2825 2068.1Z" fill="#0D47A1"/>
<path d="M2825 2232.1V2238.49C2825 2241.11 2825 2243.37 2824.51 2245.62C2825 2247.13 2824.51 2248.25 2824.51 2249.76C2824.51 2249.76 2824.51 2249.76 2824.51 2250.13C2821.06 2258.02 2805.31 2262.89 2778.24 2262.89H46.756C19.6922 2262.89 3.93955 2258.02 0.491064 2250.13C0.491064 2249.76 0.491064 2249.76 0.491064 2249.76C0.491064 2248.26 0 2247.13 0.491064 2245.62C0 2243.37 0 2241.11 0 2238.49V2232.1C4.43061 2227.59 10.831 2223.08 19.1957 2218.57L1332.77 1483.1C1333.26 1483.1 1333.26 1482.73 1333.75 1482.36C1335.23 1481.61 1336.71 1480.85 1338.18 1480.1C1365.24 1465.45 1392.81 1455.31 1412.49 1451.56C1419.39 1453.06 1426.76 1454.93 1435.14 1457.94C1450.89 1462.82 1469.09 1470.71 1486.81 1480.1C1488.77 1481.23 1490.25 1481.98 1492.22 1483.1L2805.79 2218.57C2814.16 2223.46 2820.56 2227.96 2825 2232.1Z" fill="#1D4ED8"/>
<rect x="33.5" y="95.4983" width="1893" height="1037.42" fill="white" stroke="#32A48E" stroke-width="67"/>
<rect x="184.484" y="233.901" width="1596.62" height="757.822" fill="#80D4C4" stroke="#32A48E" stroke-width="67"/>
<path d="M478.598 589.744C478.598 637.625 464.673 680.412 442.839 710.886C420.989 741.383 392.008 758.684 361.385 758.684C330.763 758.684 301.782 741.383 279.931 710.886C258.097 680.412 244.172 637.625 244.172 589.744C244.172 541.863 258.097 499.077 279.931 468.603C301.782 438.105 330.763 420.805 361.385 420.805C392.008 420.805 420.989 438.105 442.839 468.603C464.673 499.077 478.598 541.863 478.598 589.744Z" fill="white" stroke="#32A48E" stroke-width="27"/>
<path d="M1713.03 589.744C1713.03 637.625 1699.11 680.412 1677.27 710.886C1655.42 741.383 1626.44 758.684 1595.82 758.684C1565.2 758.684 1536.22 741.383 1514.36 710.886C1492.53 680.412 1478.61 637.625 1478.61 589.744C1478.61 541.863 1492.53 499.077 1514.36 468.603C1536.22 438.105 1565.2 420.805 1595.82 420.805C1626.44 420.805 1655.42 438.105 1677.27 468.603C1699.11 499.077 1713.03 541.863 1713.03 589.744Z" fill="white" stroke="#32A48E" stroke-width="27"/>
<path d="M1246.1 612.112C1246.1 805.193 1124.07 955.802 979.999 955.802C835.928 955.802 713.898 805.193 713.898 612.112C713.898 419.032 835.928 268.423 979.999 268.423C1124.07 268.423 1246.1 419.032 1246.1 612.112Z" fill="white" stroke="#32A48E" stroke-width="27"/>
<path d="M1138.08 540.43L1123.6 589.862H847.46L861.948 540.43H1138.08ZM1008.54 873.669L852.573 682.76L851.721 646.964H929.278C949.448 646.964 966.636 644.123 980.84 638.441C995.045 632.618 1005.91 623.953 1013.44 612.447C1020.97 600.799 1024.73 586.169 1024.73 568.555C1024.73 542.561 1016.92 522.177 1001.29 507.404C985.67 492.49 961.664 485.032 929.278 485.032H847.46L861.948 437.305H929.278C963.937 437.305 992.346 443.058 1014.5 454.564C1036.81 465.927 1053.28 481.552 1063.94 501.439C1074.73 521.183 1080.13 543.555 1080.13 568.555C1080.13 591.14 1075.16 611.95 1065.22 630.984C1055.41 649.876 1039.65 665.075 1017.91 676.581C996.323 688.086 967.772 693.839 932.261 693.839H930.982L1075.02 870.26V873.669H1008.54ZM1138.08 437.305L1123.6 486.737L906.266 485.032L920.755 437.305H1138.08Z" fill="#32A48E"/>
<defs>
<linearGradient id="paint0_linear_483_10263" x1="1412.5" y1="1914.07" x2="1412.5" y2="244.354" gradientUnits="userSpaceOnUse">
<stop stop-color="#636AD8"/>
<stop offset="0.7685" stop-color="#1D4ED8"/>
</linearGradient>
</defs>
</svg>
