<svg width="2569" height="2319" viewBox="0 0 2569 2319" fill="none" xmlns="http://www.w3.org/2000/svg">
<rect x="87" y="217" width="1080" height="1769" fill="white"/>
<path d="M255.971 798.191C173.384 798.191 105.809 730.616 105.809 648.029C105.809 565.442 173.384 497.867 255.971 497.867C338.558 497.867 406.133 565.442 406.133 648.029C406.133 730.616 338.558 798.191 255.971 798.191Z" fill="#DBAB56" stroke="#1D4ED8" stroke-width="1.61812"/>
<path d="M396.576 638.971C396.576 716.622 333.627 779.571 255.976 779.571C178.324 779.571 115.375 716.622 115.375 638.971C115.375 561.319 178.324 498.371 255.976 498.371C333.627 498.371 396.576 561.319 396.576 638.971Z" fill="#EFB30C" stroke="#1D4ED8" stroke-width="1.61812"/>
<path d="M272.579 513.862C194.13 513.862 130.36 577.632 130.36 656.081C130.36 687.325 140.489 716.14 157.844 739.623C131.696 713.921 115.372 678.328 115.372 638.971C115.372 561.416 178.417 498.371 255.972 498.371C295.715 498.371 331.615 515.016 356.974 541.608C333.339 524.24 304.204 513.862 272.579 513.862Z" fill="#E5A300" stroke="#1D4ED8" stroke-width="1.61812"/>
<mask id="path-5-inside-1_482_9952" fill="white">
<path d="M356.12 539.33C411.476 594.686 411.476 684.262 356.12 739.618C300.764 794.974 211.188 794.974 155.832 739.618"/>
</mask>
<path d="M356.12 539.33C411.476 594.686 411.476 684.262 356.12 739.618C300.764 794.974 211.188 794.974 155.832 739.618" fill="#E5A300"/>
<path d="M354.976 540.474C409.7 595.198 409.7 683.75 354.976 738.474L357.264 740.762C413.252 684.774 413.252 594.174 357.264 538.186L354.976 540.474ZM354.976 738.474C300.252 793.198 211.7 793.198 156.976 738.474L154.688 740.762C210.676 796.75 301.276 796.75 357.264 740.762L354.976 738.474Z" fill="#1D4ED8" mask="url(#path-5-inside-1_482_9952)"/>
<path d="M255.971 789.133C173.384 789.133 105.809 721.558 105.809 638.971C105.809 556.384 173.384 488.809 255.971 488.809C338.558 488.809 406.133 556.384 406.133 638.971C406.133 721.558 338.558 789.133 255.971 789.133ZM255.971 506.314C182.553 506.314 123.314 566.06 123.314 638.971C123.314 712.389 183.06 771.628 255.971 771.628C328.884 771.628 388.628 711.884 388.628 638.971C388.628 566.06 329.389 506.314 255.971 506.314Z" fill="#F7D27F" stroke="#1D4ED8" stroke-width="1.61812"/>
<path d="M270.062 503.403C308.086 503.403 342.607 517.403 369.133 540.409C392.133 566.429 406.134 600.946 406.134 638.971C406.134 654.71 403.66 669.879 399.181 684.127C401.493 674.306 402.719 664.071 402.719 653.565C402.719 613.085 385.018 577.151 356.69 552.847C332.389 524.523 295.953 506.314 255.972 506.314C247.234 506.314 238.683 507.162 230.401 508.819C242.981 505.314 256.228 503.403 270.062 503.403Z" fill="#EFC273" stroke="#1D4ED8" stroke-width="1.61812"/>
<path d="M119.899 653.565C119.899 642.118 121.207 630.97 123.555 620.212C122.732 626.183 122.307 632.278 122.307 638.467C122.307 678.954 140.517 714.886 168.84 739.185C193.141 767.509 229.576 785.718 269.557 785.718C280.296 785.718 290.749 784.437 300.768 782.026C286.525 786.602 271.385 789.132 255.467 789.132C217.948 789.132 183.427 775.133 156.9 752.126C133.9 726.107 119.899 691.589 119.899 653.565Z" fill="#EAC06C" stroke="#1D4ED8" stroke-width="1.61812"/>
<path d="M263.719 543.859C263.719 545.93 262.781 548.8 261.268 551.16C259.728 553.562 257.8 555.128 255.973 555.128C254.146 555.128 252.218 553.562 250.678 551.16C249.165 548.8 248.227 545.93 248.227 543.859C248.227 539.777 251.891 536.113 255.973 536.113C260.055 536.113 263.719 539.777 263.719 543.859Z" fill="#E5A300" stroke="#1D4ED8" stroke-width="1.61812"/>
<path d="M263.719 543.859C263.719 548.137 260.251 551.605 255.973 551.605C251.695 551.605 248.227 548.137 248.227 543.859C248.227 539.581 251.695 536.113 255.973 536.113C260.251 536.113 263.719 539.581 263.719 543.859Z" fill="#F7D27F" stroke="#1D4ED8" stroke-width="1.61812"/>
<mask id="path-12-inside-2_482_9952" fill="white">
<path d="M262.015 537.82C265.538 541.343 265.538 546.375 262.015 549.898C258.493 553.421 253.46 553.421 249.938 549.898"/>
</mask>
<path d="M262.015 537.82C265.538 541.343 265.538 546.375 262.015 549.898C258.493 553.421 253.46 553.421 249.938 549.898" fill="#EFC273"/>
<path d="M260.871 538.964C263.762 541.855 263.762 545.863 260.871 548.754L263.159 551.042C267.314 546.888 267.314 540.831 263.159 536.676L260.871 538.964ZM260.871 548.754C257.98 551.645 253.972 551.645 251.082 548.754L248.793 551.042C252.948 555.197 259.005 555.197 263.159 551.042L260.871 548.754Z" fill="#1D4ED8" mask="url(#path-12-inside-2_482_9952)"/>
<path d="M256.169 502.088C256.168 502.09 256.166 502.1 256.158 502.118C256.146 502.145 256.123 502.178 256.091 502.21C256.059 502.243 256.026 502.265 255.999 502.277C255.985 502.284 255.976 502.286 255.971 502.287C255.967 502.286 255.958 502.284 255.944 502.277C255.917 502.265 255.884 502.243 255.851 502.21C255.819 502.178 255.797 502.145 255.784 502.118C255.776 502.1 255.774 502.09 255.774 502.088V492.532C255.774 492.529 255.776 492.519 255.784 492.502C255.797 492.475 255.819 492.441 255.851 492.409C255.884 492.377 255.917 492.355 255.944 492.342C255.958 492.336 255.967 492.333 255.971 492.332C255.976 492.333 255.985 492.336 255.999 492.342C256.026 492.355 256.059 492.377 256.091 492.409C256.123 492.441 256.146 492.475 256.158 492.502C256.166 492.519 256.168 492.529 256.169 492.532V502.088Z" fill="#FFE0A1" stroke="#1D4ED8" stroke-width="1.61812"/>
<path d="M256.169 785.913C256.168 785.916 256.166 785.926 256.158 785.943C256.146 785.97 256.123 786.003 256.091 786.035C256.059 786.068 256.026 786.09 255.999 786.102C255.985 786.109 255.976 786.111 255.971 786.113C255.967 786.111 255.958 786.109 255.944 786.102C255.917 786.09 255.884 786.068 255.851 786.035C255.819 786.003 255.797 785.97 255.784 785.943C255.776 785.926 255.774 785.916 255.774 785.913V776.357C255.774 776.354 255.776 776.344 255.784 776.327C255.797 776.3 255.819 776.267 255.851 776.234C255.884 776.202 255.917 776.18 255.944 776.167C255.958 776.161 255.967 776.158 255.971 776.157C255.976 776.158 255.985 776.161 255.999 776.167C256.026 776.18 256.059 776.202 256.091 776.234C256.123 776.267 256.146 776.3 256.158 776.327C256.166 776.344 256.168 776.354 256.169 776.357V785.913Z" fill="#FFE0A1" stroke="#1D4ED8" stroke-width="1.61812"/>
<path d="M353.03 542.784C352.931 542.883 352.871 542.913 352.847 542.922C352.823 542.913 352.763 542.883 352.664 542.784C352.566 542.685 352.535 542.625 352.526 542.601C352.535 542.577 352.566 542.517 352.664 542.418L359.71 535.373L359.138 534.801L359.71 535.373C359.809 535.274 359.869 535.243 359.892 535.235C359.916 535.243 359.976 535.274 360.075 535.373C360.174 535.472 360.205 535.532 360.213 535.556C360.205 535.579 360.174 535.64 360.075 535.738L353.03 542.784ZM352.836 542.925C352.836 542.925 352.837 542.925 352.839 542.925C352.837 542.925 352.836 542.925 352.836 542.925ZM352.855 542.925C352.857 542.925 352.859 542.925 352.859 542.925C352.859 542.925 352.857 542.925 352.855 542.925ZM352.523 542.589C352.523 542.589 352.523 542.591 352.524 542.593C352.523 542.591 352.523 542.589 352.523 542.589ZM352.524 542.609C352.523 542.611 352.523 542.612 352.523 542.612C352.523 542.612 352.523 542.611 352.524 542.609ZM359.904 535.231C359.904 535.231 359.903 535.232 359.9 535.232C359.903 535.231 359.904 535.231 359.904 535.231ZM359.885 535.232C359.882 535.232 359.881 535.231 359.881 535.231C359.881 535.231 359.882 535.231 359.885 535.232ZM360.217 535.567C360.217 535.567 360.216 535.566 360.216 535.563C360.217 535.566 360.217 535.567 360.217 535.567ZM360.216 535.548C360.216 535.545 360.217 535.544 360.217 535.544C360.217 535.544 360.217 535.545 360.216 535.548Z" fill="#FFE0A1" stroke="#1D4ED8" stroke-width="1.61812"/>
<path d="M152.745 743.072C152.646 743.171 152.586 743.201 152.562 743.21C152.538 743.201 152.478 743.171 152.379 743.072C152.28 742.973 152.25 742.913 152.241 742.889C152.25 742.865 152.28 742.805 152.379 742.706L151.807 742.134L152.379 742.706L159.425 735.661C159.523 735.562 159.584 735.531 159.607 735.523C159.631 735.531 159.691 735.562 159.79 735.661C159.889 735.76 159.92 735.82 159.928 735.844C159.92 735.867 159.889 735.928 159.79 736.026L152.745 743.072ZM152.55 743.213C152.55 743.213 152.552 743.213 152.554 743.213C152.552 743.213 152.55 743.213 152.55 743.213ZM152.57 743.213C152.572 743.213 152.573 743.213 152.573 743.213C152.573 743.213 152.572 743.213 152.57 743.213ZM152.238 742.877C152.238 742.878 152.238 742.879 152.238 742.881C152.238 742.879 152.238 742.877 152.238 742.877ZM152.238 742.897C152.238 742.899 152.238 742.901 152.238 742.901C152.238 742.901 152.238 742.899 152.238 742.897ZM159.619 735.519C159.619 735.52 159.618 735.52 159.615 735.52C159.618 735.519 159.619 735.519 159.619 735.519ZM159.599 735.52C159.597 735.52 159.596 735.52 159.596 735.519C159.596 735.519 159.597 735.519 159.599 735.52ZM159.932 735.855C159.931 735.855 159.931 735.854 159.931 735.851C159.932 735.854 159.932 735.855 159.932 735.855ZM159.931 735.836C159.931 735.833 159.931 735.832 159.932 735.832C159.932 735.832 159.932 735.833 159.931 735.836Z" fill="#FFE0A1" stroke="#1D4ED8" stroke-width="1.61812"/>
<path d="M392.857 639.671C392.854 639.671 392.844 639.669 392.827 639.661C392.8 639.648 392.767 639.626 392.734 639.594C392.702 639.561 392.68 639.528 392.667 639.501C392.661 639.487 392.658 639.478 392.657 639.474C392.658 639.469 392.661 639.46 392.667 639.446C392.68 639.419 392.702 639.386 392.734 639.354C392.767 639.322 392.8 639.299 392.827 639.287C392.844 639.279 392.854 639.277 392.857 639.276H402.413C402.416 639.277 402.426 639.279 402.443 639.287C402.47 639.299 402.503 639.322 402.535 639.354C402.568 639.386 402.59 639.419 402.602 639.446C402.609 639.46 402.611 639.469 402.612 639.474C402.611 639.478 402.609 639.487 402.602 639.501C402.59 639.528 402.568 639.561 402.535 639.594C402.503 639.626 402.47 639.648 402.443 639.661C402.426 639.669 402.416 639.671 402.413 639.671H392.857Z" fill="#FFE0A1" stroke="#1D4ED8" stroke-width="1.61812"/>
<mask id="path-19-inside-3_482_9952" fill="white">
<path d="M109.534 640.48C109.031 640.48 108.527 639.977 108.527 639.474C108.527 638.97 109.031 638.467 109.534 638.467H119.095C119.599 637.964 120.102 638.467 120.102 638.97C120.102 639.474 119.599 639.977 119.095 639.977H109.534V640.48Z"/>
</mask>
<path d="M109.534 640.48C109.031 640.48 108.527 639.977 108.527 639.474C108.527 638.97 109.031 638.467 109.534 638.467H119.095C119.599 637.964 120.102 638.467 120.102 638.97C120.102 639.474 119.599 639.977 119.095 639.977H109.534V640.48Z" fill="#FFE0A1"/>
<path d="M109.534 640.48V642.098H111.152V640.48H109.534ZM119.095 638.467V640.085H119.766L120.239 639.611L119.095 638.467ZM109.534 639.977V638.359H107.916V639.977H109.534ZM109.534 638.862C109.808 638.862 109.948 638.983 109.986 639.021C110.024 639.06 110.145 639.199 110.145 639.474H106.909C106.909 640.252 107.282 640.894 107.698 641.31C108.113 641.726 108.756 642.098 109.534 642.098V638.862ZM110.145 639.474C110.145 639.748 110.024 639.888 109.986 639.926C109.948 639.964 109.808 640.085 109.534 640.085V636.849C108.756 636.849 108.113 637.222 107.698 637.638C107.282 638.053 106.909 638.696 106.909 639.474H110.145ZM109.534 640.085H119.095V636.849H109.534V640.085ZM120.239 639.611C120.175 639.676 119.99 639.825 119.679 639.867C119.359 639.909 119.08 639.815 118.89 639.688C118.573 639.477 118.484 639.19 118.484 638.97H121.72C121.72 638.247 121.379 637.458 120.685 636.995C120.306 636.743 119.806 636.585 119.251 636.659C118.704 636.732 118.267 637.007 117.951 637.323L120.239 639.611ZM118.484 638.97C118.484 638.696 118.605 638.557 118.643 638.518C118.681 638.48 118.821 638.359 119.095 638.359V641.595C119.873 641.595 120.516 641.222 120.931 640.807C121.347 640.391 121.72 639.748 121.72 638.97H118.484ZM119.095 638.359H109.534V641.595H119.095V638.359ZM107.916 639.977V640.48H111.152V639.977H107.916Z" fill="#1D4ED8" mask="url(#path-19-inside-3_482_9952)"/>
<path d="M353.03 736.164L353.03 736.164L360.075 743.209C360.174 743.308 360.205 743.368 360.213 743.392C360.205 743.416 360.174 743.476 360.075 743.575C359.976 743.674 359.916 743.704 359.892 743.713C359.869 743.704 359.809 743.674 359.71 743.575L352.664 736.529C352.566 736.431 352.535 736.37 352.526 736.347C352.535 736.323 352.566 736.263 352.664 736.164C352.763 736.065 352.823 736.034 352.847 736.026C352.871 736.034 352.931 736.065 353.03 736.164ZM360.217 743.403C360.217 743.403 360.216 743.402 360.216 743.4C360.217 743.402 360.217 743.403 360.217 743.403ZM360.216 743.384C360.216 743.382 360.217 743.38 360.217 743.38C360.217 743.38 360.217 743.382 360.216 743.384ZM359.881 743.716C359.881 743.716 359.882 743.716 359.885 743.716C359.882 743.716 359.881 743.716 359.881 743.716ZM359.9 743.716C359.903 743.716 359.904 743.716 359.904 743.716C359.904 743.716 359.903 743.716 359.9 743.716ZM352.523 736.335C352.523 736.335 352.523 736.336 352.524 736.339C352.523 736.336 352.523 736.335 352.523 736.335ZM352.524 736.354C352.523 736.357 352.523 736.358 352.523 736.358C352.523 736.358 352.523 736.357 352.524 736.354ZM352.859 736.022C352.859 736.022 352.857 736.023 352.855 736.023C352.857 736.022 352.859 736.022 352.859 736.022ZM352.839 736.023C352.837 736.023 352.836 736.022 352.836 736.022C352.836 736.022 352.837 736.022 352.839 736.023Z" fill="#FFE0A1" stroke="#1D4ED8" stroke-width="1.61812"/>
<path d="M151.875 535.738C151.776 535.64 151.746 535.579 151.737 535.556C151.746 535.532 151.776 535.472 151.875 535.373C151.974 535.274 152.034 535.243 152.058 535.235C152.082 535.243 152.142 535.274 152.241 535.373L152.813 534.801L152.241 535.373L159.286 542.418C159.385 542.517 159.416 542.577 159.424 542.601C159.416 542.625 159.385 542.685 159.286 542.784C159.187 542.883 159.127 542.913 159.103 542.922C159.08 542.913 159.019 542.883 158.921 542.784L151.875 535.738ZM151.734 535.544C151.734 535.544 151.734 535.545 151.734 535.548C151.734 535.545 151.734 535.544 151.734 535.544ZM151.734 535.563C151.734 535.566 151.734 535.567 151.734 535.567C151.734 535.567 151.734 535.566 151.734 535.563ZM152.07 535.231C152.07 535.231 152.068 535.232 152.066 535.232C152.068 535.231 152.07 535.231 152.07 535.231ZM152.05 535.232C152.048 535.232 152.047 535.231 152.047 535.231C152.047 535.231 152.048 535.231 152.05 535.232ZM159.428 542.612C159.428 542.612 159.427 542.611 159.427 542.609C159.428 542.611 159.428 542.612 159.428 542.612ZM159.427 542.593C159.427 542.591 159.428 542.589 159.428 542.589C159.428 542.589 159.428 542.591 159.427 542.593ZM159.092 542.925C159.092 542.925 159.093 542.925 159.096 542.925C159.093 542.925 159.092 542.925 159.092 542.925ZM159.111 542.925C159.114 542.925 159.115 542.925 159.115 542.925C159.115 542.925 159.114 542.925 159.111 542.925Z" fill="#FFE0A1" stroke="#1D4ED8" stroke-width="1.61812"/>
<path d="M187.842 520.617L187.894 520.706L187.938 520.75C187.937 520.771 187.931 520.806 187.914 520.85C187.905 520.871 187.895 520.89 187.885 520.907H187.701L187.492 521.115C187.471 521.114 187.436 521.108 187.393 521.091C187.372 521.083 187.352 521.073 187.335 521.063V520.993L187.223 520.803L182.191 512.248L182.139 512.159L182.095 512.115C182.096 512.093 182.102 512.058 182.119 512.015C182.127 511.994 182.137 511.975 182.147 511.957H182.332L182.54 511.749C182.562 511.751 182.596 511.756 182.64 511.774C182.661 511.782 182.68 511.792 182.697 511.802V511.872L182.809 512.062L187.842 520.617Z" fill="#FFE0A1" stroke="#1D4ED8" stroke-width="1.61812"/>
<path d="M329.756 766.196L329.808 766.285L329.852 766.329C329.851 766.351 329.845 766.386 329.828 766.429C329.819 766.45 329.809 766.47 329.799 766.487H329.615L329.406 766.695C329.385 766.694 329.35 766.688 329.307 766.671C329.286 766.662 329.266 766.652 329.249 766.642V766.572L329.137 766.382L324.105 757.827L324.053 757.739L324.009 757.694C324.01 757.673 324.016 757.638 324.033 757.595C324.041 757.574 324.051 757.554 324.061 757.537H324.246L324.454 757.329C324.476 757.33 324.511 757.336 324.554 757.353C324.575 757.362 324.594 757.372 324.612 757.382V757.452L324.723 757.641L329.756 766.196Z" fill="#FFE0A1" stroke="#1D4ED8" stroke-width="1.61812"/>
<path d="M291.929 506.917L291.91 506.988C291.874 507.023 291.815 507.07 291.729 507.121C291.623 507.185 291.504 507.239 291.394 507.275C291.364 507.285 291.336 507.294 291.311 507.3C291.281 507.264 291.243 507.213 291.204 507.147C291.14 507.041 291.086 506.922 291.049 506.812C291.033 506.763 291.022 506.721 291.014 506.686L293.494 497.264L293.513 497.193C293.549 497.159 293.608 497.112 293.694 497.06C293.8 496.997 293.919 496.942 294.029 496.906C294.059 496.896 294.087 496.888 294.112 496.881C294.142 496.917 294.18 496.968 294.219 497.034C294.283 497.14 294.337 497.259 294.374 497.369C294.39 497.418 294.401 497.46 294.409 497.495L291.929 506.917ZM291.946 506.949C291.946 506.949 291.945 506.951 291.942 506.954C291.944 506.951 291.945 506.949 291.946 506.949ZM291.376 507.363C291.376 507.364 291.374 507.363 291.371 507.36C291.374 507.362 291.376 507.363 291.376 507.363ZM293.477 497.232C293.477 497.232 293.478 497.231 293.481 497.227C293.479 497.23 293.478 497.232 293.477 497.232ZM294.047 496.818C294.047 496.818 294.049 496.819 294.052 496.821C294.049 496.819 294.047 496.818 294.047 496.818Z" fill="#FFE0A1" stroke="#1D4ED8" stroke-width="1.61812"/>
<path d="M218.456 780.677L218.438 780.748C218.402 780.783 218.342 780.83 218.256 780.881C218.151 780.945 218.032 780.999 217.921 781.036C217.891 781.046 217.864 781.054 217.839 781.06C217.808 781.024 217.771 780.974 217.731 780.907C217.667 780.801 217.613 780.682 217.577 780.572C217.56 780.524 217.549 780.481 217.542 780.446L220.021 771.024L220.04 770.953C220.076 770.919 220.135 770.872 220.221 770.82C220.327 770.757 220.446 770.703 220.556 770.666C220.586 770.656 220.614 770.648 220.639 770.641C220.67 770.677 220.707 770.728 220.747 770.794C220.81 770.9 220.864 771.019 220.901 771.129C220.917 771.178 220.929 771.22 220.936 771.255L218.456 780.677ZM218.473 780.709C218.473 780.709 218.472 780.711 218.47 780.714C218.472 780.711 218.473 780.709 218.473 780.709ZM217.903 781.124C217.903 781.124 217.901 781.123 217.898 781.12C217.901 781.122 217.903 781.124 217.903 781.124ZM220.005 770.992C220.005 770.992 220.006 770.991 220.008 770.988C220.006 770.991 220.005 770.992 220.005 770.992ZM220.575 770.578C220.575 770.578 220.576 770.579 220.579 770.581C220.576 770.579 220.575 770.578 220.575 770.578Z" fill="#FFE0A1" stroke="#1D4ED8" stroke-width="1.61812"/>
<path d="M374.827 570.84L374.739 570.892L374.694 570.936C374.673 570.935 374.638 570.929 374.595 570.912C374.574 570.903 374.554 570.893 374.537 570.883V570.699L374.329 570.49C374.33 570.469 374.336 570.434 374.353 570.391C374.362 570.37 374.372 570.35 374.382 570.333H374.452L374.641 570.221L383.196 565.189L383.285 565.137L383.329 565.093C383.351 565.094 383.386 565.1 383.429 565.117C383.45 565.125 383.47 565.135 383.487 565.145V565.33L383.695 565.538C383.694 565.56 383.688 565.595 383.671 565.638C383.662 565.659 383.652 565.678 383.642 565.696H383.572L383.382 565.807L374.827 570.84Z" fill="#FFE0A1" stroke="#1D4ED8" stroke-width="1.61812"/>
<path d="M129.253 712.752L129.164 712.804L129.12 712.849C129.099 712.847 129.064 712.842 129.02 712.824C128.999 712.816 128.98 712.806 128.963 712.796V712.611L128.755 712.403C128.756 712.381 128.762 712.347 128.779 712.303C128.788 712.282 128.797 712.263 128.807 712.246H128.877L129.067 712.134L137.622 707.102L137.711 707.049L137.755 707.005C137.777 707.006 137.812 707.012 137.855 707.03C137.876 707.038 137.896 707.048 137.913 707.058V707.243L138.121 707.451C138.119 707.472 138.114 707.507 138.096 707.551C138.088 707.572 138.078 707.591 138.068 707.608H137.998L137.808 707.72L129.253 712.752Z" fill="#FFE0A1" stroke="#1D4ED8" stroke-width="1.61812"/>
<path d="M388.029 674.925L387.958 674.906C387.923 674.87 387.876 674.811 387.825 674.725C387.761 674.619 387.707 674.5 387.67 674.39C387.66 674.36 387.652 674.332 387.646 674.307C387.682 674.276 387.732 674.239 387.799 674.199C387.905 674.136 388.024 674.082 388.134 674.045C388.182 674.029 388.225 674.017 388.26 674.01L397.682 676.49L397.753 676.508C397.787 676.544 397.834 676.604 397.886 676.689C397.949 676.795 398.003 676.914 398.04 677.024C398.05 677.055 398.058 677.082 398.065 677.107C398.029 677.138 397.978 677.175 397.912 677.215C397.806 677.278 397.687 677.333 397.577 677.369C397.528 677.385 397.486 677.397 397.451 677.404L388.029 674.925ZM387.997 674.941C387.997 674.941 387.995 674.94 387.992 674.938C387.995 674.94 387.997 674.941 387.997 674.941ZM387.582 674.371C387.582 674.371 387.583 674.37 387.586 674.367C387.584 674.37 387.582 674.371 387.582 674.371ZM397.714 676.473C397.714 676.473 397.715 676.474 397.718 676.476C397.715 676.474 397.714 676.473 397.714 676.473ZM398.128 677.043C398.128 677.043 398.127 677.045 398.125 677.048C398.127 677.045 398.128 677.043 398.128 677.043Z" fill="#FFE0A1" stroke="#1D4ED8" stroke-width="1.61812"/>
<path d="M114.267 601.452L114.196 601.433C114.162 601.397 114.115 601.338 114.063 601.252C113.999 601.146 113.945 601.027 113.909 600.917C113.899 600.887 113.891 600.859 113.884 600.834C113.92 600.804 113.971 600.766 114.037 600.727C114.143 600.663 114.262 600.609 114.372 600.572C114.421 600.556 114.463 600.545 114.498 600.537L123.92 603.017L123.991 603.036C124.025 603.071 124.073 603.131 124.124 603.217C124.188 603.323 124.242 603.442 124.278 603.552C124.288 603.582 124.297 603.61 124.303 603.635C124.267 603.665 124.216 603.703 124.15 603.742C124.044 603.806 123.925 603.86 123.815 603.897C123.766 603.913 123.724 603.924 123.689 603.931L114.267 601.452ZM114.235 601.468C114.235 601.469 114.233 601.468 114.23 601.465C114.233 601.467 114.235 601.468 114.235 601.468ZM113.821 600.899C113.821 600.899 113.821 600.897 113.824 600.894C113.822 600.897 113.821 600.899 113.821 600.899ZM123.952 603C123.952 603 123.954 603.001 123.957 603.004C123.954 603.002 123.952 603.001 123.952 603ZM124.366 603.57C124.367 603.57 124.366 603.572 124.363 603.575C124.365 603.572 124.366 603.57 124.366 603.57Z" fill="#FFE0A1" stroke="#1D4ED8" stroke-width="1.61812"/>
<path d="M129.253 565.189L137.719 570.169C137.817 570.267 137.899 570.352 137.971 570.434C138.01 570.479 138.04 570.516 138.064 570.547C137.971 570.639 137.89 570.718 137.812 570.787C137.765 570.827 137.726 570.858 137.694 570.882L137.622 570.84L129.156 565.86C129.059 565.762 128.976 565.677 128.904 565.594C128.865 565.55 128.835 565.513 128.812 565.481C128.904 565.389 128.985 565.311 129.064 565.242C129.11 565.202 129.149 565.17 129.181 565.147L129.253 565.189Z" fill="#FFE0A1" stroke="#1D4ED8" stroke-width="1.61812"/>
<path d="M383.386 712.699C383.339 712.74 383.301 712.771 383.268 712.795L383.196 712.752L374.731 707.772C374.633 707.674 374.55 707.589 374.478 707.507C374.44 707.463 374.409 707.425 374.386 707.394C374.479 707.302 374.56 707.223 374.638 707.155C374.685 707.114 374.723 707.083 374.755 707.059L374.827 707.102L383.293 712.081C383.391 712.18 383.474 712.265 383.546 712.347C383.584 712.391 383.615 712.429 383.638 712.46C383.545 712.552 383.464 712.63 383.386 712.699Z" fill="#FFE0A1" stroke="#1D4ED8" stroke-width="1.61812"/>
<path d="M220.048 507.123V507.018L220.021 506.917L217.532 497.458C217.533 497.367 217.535 497.279 217.544 497.19C217.556 497.067 217.576 496.978 217.6 496.918C217.61 496.893 217.618 496.88 217.622 496.873C217.636 496.868 217.668 496.861 217.729 496.861C217.858 496.861 217.979 496.861 218.101 496.873C218.224 496.885 218.313 496.905 218.372 496.929C218.397 496.939 218.411 496.947 218.417 496.951C218.422 496.965 218.43 496.997 218.43 497.058V497.163L218.456 497.264L220.946 506.723C220.945 506.814 220.942 506.903 220.934 506.991C220.922 507.114 220.902 507.204 220.878 507.263C220.868 507.288 220.86 507.301 220.855 507.308C220.842 507.313 220.81 507.32 220.749 507.32C220.62 507.32 220.499 507.32 220.377 507.308C220.254 507.297 220.165 507.276 220.105 507.252C220.08 507.242 220.067 507.234 220.06 507.23C220.056 507.216 220.048 507.184 220.048 507.123ZM217.626 496.868C217.626 496.868 217.626 496.869 217.625 496.869C217.626 496.868 217.626 496.868 217.626 496.868ZM217.618 496.875C217.616 496.876 217.614 496.877 217.614 496.877C217.614 496.877 217.615 496.876 217.618 496.875ZM218.423 496.956C218.423 496.956 218.422 496.955 218.421 496.954C218.422 496.955 218.423 496.955 218.423 496.956ZM218.416 496.947C218.414 496.945 218.414 496.944 218.414 496.943C218.414 496.943 218.415 496.945 218.416 496.947ZM220.851 507.313C220.851 507.313 220.852 507.313 220.852 507.312L220.851 507.313ZM220.86 507.306C220.862 507.305 220.863 507.304 220.863 507.305C220.863 507.305 220.862 507.305 220.86 507.306ZM220.064 507.238C220.064 507.238 220.063 507.237 220.062 507.234C220.063 507.236 220.064 507.238 220.064 507.238Z" fill="#FFE0A1" stroke="#1D4ED8" stroke-width="1.61812"/>
<path d="M293.521 780.883V780.779L293.494 780.677L291.005 771.218C291.005 771.127 291.008 771.039 291.016 770.95C291.028 770.827 291.049 770.738 291.072 770.679C291.082 770.654 291.09 770.64 291.095 770.633C291.109 770.629 291.141 770.621 291.202 770.621C291.33 770.621 291.452 770.622 291.573 770.633C291.696 770.645 291.786 770.665 291.845 770.689C291.87 770.699 291.884 770.707 291.89 770.712C291.895 770.725 291.902 770.757 291.902 770.818V770.923L291.929 771.024L294.418 780.483C294.418 780.575 294.415 780.663 294.407 780.751C294.395 780.874 294.374 780.964 294.351 781.023C294.341 781.048 294.333 781.062 294.328 781.068C294.314 781.073 294.282 781.081 294.221 781.081C294.093 781.081 293.971 781.08 293.85 781.069C293.727 781.057 293.637 781.036 293.578 781.013C293.553 781.003 293.539 780.995 293.533 780.99C293.528 780.976 293.521 780.944 293.521 780.883ZM291.099 770.628C291.099 770.628 291.099 770.629 291.098 770.63C291.099 770.629 291.099 770.628 291.099 770.628ZM291.091 770.635C291.088 770.636 291.087 770.637 291.087 770.637C291.087 770.637 291.088 770.636 291.091 770.635ZM291.895 770.716C291.895 770.716 291.895 770.715 291.894 770.715C291.895 770.715 291.895 770.716 291.895 770.716ZM291.889 770.707C291.887 770.705 291.887 770.704 291.887 770.704C291.887 770.704 291.887 770.705 291.889 770.707ZM294.324 781.073C294.324 781.073 294.324 781.073 294.325 781.072L294.324 781.073ZM294.332 781.067C294.335 781.065 294.336 781.065 294.336 781.065C294.336 781.065 294.335 781.066 294.332 781.067ZM293.536 780.998C293.536 780.998 293.536 780.997 293.534 780.994C293.536 780.997 293.536 780.998 293.536 780.998Z" fill="#FFE0A1" stroke="#1D4ED8" stroke-width="1.61812"/>
<path d="M329.756 512.248L324.776 520.714C324.678 520.811 324.593 520.894 324.51 520.966C324.466 521.005 324.429 521.035 324.397 521.058C324.305 520.966 324.227 520.885 324.158 520.806C324.118 520.76 324.086 520.721 324.063 520.689L324.105 520.617L329.085 512.151C329.183 512.054 329.268 511.971 329.35 511.899C329.395 511.86 329.432 511.83 329.463 511.806C329.555 511.899 329.634 511.98 329.703 512.059C329.743 512.105 329.774 512.144 329.798 512.176L329.756 512.248Z" fill="#FFE0A1" stroke="#1D4ED8" stroke-width="1.61812"/>
<path d="M182.149 766.268L182.191 766.196L187.171 757.731C187.269 757.633 187.354 757.55 187.436 757.478C187.481 757.44 187.518 757.409 187.549 757.386C187.641 757.479 187.72 757.56 187.788 757.638C187.829 757.685 187.86 757.723 187.884 757.756L187.842 757.827L182.862 766.293C182.764 766.391 182.679 766.474 182.596 766.546C182.552 766.584 182.514 766.615 182.483 766.638C182.391 766.545 182.313 766.464 182.244 766.386C182.203 766.339 182.172 766.301 182.149 766.268Z" fill="#FFE0A1" stroke="#1D4ED8" stroke-width="1.61812"/>
<path d="M388.029 603.017L397.488 600.528C397.579 600.528 397.667 600.531 397.756 600.539C397.879 600.551 397.968 600.572 398.027 600.595C398.052 600.605 398.066 600.613 398.073 600.618C398.077 600.631 398.085 600.664 398.085 600.725C398.085 600.853 398.085 600.974 398.073 601.096C398.061 601.219 398.041 601.309 398.017 601.368C398.007 601.393 397.999 601.406 397.994 601.413C397.981 601.418 397.949 601.425 397.888 601.425H397.783L397.682 601.452L388.223 603.941C388.132 603.94 388.043 603.938 387.955 603.929C387.832 603.918 387.742 603.897 387.683 603.874C387.658 603.864 387.644 603.856 387.638 603.851C387.633 603.837 387.625 603.805 387.625 603.744C387.625 603.615 387.626 603.494 387.638 603.373C387.649 603.25 387.67 603.16 387.693 603.101C387.703 603.076 387.712 603.062 387.716 603.056C387.73 603.051 387.762 603.044 387.823 603.044H387.928L388.029 603.017ZM398.078 600.622C398.078 600.622 398.077 600.622 398.076 600.621L398.078 600.622ZM398.071 600.614C398.07 600.611 398.069 600.61 398.069 600.61C398.069 600.61 398.07 600.611 398.071 600.614ZM397.99 601.418C397.99 601.418 397.991 601.418 397.992 601.417L397.99 601.418ZM397.999 601.411C398.001 601.41 398.002 601.409 398.002 601.41C398.002 601.41 398.001 601.41 397.999 601.411ZM387.641 603.859C387.641 603.859 387.64 603.858 387.639 603.855C387.641 603.857 387.641 603.859 387.641 603.859ZM387.72 603.051C387.72 603.051 387.72 603.051 387.719 603.052C387.72 603.051 387.72 603.051 387.72 603.051ZM387.712 603.057C387.71 603.059 387.708 603.059 387.708 603.059C387.708 603.059 387.709 603.059 387.712 603.057Z" fill="#FFE0A1" stroke="#1D4ED8" stroke-width="1.61812"/>
<path d="M114.061 676.516H114.166L114.267 676.49L123.726 674C123.817 674.001 123.905 674.004 123.994 674.012C124.117 674.024 124.207 674.044 124.266 674.068C124.291 674.078 124.304 674.086 124.311 674.091C124.316 674.104 124.323 674.136 124.323 674.197C124.323 674.326 124.323 674.447 124.311 674.569C124.299 674.692 124.279 674.781 124.255 674.84C124.245 674.865 124.237 674.879 124.233 674.886C124.219 674.89 124.187 674.898 124.126 674.898H124.021L123.92 674.925L114.461 677.414C114.37 677.413 114.282 677.411 114.193 677.402C114.07 677.39 113.981 677.37 113.921 677.346C113.896 677.336 113.883 677.328 113.876 677.324C113.871 677.31 113.864 677.278 113.864 677.217C113.864 677.088 113.864 676.967 113.876 676.845C113.888 676.722 113.908 676.633 113.932 676.574C113.942 676.549 113.95 676.535 113.954 676.528C113.968 676.524 114 676.516 114.061 676.516ZM124.316 674.095C124.316 674.095 124.316 674.094 124.315 674.093L124.316 674.095ZM124.309 674.086C124.308 674.084 124.307 674.083 124.307 674.083C124.308 674.083 124.308 674.084 124.309 674.086ZM124.229 674.891C124.229 674.891 124.229 674.89 124.23 674.89L124.229 674.891ZM124.237 674.884C124.239 674.883 124.241 674.882 124.241 674.882C124.241 674.882 124.24 674.883 124.237 674.884ZM113.88 677.332C113.879 677.332 113.879 677.33 113.878 677.328C113.879 677.33 113.88 677.331 113.88 677.332ZM113.958 676.523C113.958 676.523 113.958 676.524 113.957 676.525C113.958 676.524 113.958 676.523 113.958 676.523ZM113.95 676.53C113.948 676.532 113.946 676.532 113.946 676.532C113.946 676.532 113.947 676.531 113.95 676.53Z" fill="#FFE0A1" stroke="#1D4ED8" stroke-width="1.61812"/>
<path d="M181.06 692.245L180.951 692.136L180.809 692.074C159.08 682.691 148.705 657.512 158.074 635.284C158.507 634.43 159.127 633.837 159.797 633.55C160.455 633.267 161.213 633.257 162.01 633.656C162.876 634.089 163.477 634.714 163.767 635.389C164.049 636.048 164.059 636.806 163.661 637.602L163.653 637.619L163.645 637.636C159.533 646.888 159.521 657.188 163.641 665.962C167.248 675.216 174.444 682.4 183.665 686.503C184.523 686.936 185.118 687.558 185.406 688.229C185.683 688.876 185.698 689.618 185.322 690.398C184.412 691.738 183.139 692.511 181.998 692.511C181.731 692.511 181.579 692.507 181.439 692.472C181.327 692.444 181.206 692.391 181.06 692.245Z" fill="#F7D27F" stroke="#1D4ED8" stroke-width="1.61812"/>
<path d="M163.492 634.997C162.557 637.444 162.078 639.903 162.062 642.369C159.529 650.568 160.056 658.768 163.125 666.442C164.627 670.304 166.754 673.806 169.428 676.874C159.766 667.583 154.709 654.35 156.121 641.126C156.622 639.123 157.107 637.211 158.059 635.307C158.492 634.44 159.118 633.839 159.793 633.55C160.452 633.267 161.209 633.257 162.006 633.656C162.46 633.883 162.757 634.088 162.991 634.322C163.167 634.498 163.326 634.709 163.492 634.997Z" fill="#EFC273" stroke="#1D4ED8" stroke-width="1.61812"/>
<path d="M162.589 617.19L162.594 617.181L162.599 617.171C165.741 610.438 170.847 606.333 175.592 605.659L163.744 628.898C162.552 627.324 161.623 626.047 161.197 624.536C160.705 622.786 160.879 620.61 162.589 617.19Z" fill="#F7D27F" stroke="#1D4ED8" stroke-width="1.61812"/>
<path d="M175.736 623.512L175.731 623.522L175.727 623.532C174.014 627.203 172.384 628.618 170.661 629.211C169.77 629.517 168.797 629.624 167.668 629.646C167.015 629.66 166.367 629.646 165.67 629.631C165.513 629.628 165.354 629.624 165.192 629.621L177.003 606.453C179.081 610.753 178.856 617.272 175.736 623.512Z" fill="#EFC273" stroke="#1D4ED8" stroke-width="1.61812"/>
<path d="M154.159 629.012C154.037 629.26 153.903 629.514 153.76 629.783L145.691 616.618C146.823 616.76 148.022 617.258 149.209 618.064C150.859 619.184 152.416 620.851 153.621 622.775C154.818 624.935 154.985 626.243 154.782 627.308C154.676 627.865 154.46 628.403 154.159 629.012Z" fill="#F7D27F" stroke="#1D4ED8" stroke-width="1.61812"/>
<path d="M145.968 627.507C144.757 625.327 144.042 623.046 143.865 621.035C143.74 619.626 143.883 618.402 144.258 617.44L151.934 630.66C151.902 630.662 151.871 630.664 151.84 630.665C151.58 630.679 151.332 630.692 151.107 630.7C150.43 630.723 149.84 630.704 149.285 630.572C148.246 630.325 147.15 629.635 145.968 627.507Z" fill="#EFC273" stroke="#1D4ED8" stroke-width="1.61812"/>
<path d="M170.749 635.787C171.37 634.699 172.55 633.665 175.198 632.697C179.945 631.409 184.483 631.693 187.354 633.601L169.89 638.84C170.065 637.622 170.25 636.659 170.749 635.787Z" fill="#F7D27F" stroke="#1D4ED8" stroke-width="1.61812"/>
<path d="M171.251 641.713C170.954 641.427 170.682 641.146 170.398 640.849L187.937 635.149C186.87 638.314 183.414 641.431 178.279 642.715L178.239 642.725L178.199 642.74C175.562 643.698 174.046 643.526 172.924 642.965C172.336 642.671 171.807 642.246 171.251 641.713Z" fill="#EFC273" stroke="#1D4ED8" stroke-width="1.61812"/>
<path d="M169.106 653.157C169.597 652.323 170.521 651.534 172.679 650.813C176.637 649.629 180.137 650.098 182.233 651.244L168.41 655.433C168.567 654.507 168.731 653.795 169.106 653.157Z" fill="#F7D27F" stroke="#1D4ED8" stroke-width="1.61812"/>
<path d="M168.994 657.41L182.789 652.811C181.782 655.134 179.221 657.629 175.222 658.829C172.801 659.555 171.664 659.375 170.863 658.951C170.43 658.722 170.039 658.392 169.567 657.951C169.472 657.862 169.373 657.768 169.27 657.671C169.181 657.586 169.089 657.499 168.994 657.41Z" fill="#EFC273" stroke="#1D4ED8" stroke-width="1.61812"/>
<path d="M150.203 642.259C150.392 642.976 150.338 643.728 150.194 644.69L137.986 637.113C138.871 636.901 139.934 636.856 141.135 637.006C143.025 637.242 145.184 637.955 147.366 639.165C149.277 640.362 149.963 641.346 150.203 642.259Z" fill="#F7D27F" stroke="#1D4ED8" stroke-width="1.61812"/>
<path d="M142.668 645.33C140.751 644.132 139.206 642.581 138.206 640.993C137.534 639.926 137.129 638.877 136.995 637.927L148.775 645.5C148.563 645.631 148.356 645.756 148.141 645.877C147.616 646.173 147.148 646.381 146.665 646.482C145.749 646.675 144.581 646.525 142.668 645.33Z" fill="#EFC273" stroke="#1D4ED8" stroke-width="1.61812"/>
<path d="M149.765 657.002L138.504 654.187C140.358 653.056 143.026 652.582 146.072 653.343C147.957 653.815 148.741 654.477 149.16 655.176C149.472 655.696 149.621 656.275 149.765 657.002Z" fill="#F7D27F" stroke="#1D4ED8" stroke-width="1.61812"/>
<path d="M144.452 659.825C142.542 659.348 140.89 658.516 139.669 657.528C138.962 656.955 138.418 656.346 138.045 655.74L149.406 658.58C148.972 659.116 148.581 659.508 148.089 659.77C147.393 660.142 146.365 660.303 144.452 659.825Z" fill="#EFC273" stroke="#1D4ED8" stroke-width="1.61812"/>
<path d="M152.489 669.413C152.868 669.896 153.094 670.487 153.281 671.224L141.269 669.568C142.822 668.176 145.548 667.552 149.193 667.956C151.074 668.192 151.973 668.757 152.489 669.413Z" fill="#F7D27F" stroke="#1D4ED8" stroke-width="1.61812"/>
<path d="M148.382 674.401L148.382 674.401L148.371 674.4C144.892 674.013 142.492 672.723 141.228 671.14L152.982 672.356C152.863 672.554 152.749 672.74 152.631 672.918C152.331 673.371 152.059 673.697 151.751 673.933C151.18 674.373 150.305 674.641 148.382 674.401Z" fill="#EFC273" stroke="#1D4ED8" stroke-width="1.61812"/>
<path d="M160.961 683.279C161.013 683.369 161.064 683.461 161.115 683.556L151.939 684.32C153.09 683.074 154.948 682.052 157.342 682.052H157.4L157.457 682.044C159.11 681.808 159.847 682.073 160.29 682.435C160.532 682.634 160.742 682.905 160.961 683.279Z" fill="#F7D27F" stroke="#1D4ED8" stroke-width="1.61812"/>
<path d="M160.931 685.826C160.543 686.299 159.895 686.738 158.291 686.976C156.618 686.97 154.973 686.727 153.645 686.266C152.97 686.031 152.412 685.752 151.975 685.443L161.574 684.675C161.55 684.729 161.527 684.782 161.504 684.831C161.316 685.246 161.146 685.562 160.931 685.826Z" fill="#EFC273" stroke="#1D4ED8" stroke-width="1.61812"/>
<path d="M171.888 690.741L165.57 694.252C166.101 693.119 167.19 691.976 168.825 690.995C169.97 690.308 170.628 690.275 171.106 690.394C171.375 690.461 171.619 690.578 171.888 690.741Z" fill="#F7D27F" stroke="#1D4ED8" stroke-width="1.61812"/>
<path d="M171.012 694.64C169.873 695.323 168.62 695.664 167.488 695.72C167.076 695.741 166.69 695.724 166.339 695.675L172.869 692.048C172.919 692.444 172.898 692.729 172.807 692.981C172.654 693.401 172.232 693.908 171.012 694.64Z" fill="#EFC273" stroke="#1D4ED8" stroke-width="1.61812"/>
<path d="M173.4 667.443C173.639 666.631 174.217 665.776 175.837 664.846C179 663.268 181.662 662.737 183.696 663.244L173.221 669.288C173.219 669.15 173.219 669.017 173.22 668.885C173.228 668.345 173.272 667.877 173.4 667.443Z" fill="#F7D27F" stroke="#1D4ED8" stroke-width="1.61812"/>
<path d="M174.411 670.734L184.443 664.714C183.83 666.687 182.168 668.997 179.581 670.475C177.908 671.432 176.847 671.594 176.035 671.45C175.481 671.353 174.978 671.106 174.411 670.734Z" fill="#EFC273" stroke="#1D4ED8" stroke-width="1.61812"/>
<path d="M182.063 676.279C183.249 675.093 184.529 674.289 185.71 673.895C186.324 673.691 186.895 673.601 187.408 673.616L180.883 679.756C180.872 679.719 180.861 679.683 180.85 679.649C180.73 679.252 180.665 678.951 180.665 678.664C180.665 678.154 180.874 677.468 182.063 676.279Z" fill="#F7D27F" stroke="#1D4ED8" stroke-width="1.61812"/>
<path d="M181.872 681.052L188.305 674.996C188.085 676.537 187.18 678.439 185.452 680.167C184.251 681.368 183.592 681.541 183.129 681.505C182.865 681.485 182.576 681.391 182.194 681.211C182.082 681.158 181.977 681.106 181.872 681.052Z" fill="#EFC273" stroke="#1D4ED8" stroke-width="1.61812"/>
<path d="M331.137 692.074L330.995 692.136L330.886 692.245C330.74 692.391 330.619 692.444 330.507 692.472C330.367 692.507 330.215 692.511 329.948 692.511C328.807 692.511 327.533 691.738 326.624 690.398C326.248 689.618 326.263 688.876 326.54 688.229C326.828 687.558 327.423 686.936 328.281 686.503C337.502 682.4 344.698 675.216 348.305 665.962C352.425 657.188 352.413 646.888 348.301 637.636L348.293 637.619L348.285 637.602C347.887 636.806 347.897 636.048 348.179 635.389C348.468 634.714 349.069 634.089 349.936 633.656C350.733 633.257 351.49 633.267 352.149 633.55C352.818 633.837 353.439 634.43 353.872 635.284C363.241 657.512 352.866 682.691 331.137 692.074Z" fill="#F7D27F" stroke="#1D4ED8" stroke-width="1.61812"/>
<path d="M348.816 666.442C351.887 658.762 352.406 650.572 350.382 642.393C350.369 639.919 349.89 637.452 348.952 634.997C349.117 634.709 349.277 634.498 349.453 634.322C349.687 634.088 349.983 633.883 350.438 633.656C351.234 633.257 351.992 633.267 352.651 633.55C353.326 633.839 353.951 634.44 354.385 635.307C355.337 637.211 355.822 639.123 356.323 641.126C357.866 655.581 351.68 670.046 340.199 679.363C343.938 675.751 346.89 671.392 348.816 666.442Z" fill="#EFC273" stroke="#1D4ED8" stroke-width="1.61812"/>
<path d="M350.742 624.536C350.316 626.047 349.387 627.324 348.195 628.898L336.347 605.659C341.092 606.333 346.199 610.438 349.34 617.171L349.345 617.181L349.35 617.19C351.06 620.61 351.234 622.786 350.742 624.536Z" fill="#F7D27F" stroke="#1D4ED8" stroke-width="1.61812"/>
<path d="M336.215 623.532L336.211 623.522L336.206 623.512C333.085 617.272 332.861 610.753 334.938 606.453L346.75 629.621C346.587 629.624 346.428 629.628 346.272 629.631C345.575 629.646 344.927 629.66 344.274 629.646C343.145 629.624 342.172 629.517 341.281 629.211C339.557 628.618 337.928 627.203 336.215 623.532Z" fill="#EFC273" stroke="#1D4ED8" stroke-width="1.61812"/>
<path d="M358.324 622.775C359.53 620.851 361.086 619.184 362.736 618.064C363.924 617.258 365.123 616.76 366.255 616.618L358.186 629.783C358.042 629.514 357.909 629.26 357.786 629.012C357.486 628.403 357.27 627.865 357.164 627.308C356.961 626.243 357.128 624.935 358.324 622.775Z" fill="#F7D27F" stroke="#1D4ED8" stroke-width="1.61812"/>
<path d="M359.605 630.665C359.586 630.664 359.567 630.663 359.547 630.662L367.529 617.64C368.274 620.299 367.918 623.841 365.511 627.451L365.493 627.478L365.477 627.507C364.295 629.635 363.199 630.325 362.16 630.572C361.605 630.704 361.015 630.723 360.338 630.7C360.113 630.692 359.865 630.679 359.605 630.665Z" fill="#EFC273" stroke="#1D4ED8" stroke-width="1.61812"/>
<path d="M341.193 635.787C341.692 636.659 341.877 637.622 342.052 638.84L324.588 633.601C327.459 631.693 331.997 631.409 336.744 632.697C339.392 633.665 340.572 634.699 341.193 635.787Z" fill="#F7D27F" stroke="#1D4ED8" stroke-width="1.61812"/>
<path d="M333.743 642.74L333.703 642.725L333.663 642.715C328.528 641.431 325.072 638.314 324.005 635.149L341.544 640.849C341.26 641.146 340.988 641.427 340.691 641.713C340.135 642.246 339.606 642.671 339.018 642.965C337.896 643.526 336.38 643.698 333.743 642.74Z" fill="#EFC273" stroke="#1D4ED8" stroke-width="1.61812"/>
<path d="M342.837 653.157C343.212 653.795 343.376 654.507 343.533 655.433L329.71 651.244C331.805 650.098 335.306 649.629 339.264 650.813C341.422 651.534 342.346 652.323 342.837 653.157Z" fill="#F7D27F" stroke="#1D4ED8" stroke-width="1.61812"/>
<path d="M336.744 658.836L336.733 658.832L336.721 658.829C332.722 657.629 330.16 655.134 329.153 652.811L342.926 657.402C342.89 657.435 342.853 657.467 342.817 657.499C342.645 657.652 342.482 657.797 342.329 657.93C341.823 658.367 341.381 658.706 340.908 658.943C340.026 659.384 338.878 659.547 336.744 658.836Z" fill="#EFC273" stroke="#1D4ED8" stroke-width="1.61812"/>
<path d="M361.742 642.259C361.982 641.346 362.668 640.362 364.579 639.165C366.761 637.955 368.92 637.242 370.81 637.006C372.011 636.856 373.074 636.901 373.959 637.113L361.751 644.69C361.607 643.728 361.553 642.976 361.742 642.259Z" fill="#F7D27F" stroke="#1D4ED8" stroke-width="1.61812"/>
<path d="M363.165 645.5L374.944 637.927C374.81 638.877 374.405 639.926 373.733 640.993C372.734 642.581 371.189 644.132 369.271 645.33C367.359 646.525 366.191 646.675 365.275 646.482C364.792 646.381 364.323 646.173 363.799 645.877C363.583 645.756 363.377 645.631 363.165 645.5Z" fill="#EFC273" stroke="#1D4ED8" stroke-width="1.61812"/>
<path d="M365.878 653.343C368.924 652.582 371.592 653.056 373.446 654.187L362.185 657.002C362.329 656.275 362.478 655.696 362.79 655.176C363.209 654.477 363.993 653.815 365.878 653.343Z" fill="#F7D27F" stroke="#1D4ED8" stroke-width="1.61812"/>
<path d="M362.544 658.58L373.905 655.74C373.532 656.346 372.988 656.955 372.281 657.528C371.06 658.516 369.408 659.348 367.498 659.825C365.585 660.303 364.557 660.142 363.861 659.77C363.369 659.508 362.978 659.116 362.544 658.58Z" fill="#EFC273" stroke="#1D4ED8" stroke-width="1.61812"/>
<path d="M359.456 669.413C359.972 668.757 360.872 668.192 362.752 667.956C366.397 667.552 369.123 668.176 370.677 669.568L358.664 671.224C358.852 670.487 359.077 669.896 359.456 669.413Z" fill="#F7D27F" stroke="#1D4ED8" stroke-width="1.61812"/>
<path d="M359.314 672.918C359.196 672.74 359.082 672.554 358.963 672.356L370.718 671.14C369.453 672.723 367.053 674.013 363.574 674.4L363.574 674.4L363.563 674.401C361.64 674.641 360.766 674.373 360.194 673.933C359.887 673.697 359.614 673.371 359.314 672.918Z" fill="#EFC273" stroke="#1D4ED8" stroke-width="1.61812"/>
<path d="M354.492 682.044L354.549 682.052H354.607C357.001 682.052 358.859 683.074 360.01 684.32L350.834 683.556C350.885 683.461 350.936 683.369 350.988 683.279C351.207 682.905 351.417 682.634 351.659 682.435C352.102 682.073 352.838 681.808 354.492 682.044Z" fill="#F7D27F" stroke="#1D4ED8" stroke-width="1.61812"/>
<path d="M350.374 684.675L359.973 685.443C359.536 685.752 358.978 686.031 358.303 686.266C356.976 686.727 355.33 686.97 353.657 686.976C352.053 686.738 351.405 686.299 351.017 685.826C350.802 685.562 350.632 685.246 350.444 684.831C350.421 684.782 350.398 684.729 350.374 684.675Z" fill="#EFC273" stroke="#1D4ED8" stroke-width="1.61812"/>
<path d="M343.12 690.995C344.755 691.976 345.844 693.119 346.375 694.252L340.057 690.741C340.326 690.578 340.57 690.461 340.839 690.394C341.317 690.275 341.975 690.308 343.12 690.995Z" fill="#F7D27F" stroke="#1D4ED8" stroke-width="1.61812"/>
<path d="M339.073 692.048L345.604 695.675C345.252 695.724 344.867 695.741 344.455 695.72C343.323 695.664 342.069 695.323 340.93 694.64C339.71 693.908 339.288 693.401 339.136 692.981C339.044 692.729 339.024 692.444 339.073 692.048Z" fill="#EFC273" stroke="#1D4ED8" stroke-width="1.61812"/>
<path d="M338.721 668.885C338.722 669.017 338.722 669.15 338.72 669.288L328.245 663.244C330.279 662.737 332.941 663.268 336.104 664.846C337.724 665.776 338.302 666.631 338.541 667.443C338.669 667.877 338.713 668.345 338.721 668.885Z" fill="#F7D27F" stroke="#1D4ED8" stroke-width="1.61812"/>
<path d="M332.359 670.475C329.773 668.997 328.11 666.687 327.497 664.714L337.529 670.734C336.962 671.106 336.459 671.353 335.906 671.45C335.094 671.594 334.032 671.432 332.359 670.475Z" fill="#EFC273" stroke="#1D4ED8" stroke-width="1.61812"/>
<path d="M331.055 679.756L324.53 673.616C325.043 673.601 325.614 673.691 326.228 673.895C327.409 674.289 328.689 675.093 329.875 676.279C331.064 677.468 331.273 678.154 331.273 678.664C331.273 678.951 331.208 679.252 331.088 679.649C331.077 679.683 331.066 679.719 331.055 679.756Z" fill="#F7D27F" stroke="#1D4ED8" stroke-width="1.61812"/>
<path d="M326.491 680.167C324.763 678.439 323.858 676.537 323.637 674.996L330.071 681.052C329.966 681.106 329.86 681.158 329.749 681.211C329.367 681.391 329.078 681.485 328.813 681.505C328.35 681.541 327.691 681.368 326.491 680.167Z" fill="#EFC273" stroke="#1D4ED8" stroke-width="1.61812"/>
<path d="M293.912 615.865L293.952 616.631H294.72H303.275C306.928 616.631 310.014 619.359 310.014 622.867C310.014 626.446 307.357 629.104 303.778 629.104H295.223H294.507L294.42 629.815C291.951 650.059 274.668 666.343 253.454 666.343H238.357H236.849L237.683 667.6L278.43 728.971C280.277 732.227 279.715 736.174 276.724 737.898C275.794 738.36 274.42 738.809 273.081 738.809C270.826 738.809 269.057 737.928 267.702 736.131L219.415 663.7C217.997 661.33 217.628 659.157 218.922 657C220.307 654.691 222.578 653.367 224.77 653.367H253.454C267.437 653.367 278.851 643.518 280.926 630.036L281.069 629.104H280.126H208.666C205.087 629.104 202.43 626.446 202.43 622.867C202.43 619.288 205.087 616.631 208.666 616.631H280.126H280.995L280.933 615.764C279.898 601.274 267.993 589.348 252.951 589.348H224.267H208.666C205.087 589.348 202.43 586.691 202.43 583.112C202.43 579.533 205.087 576.875 208.666 576.875H224.267H252.951H303.275C306.854 576.875 309.511 579.533 309.511 583.112C309.511 586.691 306.854 589.348 303.275 589.348H284.655H282.896L284.041 590.684C289.958 597.587 293.418 606.473 293.912 615.865Z" fill="#F9E310" stroke="#1D4ED8" stroke-width="1.61812"/>
<path d="M293.912 615.822V616.631H294.721H303.276C306.784 616.631 309.513 619.718 309.513 623.371C309.513 626.95 306.855 629.607 303.276 629.607H294.721H294.005L293.918 630.318C291.449 650.562 274.166 666.847 252.953 666.847H237.856H236.347L237.182 668.103L277.928 729.475C279.776 732.731 279.213 736.677 276.223 738.402C275.292 738.864 273.918 739.313 272.579 739.313C270.325 739.313 268.556 738.432 267.201 736.636L224.301 671.786L242.217 653.871H252.953C266.936 653.871 278.35 644.022 280.424 630.539L280.567 629.607H279.624H266.48L279.456 616.631H280.127H280.936V615.822V615.819V615.817V615.814V615.811V615.808V615.805V615.802V615.799V615.796V615.794V615.791V615.788V615.785V615.782V615.779V615.777V615.774V615.771V615.768V615.766V615.763V615.76V615.758V615.755V615.752V615.75V615.747V615.744V615.742V615.739V615.736V615.734V615.731V615.729V615.726V615.723V615.721V615.718V615.716V615.713V615.711V615.708V615.706V615.703V615.701V615.698V615.696V615.693V615.691V615.688V615.686V615.684V615.681V615.679V615.676V615.674V615.672V615.669V615.667V615.665V615.662V615.66V615.658V615.655V615.653V615.651V615.648V615.646V615.644V615.642V615.639V615.637V615.635V615.633V615.631V615.628V615.626V615.624V615.622V615.62V615.617V615.615V615.613V615.611V615.609V615.607V615.605V615.602V615.6V615.598V615.596V615.594V615.592V615.59V615.588V615.586V615.584V615.582V615.58V615.578V615.576V615.574V615.572V615.57V615.568V615.566V615.564V615.562V615.56V615.558V615.556V615.554V615.552V615.55V615.548V615.546V615.544V615.542V615.54V615.539V615.537V615.535V615.533V615.531V615.529V615.527V615.525V615.524V615.522V615.52V615.518V615.516V615.514V615.513V615.511V615.509V615.507V615.505V615.504V615.502V615.5V615.498V615.497V615.495V615.493V615.491V615.49V615.488V615.486V615.484V615.483V615.481V615.479V615.478V615.476V615.474V615.472V615.471V615.469V615.467V615.466V615.464V615.462V615.461V615.459V615.457V615.456V615.454V615.452V615.451V615.449V615.447V615.446V615.444V615.443V615.441V615.439V615.438V615.436V615.435V615.433V615.431V615.43V615.428V615.427V615.425V615.423V615.422V615.42V615.419V615.417V615.416V615.414V615.412V615.411V615.409V615.408V615.406V615.405V615.403V615.402V615.4V615.398V615.397V615.395V615.394V615.392V615.391V615.389V615.388V615.386V615.385V615.383V615.382V615.38V615.379V615.377V615.376V615.374V615.373V615.371V615.37V615.368V615.367V615.365V615.364V615.362V615.361V615.359V615.358V615.356V615.355V615.353V615.352V615.35V615.349V615.347V615.346V615.344V615.343V615.341V615.34V615.338V615.337V615.335V615.334V615.332V615.331V615.33V615.328V615.327V615.325V615.324V615.322V615.321V615.319V615.318V615.316V615.315V615.313V615.312V615.31V615.309V615.307V615.306V615.304V615.303V615.301V615.3V615.299V615.297V615.296V615.294V615.293V615.291V615.29V615.288V615.287V615.285V615.284V615.282V615.281V615.279V615.278V615.276V615.275V615.273V615.272V615.27V615.269V615.267V615.266V615.264V615.263V615.261V615.26V615.258V615.257V615.255V615.254V615.252V615.251V615.249V615.248V615.246V615.245V615.243V615.241V615.24V615.238V615.237V615.235V615.234V615.232V615.231V615.229V615.228V615.226V615.224V615.223V615.221V615.22V615.218V615.217V615.215V615.213V615.212V615.21V615.209V615.207V615.205V615.204V615.202V615.201V615.199V615.197V615.196V615.194V615.193V615.191V615.189V615.188V615.186V615.184V615.183V615.181V615.179V615.178V615.176V615.174V615.173V615.171V615.169V615.168V615.166V615.164V615.163V615.161V615.159V615.157V615.156V615.154V615.152V615.151L291.874 604.214C293.116 607.857 293.912 611.847 293.912 615.822Z" fill="#F7C011" stroke="#1D4ED8" stroke-width="1.61812"/>
<mask id="path-89-inside-4_482_9952" fill="white">
<path d="M310.325 584.622L304.789 590.157C307.808 589.151 309.821 587.138 310.325 584.622Z"/>
</mask>
<path d="M310.325 584.622L304.789 590.157C307.808 589.151 309.821 587.138 310.325 584.622Z" fill="#F7C011"/>
<path d="M310.325 584.622L311.911 584.939L312.959 579.698L309.18 583.477L310.325 584.622ZM304.789 590.157L303.645 589.013L305.301 591.692L304.789 590.157ZM309.18 583.477L303.645 589.013L305.933 591.301L311.469 585.766L309.18 583.477ZM305.301 591.692C308.716 590.554 311.265 588.168 311.911 584.939L308.738 584.304C308.377 586.107 306.901 587.748 304.277 588.622L305.301 591.692Z" fill="#1D4ED8" mask="url(#path-89-inside-4_482_9952)"/>
<path d="M1132.87 2040.61H114.127C82.8136 2040.61 54.3881 2023.71 33.7778 1996.36C13.1674 1969.02 0.390626 1931.25 0.390625 1889.57V289.429C0.390625 247.753 13.1678 209.98 33.7784 182.635C54.3889 155.29 82.8144 138.391 114.127 138.391H1132.87C1164.19 138.391 1192.61 155.29 1213.22 182.636C1233.83 209.981 1246.61 247.754 1246.61 289.429V1889.57C1246.61 1931.25 1233.83 1969.02 1213.22 1996.36C1192.61 2023.71 1164.19 2040.61 1132.87 2040.61ZM114.127 235.641C102.882 235.641 92.7177 241.713 85.3781 251.456C78.0385 261.199 73.5052 274.632 73.5052 289.429V1889.57C73.5052 1904.37 78.0385 1917.8 85.3781 1927.54C92.7177 1937.29 102.882 1943.36 114.127 1943.36H1132.87C1144.12 1943.36 1154.28 1937.29 1161.62 1927.54C1168.96 1917.8 1173.49 1904.37 1173.49 1889.57V289.429C1173.49 274.632 1168.96 261.199 1161.62 251.456C1154.28 241.713 1144.12 235.641 1132.87 235.641H114.127Z" fill="#1D4ED8" stroke="#1D4ED8" stroke-width="0.78125"/>
<line x1="467" y1="495" x2="1046" y2="495" stroke="#1D4ED8" stroke-width="56"/>
<line x1="467" y1="638" x2="1046" y2="638" stroke="#1D4ED8" stroke-width="56"/>
<line x1="467" y1="790" x2="1046" y2="790" stroke="#1D4ED8" stroke-width="56"/>
<line x1="178" y1="1727" x2="1046" y2="1727" stroke="#1D4ED8" stroke-width="56"/>
<line x1="178" y1="1271" x2="1046" y2="1271" stroke="#1D4ED8" stroke-width="56"/>
<line x1="178" y1="1566" x2="1046" y2="1566" stroke="#1D4ED8" stroke-width="56"/>
<line x1="178" y1="1110" x2="1046" y2="1110" stroke="#1D4ED8" stroke-width="56"/>
<line x1="178" y1="1406" x2="1046" y2="1406" stroke="#1D4ED8" stroke-width="56"/>
<line x1="178" y1="950" x2="1046" y2="950" stroke="#1D4ED8" stroke-width="56"/>
<path d="M2075.35 697C1889.26 697 1737 544.743 1737 358.65C1737 172.558 1889.26 20.3008 2075.35 20.3008C2261.44 20.3008 2413.7 172.558 2413.7 358.65C2413.7 544.743 2261.44 697 2075.35 697Z" fill="#DBAB56"/>
<path d="M2075.36 655.271C2250.39 655.271 2392.28 513.38 2392.28 338.35C2392.28 163.319 2250.39 21.4292 2075.36 21.4292C1900.33 21.4292 1758.44 163.319 1758.44 338.35C1758.44 513.38 1900.33 655.271 2075.36 655.271Z" fill="#EFB30C"/>
<path d="M1795.65 376.695C1795.65 201.881 1937.76 59.7745 2112.57 59.7745C2190.39 59.7745 2261.45 87.9703 2316.71 134.211C2259.19 65.4137 2172.35 21.4282 2075.35 21.4282C1900.54 21.4282 1758.43 163.535 1758.43 338.349C1758.43 435.342 1802.42 522.185 1871.22 580.833C1823.85 525.569 1795.65 454.516 1795.65 376.695Z" fill="#E5A300"/>
<path d="M2299.8 115.038C2423.86 239.1 2423.86 439.854 2299.8 563.915C2175.74 687.977 1974.98 687.977 1850.92 563.915" fill="#E5A300"/>
<path d="M2075.35 676.699C1889.26 676.699 1737 524.442 1737 338.35C1737 152.257 1889.26 0 2075.35 0C2261.44 0 2413.7 152.257 2413.7 338.35C2413.7 524.442 2261.44 676.699 2075.35 676.699ZM2075.35 42.8576C1911.81 42.8576 1779.86 175.942 1779.86 338.35C1779.86 501.885 1912.94 633.841 2075.35 633.841C2237.76 633.841 2370.84 500.757 2370.84 338.35C2370.84 175.942 2238.89 42.8576 2075.35 42.8576Z" fill="#F7D27F"/>
<path d="M2413.7 338.35C2413.7 252.635 2382.12 174.814 2330.24 116.167C2270.46 64.2868 2192.64 32.7075 2106.93 32.7075C2049.41 32.7075 1996.4 47.3693 1949.03 72.1816C1987.38 53.0085 2030.24 42.858 2075.35 42.858C2164.45 42.858 2245.65 83.46 2299.79 146.619C2362.95 200.754 2402.42 280.831 2402.42 371.057C2402.42 416.17 2392.27 459.028 2374.22 497.374C2399.04 450.005 2413.7 395.869 2413.7 338.35Z" fill="#EFC273"/>
<path d="M1768.58 371.056C1768.58 456.771 1800.16 534.591 1852.04 593.239C1911.82 645.119 1989.64 676.698 2074.22 676.698C2131.74 676.698 2184.75 662.036 2232.12 637.224C2193.77 655.27 2150.92 665.42 2105.8 665.42C2016.7 665.42 1935.5 624.818 1881.37 561.659C1818.21 507.524 1777.6 427.447 1777.6 337.221C1777.6 292.108 1787.76 249.25 1805.8 210.904C1783.24 259.401 1768.58 313.537 1768.58 371.056Z" fill="#EAC06C"/>
<path d="M2094.52 125.19C2094.52 135.34 2085.5 152.258 2075.35 152.258C2065.2 152.258 2056.18 135.34 2056.18 125.19C2056.18 115.039 2065.2 106.017 2075.35 106.017C2085.5 106.017 2094.52 115.039 2094.52 125.19Z" fill="#E5A300"/>
<path d="M2075.35 144.363C2085.94 144.363 2094.52 135.779 2094.52 125.19C2094.52 114.601 2085.94 106.017 2075.35 106.017C2064.76 106.017 2056.18 114.601 2056.18 125.19C2056.18 135.779 2064.76 144.363 2075.35 144.363Z" fill="#F7D27F"/>
<path d="M2088.89 111.656C2096.79 119.551 2096.79 130.829 2088.89 138.724C2081 146.619 2069.72 146.619 2061.82 138.724" fill="#EFC273"/>
<path d="M2077.6 31.5785C2077.6 32.7063 2076.47 33.8342 2075.35 33.8342C2074.22 33.8342 2073.09 32.7063 2073.09 31.5785V10.1497C2073.09 9.02187 2074.22 7.89404 2075.35 7.89404C2076.47 7.89404 2077.6 9.02187 2077.6 10.1497V31.5785Z" fill="#FFE0A1"/>
<path d="M2077.6 667.675C2077.6 668.803 2076.47 669.931 2075.35 669.931C2074.22 669.931 2073.09 668.803 2073.09 667.675V646.246C2073.09 645.119 2074.22 643.991 2075.35 643.991C2076.47 643.991 2077.6 645.119 2077.6 646.246V667.675Z" fill="#FFE0A1"/>
<path d="M2294.15 124.061C2293.02 125.189 2291.9 125.189 2290.77 124.061C2289.64 122.933 2289.64 121.805 2290.77 120.678L2306.56 104.888C2307.69 103.76 2308.81 103.76 2309.94 104.888C2311.07 106.016 2311.07 107.144 2309.94 108.271L2294.15 124.061Z" fill="#FFE0A1"/>
<path d="M1845.28 572.938C1844.15 574.066 1843.02 574.066 1841.89 572.938C1840.76 571.811 1840.76 570.683 1841.89 569.555L1857.68 553.765C1858.81 552.637 1859.94 552.637 1861.07 553.765C1862.19 554.893 1862.19 556.021 1861.07 557.149L1845.28 572.938Z" fill="#FFE0A1"/>
<path d="M2382.12 341.733C2380.99 341.733 2379.86 340.605 2379.86 339.477C2379.86 338.349 2380.99 337.221 2382.12 337.221H2403.54C2404.67 337.221 2405.8 338.349 2405.8 339.477C2405.8 340.605 2404.67 341.733 2403.54 341.733H2382.12Z" fill="#FFE0A1"/>
<path d="M1747.15 341.732C1746.02 341.732 1744.89 340.604 1744.89 339.476C1744.89 338.348 1746.02 337.221 1747.15 337.221H1768.58C1769.71 336.093 1770.83 337.221 1770.83 338.348C1770.83 339.476 1769.71 340.604 1768.58 340.604H1747.15V341.732Z" fill="#FFE0A1"/>
<path d="M2290.77 558.275C2289.64 557.147 2289.64 556.02 2290.77 554.892C2291.9 553.764 2293.02 553.764 2294.15 554.892L2309.94 570.681C2311.07 571.809 2311.07 572.937 2309.94 574.065C2308.81 575.193 2307.69 575.193 2306.56 574.065L2290.77 558.275Z" fill="#FFE0A1"/>
<path d="M1840.76 108.271C1839.64 107.144 1839.64 106.016 1840.76 104.888C1841.89 103.76 1843.02 103.76 1844.15 104.888L1859.94 120.678C1861.06 121.805 1861.06 122.933 1859.94 124.061C1858.81 125.189 1857.68 125.189 1856.55 124.061L1840.76 108.271Z" fill="#FFE0A1"/>
<path d="M1924.21 72.1802C1925.34 73.3081 1924.21 75.5637 1923.09 75.5637C1921.96 76.6916 1919.7 75.5637 1919.7 74.4359L1908.42 55.2628C1907.3 54.1349 1908.42 51.8793 1909.55 51.8793C1910.68 50.7514 1912.94 51.8793 1912.94 53.0071L1924.21 72.1802Z" fill="#FFE0A1"/>
<path d="M2242.27 622.562C2243.4 623.69 2242.27 625.946 2241.14 625.946C2240.01 627.073 2237.76 625.946 2237.76 624.818L2226.48 605.645C2225.35 604.517 2226.48 602.261 2227.61 602.261C2228.73 601.133 2230.99 602.261 2230.99 603.389L2242.27 622.562Z" fill="#FFE0A1"/>
<path d="M2157.69 42.8567C2157.69 43.9846 2155.43 45.1124 2154.3 45.1124C2153.17 45.1124 2152.05 42.8567 2152.05 41.7289L2157.69 20.3001C2157.69 19.1723 2159.94 18.0444 2161.07 18.0444C2162.2 18.0444 2163.33 20.3001 2163.33 21.4279L2157.69 42.8567Z" fill="#FFE0A1"/>
<path d="M1993.02 656.397C1993.02 657.525 1990.76 658.652 1989.63 658.652C1988.51 658.652 1987.38 656.397 1987.38 655.269L1993.02 633.84C1993.02 632.712 1995.27 631.584 1996.4 631.584C1997.53 631.584 1998.66 633.84 1998.66 634.968L1993.02 656.397Z" fill="#FFE0A1"/>
<path d="M2342.64 187.219C2341.51 188.347 2339.26 187.219 2339.26 186.091C2338.13 184.964 2339.26 182.708 2340.38 182.708L2359.56 171.43C2360.69 170.302 2362.94 171.43 2362.94 172.557C2364.07 173.685 2362.94 175.941 2361.81 175.941L2342.64 187.219Z" fill="#FFE0A1"/>
<path d="M1792.27 505.268C1791.14 506.396 1788.89 505.268 1788.89 504.14C1787.76 503.012 1788.89 500.757 1790.01 500.757L1809.19 489.478C1810.31 488.351 1812.57 489.478 1812.57 490.606C1813.7 491.734 1812.57 493.99 1811.44 493.99L1792.27 505.268Z" fill="#FFE0A1"/>
<path d="M2370.84 420.681C2369.71 420.681 2368.58 418.425 2368.58 417.297C2368.58 416.169 2370.84 415.042 2371.97 415.042L2393.39 420.681C2394.52 420.681 2395.65 422.936 2395.65 424.064C2395.65 425.192 2393.39 426.32 2392.27 426.32L2370.84 420.681Z" fill="#FFE0A1"/>
<path d="M1757.3 256.017C1756.17 256.017 1755.04 253.761 1755.04 252.634C1755.04 251.506 1757.3 250.378 1758.43 250.378L1779.86 256.017C1780.98 256.017 1782.11 258.273 1782.11 259.401C1782.11 260.528 1779.86 261.656 1778.73 261.656L1757.3 256.017Z" fill="#FFE0A1"/>
<path d="M1811.44 182.708C1812.57 183.836 1813.7 184.964 1812.57 186.091C1811.44 187.219 1810.31 188.347 1809.19 187.219L1790.01 175.941C1788.89 174.813 1787.76 173.685 1788.89 172.557C1790.01 171.43 1791.14 170.302 1792.27 171.43L1811.44 182.708Z" fill="#FFE0A1"/>
<path d="M2361.81 500.757C2362.94 501.885 2364.07 503.012 2362.94 504.14C2361.81 505.268 2360.69 506.396 2359.56 505.268L2340.38 493.99C2339.26 492.862 2338.13 491.734 2339.26 490.606C2340.38 489.478 2341.51 488.351 2342.64 489.478L2361.81 500.757Z" fill="#FFE0A1"/>
<path d="M1998.66 41.7289C1998.66 42.8567 1998.66 45.1124 1996.4 45.1124C1995.27 45.1124 1993.02 45.1124 1993.02 42.8567L1987.38 21.4279C1987.38 20.3001 1987.38 18.0444 1989.63 18.0444C1990.76 18.0444 1993.02 18.0444 1993.02 20.3001L1998.66 41.7289Z" fill="#FFE0A1"/>
<path d="M2163.33 655.269C2163.33 656.397 2163.33 658.652 2161.07 658.652C2159.94 658.652 2157.69 658.652 2157.69 656.397L2152.05 634.968C2152.05 633.84 2152.05 631.584 2154.3 631.584C2155.43 631.584 2157.69 631.584 2157.69 633.84L2163.33 655.269Z" fill="#FFE0A1"/>
<path d="M2230.99 74.4359C2229.86 75.5637 2228.73 76.6916 2227.61 75.5637C2226.48 74.4359 2225.35 73.3081 2226.48 72.1802L2237.76 53.0071C2238.89 51.8793 2240.01 50.7514 2241.14 51.8793C2242.27 53.0071 2243.4 54.1349 2242.27 55.2628L2230.99 74.4359Z" fill="#FFE0A1"/>
<path d="M1912.94 624.818C1911.81 625.946 1910.68 627.073 1909.55 625.946C1908.42 624.818 1907.3 623.69 1908.42 622.562L1919.7 603.389C1920.83 602.261 1921.96 601.133 1923.09 602.261C1924.21 603.389 1925.34 604.517 1924.21 605.645L1912.94 624.818Z" fill="#FFE0A1"/>
<path d="M2371.97 261.656C2370.84 261.656 2368.58 261.656 2368.58 259.401C2368.58 258.273 2368.58 256.017 2370.84 256.017L2392.27 250.378C2393.39 250.378 2395.65 250.378 2395.65 252.634C2395.65 253.761 2395.65 256.017 2393.39 256.017L2371.97 261.656Z" fill="#FFE0A1"/>
<path d="M1758.43 426.32C1757.3 426.32 1755.04 426.32 1755.04 424.064C1755.04 422.936 1755.04 420.681 1757.3 420.681L1778.73 415.042C1779.86 415.042 1782.11 415.042 1782.11 417.297C1782.11 418.425 1782.11 420.681 1779.86 420.681L1758.43 426.32Z" fill="#FFE0A1"/>
<path d="M1909.57 460.155C1908.44 460.155 1907.31 460.155 1906.18 459.028C1856.56 437.599 1832.87 380.079 1854.3 329.327C1856.56 324.816 1861.07 322.56 1865.58 324.816C1870.09 327.071 1872.35 331.583 1870.09 336.094C1861.07 356.395 1861.07 378.951 1870.09 398.125C1877.99 418.426 1893.78 434.215 1914.08 443.238C1918.59 445.494 1920.85 450.005 1918.59 454.516C1916.33 457.9 1912.95 460.155 1909.57 460.155Z" fill="#F7D27F"/>
<path d="M1868.95 399.252C1862.19 382.335 1861.06 364.29 1866.7 346.244C1866.7 340.605 1867.83 334.966 1870.08 329.327C1868.95 327.071 1867.83 325.943 1865.57 324.816C1861.06 322.56 1856.55 324.816 1854.29 329.327C1852.04 333.838 1850.91 338.35 1849.78 342.861C1845.27 384.591 1868.95 426.32 1909.56 444.366C1910.68 444.366 1911.81 445.494 1912.94 445.494C1914.07 445.494 1914.07 445.494 1915.2 445.494L1914.07 444.366C1892.64 435.343 1876.85 419.553 1868.95 399.252Z" fill="#EFC273"/>
<path d="M1898.28 261.657C1885.87 261.657 1872.34 271.807 1864.45 288.725C1856.55 304.514 1862.19 310.153 1868.96 319.176L1898.28 261.657Z" fill="#F7D27F"/>
<path d="M1898.28 261.657C1905.04 271.807 1905.04 288.725 1897.15 304.514C1889.25 321.432 1881.36 319.176 1868.95 319.176L1898.28 261.657Z" fill="#EFC273"/>
<path d="M1824.97 286.469C1832.87 285.341 1841.89 292.108 1847.53 301.131C1853.17 311.281 1849.78 314.665 1846.4 321.432L1824.97 286.469Z" fill="#F7D27F"/>
<path d="M1824.97 286.469C1820.46 292.108 1821.59 303.387 1827.23 313.537C1832.87 323.688 1838.51 321.432 1845.27 321.432L1824.97 286.469Z" fill="#EFC273"/>
<path d="M1925.36 327.071C1918.59 320.304 1906.18 319.176 1893.78 322.56C1881.37 327.071 1881.37 332.71 1880.24 340.605L1925.36 327.071Z" fill="#F7D27F"/>
<path d="M1925.36 327.071C1924.23 336.094 1915.2 345.117 1901.67 348.5C1889.26 353.011 1885.88 347.372 1880.24 341.733L1925.36 327.071Z" fill="#EFC273"/>
<path d="M1914.07 366.545C1909.55 362.034 1899.4 359.778 1888.13 363.162C1877.98 366.545 1877.98 371.057 1876.85 377.824L1914.07 366.545Z" fill="#F7D27F"/>
<path d="M1914.07 366.545C1912.94 373.312 1906.17 381.207 1894.89 384.591C1883.61 387.974 1882.49 383.463 1876.85 378.952L1914.07 366.545Z" fill="#EFC273"/>
<path d="M1806.93 333.838C1812.57 330.455 1822.72 331.583 1832.87 337.222C1841.89 342.861 1840.76 347.372 1839.64 354.139L1806.93 333.838Z" fill="#F7D27F"/>
<path d="M1806.92 332.71C1805.8 339.477 1811.44 348.5 1820.46 354.139C1829.48 359.778 1832.86 356.394 1838.5 353.011L1806.92 332.71Z" fill="#EFC273"/>
<path d="M1808.06 373.312C1812.57 368.801 1820.46 366.545 1829.49 368.801C1838.51 371.057 1838.51 375.568 1839.64 381.207L1808.06 373.312Z" fill="#F7D27F"/>
<path d="M1808.06 373.312C1809.19 378.951 1815.95 384.59 1824.98 386.846C1834 389.102 1836.25 385.718 1839.64 381.207L1808.06 373.312Z" fill="#EFC273"/>
<path d="M1814.83 408.275C1818.21 402.636 1826.11 400.38 1836.26 401.508C1845.28 402.636 1846.41 407.147 1847.54 412.786L1814.83 408.275Z" fill="#F7D27F"/>
<path d="M1814.83 408.275C1817.08 413.915 1823.85 418.426 1834 419.554C1843.02 420.682 1844.15 417.298 1847.54 411.659L1814.83 408.275Z" fill="#EFC273"/>
<path d="M1838.51 442.11C1840.77 437.599 1846.41 433.087 1854.3 433.087C1862.2 431.959 1863.32 435.343 1865.58 439.854L1838.51 442.11Z" fill="#F7D27F"/>
<path d="M1838.51 440.983C1840.77 445.494 1848.66 447.75 1856.56 447.75C1864.45 446.622 1864.45 443.238 1866.71 438.727L1838.51 440.983Z" fill="#EFC273"/>
<path d="M1870.09 465.795C1870.09 461.284 1873.47 456.772 1879.11 453.389C1884.75 450.005 1887 452.261 1890.39 454.517L1870.09 465.795Z" fill="#F7D27F"/>
<path d="M1870.09 465.794C1873.47 468.05 1880.24 468.05 1885.88 464.666C1891.51 461.283 1891.51 459.027 1890.39 454.516L1870.09 465.794Z" fill="#EFC273"/>
<path d="M1917.45 392.485C1911.81 389.102 1903.92 390.23 1894.9 394.741C1887 399.252 1888.13 403.764 1888.13 409.403L1917.45 392.485Z" fill="#F7D27F"/>
<path d="M1917.46 392.485C1917.46 398.124 1912.95 406.019 1905.05 410.53C1897.16 415.042 1893.77 412.786 1889.26 409.402L1917.46 392.485Z" fill="#EFC273"/>
<path d="M1925.35 415.042C1920.84 412.786 1914.07 415.042 1908.43 420.681C1902.79 426.32 1905.05 428.576 1906.18 433.087L1925.35 415.042Z" fill="#F7D27F"/>
<path d="M1925.35 415.042C1926.48 419.554 1924.23 426.321 1918.59 431.96C1912.95 437.599 1910.69 435.343 1906.18 433.088L1925.35 415.042Z" fill="#EFC273"/>
<path d="M2241.15 460.155C2242.27 460.155 2243.4 460.155 2244.53 459.028C2294.15 437.599 2317.84 380.079 2296.41 329.327C2294.15 324.816 2289.64 322.56 2285.13 324.816C2280.62 327.071 2278.36 331.583 2280.62 336.094C2289.64 356.395 2289.64 378.951 2280.62 398.125C2272.73 418.426 2256.94 434.215 2236.63 443.238C2232.12 445.494 2229.87 450.005 2232.12 454.516C2234.38 457.9 2237.76 460.155 2241.15 460.155Z" fill="#F7D27F"/>
<path d="M2281.75 399.252C2288.51 382.335 2289.64 364.29 2285.13 346.244C2285.13 340.605 2284 334.966 2281.75 329.327C2282.87 327.071 2284 325.943 2286.26 324.816C2290.77 322.56 2295.28 324.816 2297.54 329.327C2299.79 333.838 2300.92 338.35 2302.05 342.861C2306.56 384.591 2282.87 426.32 2242.27 444.366C2241.14 444.366 2240.02 445.494 2238.89 445.494C2237.76 445.494 2237.76 445.494 2236.63 445.494L2237.76 444.366C2258.06 435.343 2273.85 419.553 2281.75 399.252Z" fill="#EFC273"/>
<path d="M2252.42 261.657C2264.83 261.657 2278.36 271.807 2286.26 288.725C2294.15 304.514 2288.51 310.153 2281.75 319.176L2252.42 261.657Z" fill="#F7D27F"/>
<path d="M2252.42 261.657C2245.65 271.807 2245.65 288.725 2253.54 304.514C2261.44 321.432 2269.33 319.176 2281.74 319.176L2252.42 261.657Z" fill="#EFC273"/>
<path d="M2325.74 286.469C2317.84 285.341 2308.82 292.108 2303.18 301.131C2297.54 311.281 2300.92 314.665 2304.31 321.432L2325.74 286.469Z" fill="#F7D27F"/>
<path d="M2325.73 286.469C2329.12 293.236 2329.12 303.387 2322.35 313.537C2316.71 323.688 2311.07 321.432 2304.3 321.432L2325.73 286.469Z" fill="#EFC273"/>
<path d="M2225.35 327.071C2232.11 320.304 2244.52 319.176 2256.93 322.56C2269.33 327.071 2269.33 332.71 2270.46 340.605L2225.35 327.071Z" fill="#F7D27F"/>
<path d="M2225.35 327.071C2226.48 336.094 2235.5 345.117 2249.03 348.5C2261.44 353.011 2264.82 347.372 2270.46 341.733L2225.35 327.071Z" fill="#EFC273"/>
<path d="M2236.63 366.545C2241.14 362.034 2251.29 359.778 2262.57 363.162C2272.72 366.545 2272.72 371.057 2273.85 377.824L2236.63 366.545Z" fill="#F7D27F"/>
<path d="M2236.63 366.545C2237.76 373.312 2244.53 381.207 2255.81 384.591C2265.96 387.974 2268.21 383.463 2273.85 378.952L2236.63 366.545Z" fill="#EFC273"/>
<path d="M2343.78 333.838C2338.14 330.455 2327.99 331.583 2317.84 337.222C2308.82 342.861 2309.94 347.372 2311.07 354.139L2343.78 333.838Z" fill="#F7D27F"/>
<path d="M2343.77 332.71C2344.9 339.477 2339.26 348.5 2330.24 354.139C2321.22 359.778 2317.83 356.394 2312.2 353.011L2343.77 332.71Z" fill="#EFC273"/>
<path d="M2342.65 373.312C2338.14 368.801 2330.25 366.545 2321.22 368.801C2312.2 371.057 2312.2 375.568 2311.07 381.207L2342.65 373.312Z" fill="#F7D27F"/>
<path d="M2342.65 373.312C2341.53 378.951 2334.76 384.59 2325.74 386.846C2316.71 389.102 2314.46 385.718 2311.07 381.207L2342.65 373.312Z" fill="#EFC273"/>
<path d="M2335.88 408.275C2332.5 402.636 2324.6 400.38 2314.45 401.508C2305.43 402.636 2304.3 407.147 2303.18 412.786L2335.88 408.275Z" fill="#F7D27F"/>
<path d="M2335.88 408.275C2333.63 413.915 2326.86 418.426 2316.71 419.554C2307.69 420.682 2306.56 417.298 2303.18 411.659L2335.88 408.275Z" fill="#EFC273"/>
<path d="M2312.2 442.11C2309.95 437.599 2304.31 433.087 2296.41 433.087C2288.52 431.959 2287.39 435.343 2285.13 439.854L2312.2 442.11Z" fill="#F7D27F"/>
<path d="M2312.2 440.983C2309.94 445.494 2302.05 447.75 2294.15 447.75C2286.26 446.622 2286.26 443.238 2284 438.727L2312.2 440.983Z" fill="#EFC273"/>
<path d="M2280.62 465.795C2280.62 461.284 2277.23 456.772 2271.59 453.389C2265.96 450.005 2263.7 452.261 2260.32 454.517L2280.62 465.795Z" fill="#F7D27F"/>
<path d="M2280.62 465.794C2277.24 468.05 2270.47 468.05 2264.83 464.666C2259.19 461.283 2259.19 459.027 2260.32 454.516L2280.62 465.794Z" fill="#EFC273"/>
<path d="M2233.25 392.485C2238.89 389.102 2246.78 390.23 2255.8 394.741C2263.7 399.252 2262.57 403.764 2262.57 409.403L2233.25 392.485Z" fill="#F7D27F"/>
<path d="M2233.25 392.485C2233.25 398.124 2237.76 406.019 2245.65 410.53C2253.55 415.042 2256.93 412.786 2261.44 409.402L2233.25 392.485Z" fill="#EFC273"/>
<path d="M2225.35 415.042C2229.86 412.786 2236.63 415.042 2242.27 420.681C2247.9 426.32 2245.65 428.576 2244.52 433.087L2225.35 415.042Z" fill="#F7D27F"/>
<path d="M2225.35 415.042C2224.22 419.554 2226.48 426.321 2232.12 431.96C2237.76 437.599 2240.01 435.343 2244.53 433.088L2225.35 415.042Z" fill="#EFC273"/>
<path d="M2197.16 216.544L2184.75 228.951C2191.52 226.695 2196.03 222.184 2197.16 216.544Z" fill="#F7C011"/>
<path d="M2024.04 413.727V411.597C2024.28 388.988 2026.64 370.995 2031.14 357.619C2035.64 344.243 2042.03 333.412 2050.32 325.126C2058.6 316.84 2068.55 309.205 2080.15 302.222C2087.13 297.96 2093.41 292.929 2098.97 287.129C2104.53 281.211 2108.91 274.404 2112.11 266.71C2115.42 259.016 2117.08 250.493 2117.08 241.142C2117.08 229.542 2114.36 219.48 2108.91 210.957C2103.47 202.435 2096.19 195.865 2087.07 191.249C2077.96 186.632 2067.84 184.324 2056.71 184.324C2047 184.324 2037.65 186.336 2028.66 190.361C2019.66 194.385 2012.14 200.718 2006.11 209.359C2000.07 218 1996.58 229.305 1995.63 243.273H1950.89C1951.83 223.15 1957.04 205.927 1966.51 191.604C1976.1 177.281 1988.71 166.331 2004.33 158.756C2020.07 151.18 2037.53 147.392 2056.71 147.392C2077.54 147.392 2095.65 151.535 2111.04 159.821C2126.55 168.107 2138.5 179.471 2146.91 193.912C2155.43 208.353 2159.69 224.807 2159.69 243.273C2159.69 256.294 2157.68 268.071 2153.66 278.607C2149.75 289.142 2144.07 298.552 2136.61 306.838C2129.27 315.124 2120.39 322.463 2109.98 328.855C2099.56 335.366 2091.22 342.231 2084.94 349.452C2078.67 356.554 2074.11 365.018 2071.27 374.842C2068.43 384.667 2066.89 396.919 2066.65 411.597V413.727H2024.04ZM2046.77 518.841C2038.01 518.841 2030.49 515.704 2024.22 509.43C2017.94 503.157 2014.81 495.64 2014.81 486.881C2014.81 478.121 2017.94 470.605 2024.22 464.331C2030.49 458.057 2038.01 454.92 2046.77 454.92C2055.53 454.92 2063.04 458.057 2069.32 464.331C2075.59 470.605 2078.73 478.121 2078.73 486.881C2078.73 492.681 2077.25 498.008 2074.29 502.861C2071.45 507.714 2067.6 511.62 2062.75 514.58C2058.01 517.42 2052.69 518.841 2046.77 518.841Z" fill="#F9E310"/>
<rect x="819" y="812.117" width="901" height="1445" fill="#FFF8F8"/>
<path d="M1689.1 2317.62H850.901C825.206 2317.62 801.866 2303.75 784.934 2281.28C768.002 2258.8 757.5 2227.76 757.5 2193.5V876.622C757.5 842.359 768.002 811.311 784.935 788.841C801.867 766.37 825.206 752.5 850.901 752.5H1689.1C1714.79 752.5 1738.13 766.37 1755.07 788.841C1772 811.312 1782.5 842.36 1782.5 876.622V2193.5C1782.5 2227.76 1772 2258.8 1755.07 2281.28C1738.13 2303.75 1714.8 2317.62 1689.1 2317.62ZM850.901 832.178C841.58 832.178 833.168 837.212 827.104 845.264C821.04 853.316 817.3 864.409 817.3 876.622V2193.5C817.3 2205.71 821.04 2216.8 827.104 2224.85C833.168 2232.91 841.58 2237.94 850.901 2237.94H1689.1C1698.42 2237.94 1706.83 2232.91 1712.9 2224.85C1718.96 2216.8 1722.7 2205.71 1722.7 2193.5V876.622C1722.7 864.409 1718.96 853.316 1712.9 845.264C1706.83 837.212 1698.42 832.178 1689.1 832.178H850.901Z" fill="#1D4ED8" stroke="black"/>
<path d="M884.297 921.76H1655.7V1183.97H884.297V921.76ZM1434.66 1242.79H1655.7V1313.75H1434.66V1242.79ZM1192.42 1437.76H1347.58V1643.65H1192.42V1437.76ZM884.297 1437.76H1039.46V1643.65H884.297V1437.76ZM1500.53 1437.76H1655.7V1643.65H1500.53V1437.76ZM1192.42 1699.99H1347.58V1905.89H1192.42V1699.99ZM884.297 1699.99H1039.46V1905.89H884.297V1699.99ZM1500.53 1699.99H1655.7V1905.89H1500.53V1699.99ZM1192.42 1962.22H1347.58V2168.12H1192.42V1962.22ZM884.297 1962.22H1039.46V2168.12H884.297V1962.22ZM1500.53 1962.22H1655.7V2168.12H1500.53V1962.22Z" fill="#7297FF"/>
<path d="M2027.78 2318C1730.35 2318 1487 2074.65 1487 1777.22C1487 1479.8 1730.35 1236.45 2027.78 1236.45C2325.2 1236.45 2568.55 1479.8 2568.55 1777.22C2568.55 2074.65 2325.2 2318 2027.78 2318Z" fill="#DBAB56"/>
<path d="M2027.79 2251.3C2307.54 2251.3 2534.32 2024.52 2534.32 1744.78C2534.32 1465.03 2307.54 1238.25 2027.79 1238.25C1748.04 1238.25 1521.26 1465.03 1521.26 1744.78C1521.26 2024.52 1748.04 2251.3 2027.79 2251.3Z" fill="#EFB30C"/>
<path d="M1580.74 1806.06C1580.74 1526.66 1807.87 1299.54 2087.27 1299.54C2211.65 1299.54 2325.21 1344.6 2413.54 1418.51C2321.6 1308.55 2182.8 1238.25 2027.78 1238.25C1748.38 1238.25 1521.25 1465.37 1521.25 1744.78C1521.25 1899.8 1591.55 2038.6 1701.51 2132.33C1625.8 2044.01 1580.74 1930.44 1580.74 1806.06Z" fill="#E5A300"/>
<path d="M2386.51 1387.86C2584.79 1586.15 2584.79 1907.01 2386.51 2105.29C2188.22 2303.58 1867.36 2303.58 1669.08 2105.29" fill="#E5A300"/>
<path d="M2027.78 2285.55C1730.35 2285.55 1487 2042.2 1487 1744.78C1487 1447.35 1730.35 1204 2027.78 1204C2325.2 1204 2568.55 1447.35 2568.55 1744.78C2568.55 2042.2 2325.2 2285.55 2027.78 2285.55ZM2027.78 1272.5C1766.4 1272.5 1555.5 1485.2 1555.5 1744.78C1555.5 2006.15 1768.2 2217.05 2027.78 2217.05C2287.35 2217.05 2500.05 2004.35 2500.05 1744.78C2500.05 1485.2 2289.15 1272.5 2027.78 1272.5Z" fill="#F7D27F"/>
<path d="M2568.55 1744.78C2568.55 1607.78 2518.08 1483.4 2435.16 1389.67C2339.62 1306.75 2215.25 1256.28 2078.25 1256.28C1986.32 1256.28 1901.6 1279.71 1825.89 1319.37C1887.17 1288.72 1955.67 1272.5 2027.78 1272.5C2170.18 1272.5 2299.97 1337.39 2386.49 1438.34C2487.44 1524.86 2550.53 1652.85 2550.53 1797.05C2550.53 1869.16 2534.3 1937.65 2505.46 1998.94C2545.12 1923.23 2568.55 1836.71 2568.55 1744.78Z" fill="#EFC273"/>
<path d="M1537.48 1797.05C1537.48 1934.05 1587.95 2058.43 1670.87 2152.16C1766.41 2235.08 1890.79 2285.55 2025.98 2285.55C2117.91 2285.55 2202.64 2262.12 2278.34 2222.46C2217.06 2251.3 2148.56 2267.53 2076.45 2267.53C1934.05 2267.53 1804.26 2202.63 1717.74 2101.69C1616.79 2015.16 1551.9 1887.18 1551.9 1742.97C1551.9 1670.87 1568.12 1602.37 1596.97 1541.08C1560.91 1618.59 1537.48 1705.12 1537.48 1797.05Z" fill="#EAC06C"/>
<path d="M2058.42 1404.09C2058.42 1420.31 2044 1447.35 2027.78 1447.35C2011.55 1447.35 1997.13 1420.31 1997.13 1404.09C1997.13 1387.86 2011.55 1373.44 2027.78 1373.44C2044 1373.44 2058.42 1387.86 2058.42 1404.09Z" fill="#E5A300"/>
<path d="M2027.78 1434.73C2044.7 1434.73 2058.42 1421.01 2058.42 1404.09C2058.42 1387.16 2044.7 1373.44 2027.78 1373.44C2010.85 1373.44 1997.13 1387.16 1997.13 1404.09C1997.13 1421.01 2010.85 1434.73 2027.78 1434.73Z" fill="#F7D27F"/>
<path d="M2049.42 1382.46C2062.04 1395.08 2062.04 1413.1 2049.42 1425.72C2036.8 1438.34 2018.78 1438.34 2006.16 1425.72" fill="#EFC273"/>
<path d="M2031.38 1254.47C2031.38 1256.27 2029.58 1258.08 2027.77 1258.08C2025.97 1258.08 2024.17 1256.27 2024.17 1254.47V1220.22C2024.17 1218.42 2025.97 1216.62 2027.77 1216.62C2029.58 1216.62 2031.38 1218.42 2031.38 1220.22V1254.47Z" fill="#FFE0A1"/>
<path d="M2031.38 2271.13C2031.38 2272.93 2029.58 2274.74 2027.77 2274.74C2025.97 2274.74 2024.17 2272.93 2024.17 2271.13V2236.88C2024.17 2235.08 2025.97 2233.28 2027.77 2233.28C2029.58 2233.28 2031.38 2235.08 2031.38 2236.88V2271.13Z" fill="#FFE0A1"/>
<path d="M2377.48 1402.28C2375.68 1404.09 2373.88 1404.09 2372.07 1402.28C2370.27 1400.48 2370.27 1398.68 2372.07 1396.88L2397.31 1371.64C2399.11 1369.84 2400.92 1369.84 2402.72 1371.64C2404.52 1373.44 2404.52 1375.25 2402.72 1377.05L2377.48 1402.28Z" fill="#FFE0A1"/>
<path d="M1660.06 2119.72C1658.26 2121.52 1656.46 2121.52 1654.65 2119.72C1652.85 2117.91 1652.85 2116.11 1654.65 2114.31L1679.89 2089.07C1681.69 2087.27 1683.49 2087.27 1685.3 2089.07C1687.1 2090.87 1687.1 2092.68 1685.3 2094.48L1660.06 2119.72Z" fill="#FFE0A1"/>
<path d="M2518.08 1750.18C2516.28 1750.18 2514.47 1748.38 2514.47 1746.58C2514.47 1744.78 2516.28 1742.97 2518.08 1742.97H2552.33C2554.13 1742.97 2555.93 1744.78 2555.93 1746.58C2555.93 1748.38 2554.13 1750.18 2552.33 1750.18H2518.08Z" fill="#FFE0A1"/>
<path d="M1503.23 1750.18C1501.42 1750.18 1499.62 1748.38 1499.62 1746.58C1499.62 1744.78 1501.42 1742.97 1503.23 1742.97H1537.48C1539.28 1741.17 1541.08 1742.97 1541.08 1744.78C1541.08 1746.58 1539.28 1748.38 1537.48 1748.38H1503.23V1750.18Z" fill="#FFE0A1"/>
<path d="M2372.07 2096.28C2370.27 2094.48 2370.27 2092.67 2372.07 2090.87C2373.88 2089.07 2375.68 2089.07 2377.48 2090.87L2402.72 2116.11C2404.52 2117.91 2404.52 2119.71 2402.72 2121.52C2400.92 2123.32 2399.11 2123.32 2397.31 2121.52L2372.07 2096.28Z" fill="#FFE0A1"/>
<path d="M1652.85 1377.05C1651.05 1375.25 1651.05 1373.44 1652.85 1371.64C1654.65 1369.84 1656.45 1369.84 1658.26 1371.64L1683.49 1396.88C1685.29 1398.68 1685.29 1400.48 1683.49 1402.28C1681.69 1404.09 1679.89 1404.09 1678.08 1402.28L1652.85 1377.05Z" fill="#FFE0A1"/>
<path d="M1786.23 1319.36C1788.03 1321.17 1786.23 1324.77 1784.42 1324.77C1782.62 1326.58 1779.01 1324.77 1779.01 1322.97L1760.99 1292.33C1759.19 1290.52 1760.99 1286.92 1762.79 1286.92C1764.59 1285.12 1768.2 1286.92 1768.2 1288.72L1786.23 1319.36Z" fill="#FFE0A1"/>
<path d="M2294.56 2199.03C2296.36 2200.83 2294.56 2204.44 2292.76 2204.44C2290.96 2206.24 2287.35 2204.44 2287.35 2202.63L2269.32 2171.99C2267.52 2170.19 2269.32 2166.58 2271.13 2166.58C2272.93 2164.78 2276.54 2166.58 2276.54 2168.38L2294.56 2199.03Z" fill="#FFE0A1"/>
<path d="M2159.38 1272.5C2159.38 1274.3 2155.77 1276.1 2153.97 1276.1C2152.17 1276.1 2150.37 1272.5 2150.37 1270.69L2159.38 1236.45C2159.38 1234.64 2162.99 1232.84 2164.79 1232.84C2166.59 1232.84 2168.39 1236.45 2168.39 1238.25L2159.38 1272.5Z" fill="#FFE0A1"/>
<path d="M1896.19 2253.11C1896.19 2254.91 1892.58 2256.71 1890.78 2256.71C1888.98 2256.71 1887.18 2253.11 1887.18 2251.3L1896.19 2217.05C1896.19 2215.25 1899.79 2213.45 1901.6 2213.45C1903.4 2213.45 1905.2 2217.05 1905.2 2218.86L1896.19 2253.11Z" fill="#FFE0A1"/>
<path d="M2454.98 1503.23C2453.18 1505.03 2449.57 1503.23 2449.57 1501.43C2447.77 1499.62 2449.57 1496.02 2451.38 1496.02L2482.02 1477.99C2483.82 1476.19 2487.43 1477.99 2487.43 1479.8C2489.23 1481.6 2487.43 1485.2 2485.63 1485.2L2454.98 1503.23Z" fill="#FFE0A1"/>
<path d="M1575.33 2011.56C1573.53 2013.36 1569.93 2011.56 1569.93 2009.76C1568.12 2007.95 1569.93 2004.35 1571.73 2004.35L1602.37 1986.32C1604.18 1984.52 1607.78 1986.32 1607.78 1988.13C1609.58 1989.93 1607.78 1993.53 1605.98 1993.53L1575.33 2011.56Z" fill="#FFE0A1"/>
<path d="M2500.05 1876.36C2498.25 1876.36 2496.45 1872.76 2496.45 1870.96C2496.45 1869.15 2500.05 1867.35 2501.85 1867.35L2536.1 1876.36C2537.9 1876.36 2539.71 1879.97 2539.71 1881.77C2539.71 1883.57 2536.1 1885.38 2534.3 1885.38L2500.05 1876.36Z" fill="#FFE0A1"/>
<path d="M1519.45 1613.19C1517.64 1613.19 1515.84 1609.58 1515.84 1607.78C1515.84 1605.98 1519.45 1604.17 1521.25 1604.17L1555.5 1613.19C1557.3 1613.19 1559.1 1616.79 1559.1 1618.59C1559.1 1620.4 1555.5 1622.2 1553.69 1622.2L1519.45 1613.19Z" fill="#FFE0A1"/>
<path d="M1605.98 1496.02C1607.78 1497.82 1609.58 1499.62 1607.78 1501.43C1605.98 1503.23 1604.18 1505.03 1602.37 1503.23L1571.73 1485.2C1569.93 1483.4 1568.12 1481.6 1569.93 1479.8C1571.73 1477.99 1573.53 1476.19 1575.33 1477.99L1605.98 1496.02Z" fill="#FFE0A1"/>
<path d="M2485.63 2004.35C2487.43 2006.15 2489.23 2007.95 2487.43 2009.76C2485.63 2011.56 2483.82 2013.36 2482.02 2011.56L2451.38 1993.53C2449.57 1991.73 2447.77 1989.93 2449.57 1988.13C2451.38 1986.32 2453.18 1984.52 2454.98 1986.32L2485.63 2004.35Z" fill="#FFE0A1"/>
<path d="M1905.2 1270.69C1905.2 1272.5 1905.2 1276.1 1901.6 1276.1C1899.79 1276.1 1896.19 1276.1 1896.19 1272.5L1887.18 1238.25C1887.18 1236.45 1887.18 1232.84 1890.78 1232.84C1892.58 1232.84 1896.19 1232.84 1896.19 1236.45L1905.2 1270.69Z" fill="#FFE0A1"/>
<path d="M2168.39 2251.3C2168.39 2253.11 2168.39 2256.71 2164.79 2256.71C2162.99 2256.71 2159.38 2256.71 2159.38 2253.11L2150.37 2218.86C2150.37 2217.05 2150.37 2213.45 2153.97 2213.45C2155.77 2213.45 2159.38 2213.45 2159.38 2217.05L2168.39 2251.3Z" fill="#FFE0A1"/>
<path d="M2276.54 1322.97C2274.73 1324.77 2272.93 1326.58 2271.13 1324.77C2269.32 1322.97 2267.52 1321.17 2269.32 1319.36L2287.35 1288.72C2289.15 1286.92 2290.96 1285.12 2292.76 1286.92C2294.56 1288.72 2296.36 1290.52 2294.56 1292.33L2276.54 1322.97Z" fill="#FFE0A1"/>
<path d="M1768.2 2202.63C1766.4 2204.44 1764.59 2206.24 1762.79 2204.44C1760.99 2202.63 1759.19 2200.83 1760.99 2199.03L1779.01 2168.38C1780.82 2166.58 1782.62 2164.78 1784.42 2166.58C1786.23 2168.38 1788.03 2170.19 1786.23 2171.99L1768.2 2202.63Z" fill="#FFE0A1"/>
<path d="M2501.85 1622.2C2500.05 1622.2 2496.45 1622.2 2496.45 1618.59C2496.45 1616.79 2496.45 1613.19 2500.05 1613.19L2534.3 1604.17C2536.1 1604.17 2539.71 1604.17 2539.71 1607.78C2539.71 1609.58 2539.71 1613.19 2536.1 1613.19L2501.85 1622.2Z" fill="#FFE0A1"/>
<path d="M1521.25 1885.38C1519.45 1885.38 1515.84 1885.38 1515.84 1881.77C1515.84 1879.97 1515.84 1876.36 1519.45 1876.36L1553.69 1867.35C1555.5 1867.35 1559.1 1867.35 1559.1 1870.96C1559.1 1872.76 1559.1 1876.36 1555.5 1876.36L1521.25 1885.38Z" fill="#FFE0A1"/>
<path d="M1762.81 1939.46C1761.01 1939.46 1759.2 1939.46 1757.4 1937.65C1678.09 1903.4 1640.23 1811.47 1674.48 1730.36C1678.09 1723.15 1685.3 1719.54 1692.51 1723.15C1699.72 1726.75 1703.32 1733.96 1699.72 1741.17C1685.3 1773.62 1685.3 1809.67 1699.72 1840.31C1712.34 1872.76 1737.57 1898 1770.02 1912.42C1777.23 1916.02 1780.84 1923.23 1777.23 1930.44C1773.62 1935.85 1768.22 1939.46 1762.81 1939.46Z" fill="#F7D27F"/>
<path d="M1697.9 1842.12C1687.09 1815.08 1685.28 1786.24 1694.3 1757.39C1694.3 1748.38 1696.1 1739.37 1699.7 1730.36C1697.9 1726.75 1696.1 1724.95 1692.49 1723.15C1685.28 1719.54 1678.07 1723.15 1674.47 1730.36C1670.86 1737.57 1669.06 1744.78 1667.26 1751.99C1660.05 1818.68 1697.9 1885.38 1762.79 1914.22C1764.6 1914.22 1766.4 1916.02 1768.2 1916.02C1770.01 1916.02 1770.01 1916.02 1771.81 1916.02L1770.01 1914.22C1735.76 1899.8 1710.52 1874.56 1697.9 1842.12Z" fill="#EFC273"/>
<path d="M1744.77 1622.2C1724.94 1622.2 1703.31 1638.42 1690.69 1665.46C1678.08 1690.7 1687.09 1699.71 1697.9 1714.13L1744.77 1622.2Z" fill="#F7D27F"/>
<path d="M1744.77 1622.2C1755.58 1638.42 1755.58 1665.46 1742.96 1690.7C1730.35 1717.74 1717.73 1714.13 1697.9 1714.13L1744.77 1622.2Z" fill="#EFC273"/>
<path d="M1627.61 1661.86C1640.23 1660.05 1654.65 1670.87 1663.66 1685.29C1672.67 1701.51 1667.27 1706.92 1661.86 1717.74L1627.61 1661.86Z" fill="#F7D27F"/>
<path d="M1627.6 1661.86C1620.39 1670.87 1622.19 1688.9 1631.21 1705.12C1640.22 1721.34 1649.23 1717.74 1660.05 1717.74L1627.6 1661.86Z" fill="#EFC273"/>
<path d="M1788.04 1726.75C1777.23 1715.94 1757.4 1714.13 1737.57 1719.54C1717.74 1726.75 1717.74 1735.76 1715.94 1748.38L1788.04 1726.75Z" fill="#F7D27F"/>
<path d="M1788.04 1726.75C1786.24 1741.17 1771.82 1755.59 1750.19 1761C1730.36 1768.21 1724.95 1759.2 1715.94 1750.18L1788.04 1726.75Z" fill="#EFC273"/>
<path d="M1770 1789.84C1762.79 1782.63 1746.57 1779.03 1728.54 1784.43C1712.32 1789.84 1712.32 1797.05 1710.52 1807.87L1770 1789.84Z" fill="#F7D27F"/>
<path d="M1770 1789.84C1768.2 1800.66 1757.38 1813.27 1739.36 1818.68C1721.33 1824.09 1719.53 1816.88 1710.52 1809.67L1770 1789.84Z" fill="#EFC273"/>
<path d="M1598.77 1737.57C1607.78 1732.16 1624 1733.96 1640.23 1742.97C1654.65 1751.99 1652.84 1759.2 1651.04 1770.01L1598.77 1737.57Z" fill="#F7D27F"/>
<path d="M1598.76 1735.76C1596.96 1746.58 1605.97 1761 1620.39 1770.01C1634.81 1779.03 1640.22 1773.62 1649.23 1768.21L1598.76 1735.76Z" fill="#EFC273"/>
<path d="M1600.57 1800.66C1607.78 1793.45 1620.4 1789.84 1634.82 1793.45C1649.24 1797.05 1649.24 1804.26 1651.04 1813.28L1600.57 1800.66Z" fill="#F7D27F"/>
<path d="M1600.57 1800.66C1602.37 1809.67 1613.19 1818.68 1627.61 1822.29C1642.03 1825.89 1645.64 1820.48 1651.04 1813.27L1600.57 1800.66Z" fill="#EFC273"/>
<path d="M1611.39 1856.54C1616.8 1847.52 1629.42 1843.92 1645.64 1845.72C1660.06 1847.52 1661.86 1854.73 1663.67 1863.75L1611.39 1856.54Z" fill="#F7D27F"/>
<path d="M1611.39 1856.54C1615 1865.55 1625.81 1872.76 1642.03 1874.56C1656.46 1876.37 1658.26 1870.96 1663.67 1861.95L1611.39 1856.54Z" fill="#EFC273"/>
<path d="M1649.25 1910.61C1652.85 1903.4 1661.86 1896.19 1674.48 1896.19C1687.1 1894.39 1688.9 1899.8 1692.51 1907.01L1649.25 1910.61Z" fill="#F7D27F"/>
<path d="M1649.25 1908.81C1652.85 1916.02 1665.47 1919.63 1678.09 1919.63C1690.71 1917.83 1690.71 1912.42 1694.31 1905.21L1649.25 1908.81Z" fill="#EFC273"/>
<path d="M1699.71 1948.47C1699.71 1941.26 1705.11 1934.05 1714.13 1928.64C1723.14 1923.23 1726.75 1926.84 1732.15 1930.44L1699.71 1948.47Z" fill="#F7D27F"/>
<path d="M1699.71 1948.47C1705.11 1952.07 1715.93 1952.07 1724.94 1946.67C1733.96 1941.26 1733.96 1937.65 1732.15 1930.44L1699.71 1948.47Z" fill="#EFC273"/>
<path d="M1775.41 1831.3C1766.4 1825.89 1753.78 1827.7 1739.36 1834.91C1726.74 1842.12 1728.55 1849.33 1728.55 1858.34L1775.41 1831.3Z" fill="#F7D27F"/>
<path d="M1775.42 1831.3C1775.42 1840.31 1768.21 1852.93 1755.59 1860.14C1742.97 1867.35 1737.57 1863.75 1730.36 1858.34L1775.42 1831.3Z" fill="#EFC273"/>
<path d="M1788.04 1867.35C1780.83 1863.75 1770.01 1867.35 1761 1876.37C1751.99 1885.38 1755.59 1888.98 1757.39 1896.19L1788.04 1867.35Z" fill="#F7D27F"/>
<path d="M1788.04 1867.35C1789.85 1874.56 1786.24 1885.38 1777.23 1894.39C1768.21 1903.4 1764.61 1899.8 1757.4 1896.19L1788.04 1867.35Z" fill="#EFC273"/>
<path d="M2292.76 1939.46C2294.57 1939.46 2296.37 1939.46 2298.17 1937.65C2377.49 1903.4 2415.34 1811.47 2381.09 1730.36C2377.49 1723.15 2370.28 1719.54 2363.07 1723.15C2355.86 1726.75 2352.25 1733.96 2355.86 1741.17C2370.28 1773.62 2370.28 1809.67 2355.86 1840.31C2343.24 1872.76 2318 1898 2285.55 1912.42C2278.34 1916.02 2274.74 1923.23 2278.34 1930.44C2281.95 1935.85 2287.36 1939.46 2292.76 1939.46Z" fill="#F7D27F"/>
<path d="M2357.65 1842.12C2368.47 1815.08 2370.27 1786.24 2363.06 1757.39C2363.06 1748.38 2361.26 1739.37 2357.65 1730.36C2359.46 1726.75 2361.26 1724.95 2364.86 1723.15C2372.08 1719.54 2379.29 1723.15 2382.89 1730.36C2386.5 1737.57 2388.3 1744.78 2390.1 1751.99C2397.31 1818.68 2359.46 1885.38 2294.56 1914.22C2292.76 1914.22 2290.96 1916.02 2289.16 1916.02C2287.35 1916.02 2287.35 1916.02 2285.55 1916.02L2287.35 1914.22C2319.8 1899.8 2345.04 1874.56 2357.65 1842.12Z" fill="#EFC273"/>
<path d="M2310.79 1622.2C2330.61 1622.2 2352.24 1638.42 2364.86 1665.46C2377.48 1690.7 2368.47 1699.71 2357.65 1714.13L2310.79 1622.2Z" fill="#F7D27F"/>
<path d="M2310.78 1622.2C2299.96 1638.42 2299.96 1665.46 2312.58 1690.7C2325.2 1717.74 2337.82 1714.13 2357.65 1714.13L2310.78 1622.2Z" fill="#EFC273"/>
<path d="M2427.97 1661.86C2415.35 1660.05 2400.93 1670.87 2391.91 1685.29C2382.9 1701.51 2388.31 1706.92 2393.72 1717.74L2427.97 1661.86Z" fill="#F7D27F"/>
<path d="M2427.96 1661.86C2433.37 1672.67 2433.37 1688.9 2422.55 1705.12C2413.54 1721.34 2404.53 1717.74 2393.71 1717.74L2427.96 1661.86Z" fill="#EFC273"/>
<path d="M2267.52 1726.75C2278.33 1715.94 2298.16 1714.13 2317.99 1719.54C2337.82 1726.75 2337.82 1735.76 2339.62 1748.38L2267.52 1726.75Z" fill="#F7D27F"/>
<path d="M2267.52 1726.75C2269.32 1741.17 2283.74 1755.59 2305.37 1761C2325.2 1768.21 2330.61 1759.2 2339.62 1750.18L2267.52 1726.75Z" fill="#EFC273"/>
<path d="M2285.55 1789.84C2292.76 1782.63 2308.98 1779.03 2327.01 1784.43C2343.23 1789.84 2343.23 1797.05 2345.04 1807.87L2285.55 1789.84Z" fill="#F7D27F"/>
<path d="M2285.55 1789.84C2287.35 1800.66 2298.17 1813.27 2316.19 1818.68C2332.42 1824.09 2336.02 1816.88 2345.04 1809.67L2285.55 1789.84Z" fill="#EFC273"/>
<path d="M2456.8 1737.57C2447.79 1732.16 2431.56 1733.96 2415.34 1742.97C2400.92 1751.99 2402.72 1759.2 2404.53 1770.01L2456.8 1737.57Z" fill="#F7D27F"/>
<path d="M2456.79 1735.76C2458.6 1746.58 2449.58 1761 2435.16 1770.01C2420.74 1779.03 2415.33 1773.62 2406.32 1768.21L2456.79 1735.76Z" fill="#EFC273"/>
<path d="M2455 1800.66C2447.79 1793.45 2435.18 1789.84 2420.75 1793.45C2406.33 1797.05 2406.33 1804.26 2404.53 1813.28L2455 1800.66Z" fill="#F7D27F"/>
<path d="M2455 1800.66C2453.2 1809.67 2442.39 1818.68 2427.96 1822.29C2413.54 1825.89 2409.94 1820.48 2404.53 1813.27L2455 1800.66Z" fill="#EFC273"/>
<path d="M2444.18 1856.54C2438.77 1847.52 2426.16 1843.92 2409.93 1845.72C2395.51 1847.52 2393.71 1854.73 2391.91 1863.75L2444.18 1856.54Z" fill="#F7D27F"/>
<path d="M2444.18 1856.54C2440.58 1865.55 2429.76 1872.76 2413.54 1874.56C2399.12 1876.37 2397.31 1870.96 2391.91 1861.95L2444.18 1856.54Z" fill="#EFC273"/>
<path d="M2406.33 1910.61C2402.73 1903.4 2393.71 1896.19 2381.1 1896.19C2368.48 1894.39 2366.68 1899.8 2363.07 1907.01L2406.33 1910.61Z" fill="#F7D27F"/>
<path d="M2406.33 1908.81C2402.73 1916.02 2390.11 1919.63 2377.49 1919.63C2364.87 1917.83 2364.87 1912.42 2361.27 1905.21L2406.33 1908.81Z" fill="#EFC273"/>
<path d="M2355.85 1948.47C2355.85 1941.26 2350.45 1934.05 2341.43 1928.64C2332.42 1923.23 2328.81 1926.84 2323.41 1930.44L2355.85 1948.47Z" fill="#F7D27F"/>
<path d="M2355.86 1948.47C2350.45 1952.07 2339.63 1952.07 2330.62 1946.67C2321.61 1941.26 2321.61 1937.65 2323.41 1930.44L2355.86 1948.47Z" fill="#EFC273"/>
<path d="M2280.14 1831.3C2289.15 1825.89 2301.77 1827.7 2316.19 1834.91C2328.81 1842.12 2327.01 1849.33 2327.01 1858.34L2280.14 1831.3Z" fill="#F7D27F"/>
<path d="M2280.14 1831.3C2280.14 1840.31 2287.35 1852.93 2299.97 1860.14C2312.59 1867.35 2317.99 1863.75 2325.21 1858.34L2280.14 1831.3Z" fill="#EFC273"/>
<path d="M2267.52 1867.35C2274.73 1863.75 2285.54 1867.35 2294.55 1876.37C2303.57 1885.38 2299.96 1888.98 2298.16 1896.19L2267.52 1867.35Z" fill="#F7D27F"/>
<path d="M2267.52 1867.35C2265.72 1874.56 2269.32 1885.38 2278.34 1894.39C2287.35 1903.4 2290.95 1899.8 2298.16 1896.19L2267.52 1867.35Z" fill="#EFC273"/>
<path d="M2197.22 1661.86H2166.58C2164.78 1627.61 2152.16 1595.16 2130.53 1569.93H2197.22C2211.65 1569.93 2222.46 1559.11 2222.46 1544.69C2222.46 1530.27 2211.65 1519.45 2197.22 1519.45H2016.97H1914.22H1858.34C1843.92 1519.45 1833.1 1530.27 1833.1 1544.69C1833.1 1559.11 1843.92 1569.93 1858.34 1569.93H1914.22H2016.97C2069.24 1569.93 2110.7 1611.39 2114.31 1661.86H1858.34C1843.92 1661.86 1833.1 1672.67 1833.1 1687.09C1833.1 1701.51 1843.92 1712.33 1858.34 1712.33H2114.31C2107.1 1759.2 2067.44 1793.45 2018.77 1793.45H1916.02C1907.01 1793.45 1897.99 1798.85 1892.59 1807.87C1887.18 1816.88 1888.98 1825.89 1894.39 1834.91L2067.44 2094.48C2072.85 2101.69 2080.06 2105.29 2089.07 2105.29C2094.48 2105.29 2099.88 2103.49 2103.49 2101.69C2116.11 2094.48 2117.91 2078.26 2110.7 2065.64L1964.69 1845.72H2018.77C2096.28 1845.72 2159.37 1786.24 2168.38 1712.33H2199.03C2213.45 1712.33 2224.26 1701.51 2224.26 1687.09C2224.26 1672.67 2211.65 1661.86 2197.22 1661.86Z" fill="#F9E310"/>
<path d="M2197.22 1661.86H2166.58C2166.58 1645.64 2162.97 1629.41 2157.56 1614.99L2114.3 1658.25C2114.3 1660.06 2114.3 1660.06 2114.3 1661.86H2110.7L2058.42 1714.13H2112.5C2105.29 1761 2065.63 1795.25 2016.96 1795.25H1977.31L1910.61 1861.95L2065.63 2096.28C2071.04 2103.49 2078.25 2107.1 2087.26 2107.1C2092.67 2107.1 2098.08 2105.3 2101.68 2103.49C2114.3 2096.28 2116.1 2080.06 2108.89 2067.44L1962.88 1847.53H2016.96C2094.47 1847.53 2157.56 1788.04 2166.58 1714.13H2197.22C2211.64 1714.13 2222.46 1703.32 2222.46 1688.9C2222.46 1674.48 2211.64 1661.86 2197.22 1661.86Z" fill="#F7C011"/>
<path d="M2222.46 1550.1L2202.63 1569.93C2213.45 1566.32 2220.66 1559.11 2222.46 1550.1Z" fill="#F7C011"/>
</svg>
