<svg width="2360" height="2324" viewBox="0 0 2360 2324" fill="none" xmlns="http://www.w3.org/2000/svg">
<path d="M186.219 1160.66H1517.48V2032.14H186.219V1160.66Z" fill="#154B8B"/>
<path d="M1503.52 1146.51H1531.8V1174.8H1503.52V1146.51ZM1475.76 1174.8H1448.01V1146.51H1475.76V1174.8ZM1420.26 1174.8H1392.51V1146.51H1420.26V1174.8ZM1364.93 1174.8H1337.18V1146.51H1364.93V1174.8ZM1309.42 1174.8H1281.67V1146.51H1309.42V1174.8ZM1253.92 1174.8H1226.16V1146.51H1253.92V1174.8ZM1198.59 1174.8H1170.83V1146.51H1198.59V1174.8ZM1143.08 1174.8H1115.33V1146.51H1143.08V1174.8ZM1087.58 1174.8H1059.82V1146.51H1087.58V1174.8ZM1032.25 1174.8H1004.49V1146.51H1032.25V1174.8ZM976.74 1174.8H948.987V1146.51H976.74V1174.8ZM921.234 1174.8H893.481V1146.51H921.234V1174.8ZM865.728 1174.8H837.975V1146.51H865.728V1174.8ZM810.398 1174.8H782.645V1146.51H810.398V1174.8ZM754.892 1174.8H727.139V1146.51H754.892V1174.8ZM699.386 1174.8H671.81V1146.51H699.563V1174.8H699.386ZM644.057 1174.8H616.304V1146.51H644.057V1174.8ZM588.551 1174.8H560.798V1146.51H588.551V1174.8ZM533.045 1174.8H505.291V1146.51H533.045V1174.8ZM477.715 1174.8H449.962V1146.51H477.715V1174.8ZM422.209 1174.8H394.456V1146.51H422.209V1174.8ZM366.703 1174.8H338.95V1146.51H366.703V1174.8ZM311.374 1174.8H283.621V1146.51H311.374V1174.8ZM255.868 1174.8H228.115V1146.51H255.868V1174.8ZM172.078 1146.51H200.361V1174.8H172.078V1146.51ZM200.361 1988.83H172.078V1959.84H200.361V1988.83ZM200.361 1930.67H172.078V1901.68H200.361V1930.67ZM200.361 1872.69H172.078V1843.7H200.361V1872.69ZM200.361 1814.53H172.078V1785.54H200.361V1814.53ZM200.361 1756.37H172.078V1727.38H200.361V1756.37ZM200.361 1698.22H172.078V1669.23H200.361V1698.22ZM200.361 1640.06H172.078V1611.07H200.361V1640.06ZM200.361 1581.9H172.078V1552.91H200.361V1581.9ZM200.361 1523.74H172.078V1494.75H200.361V1523.74ZM200.361 1465.59H172.078V1436.6H200.361V1465.59ZM200.361 1407.43H172.078V1378.44H200.361V1407.43ZM200.361 1349.27H172.078V1320.28H200.361V1349.27ZM200.361 1291.11H172.078V1262.12H200.361V1291.11ZM200.361 1232.96H172.078V1203.96H200.361V1232.96ZM172.078 2018H200.361V2046.28H172.078V2018ZM1475.76 2046.28H1448.01V2018H1475.76V2046.28ZM1420.26 2046.28H1392.51V2018H1420.26V2046.28ZM1364.93 2046.28H1337.18V2018H1364.93V2046.28ZM1309.42 2046.28H1281.67V2018H1309.42V2046.28ZM1253.92 2046.28H1226.16V2018H1253.92V2046.28ZM1198.59 2046.28H1170.83V2018H1198.59V2046.28ZM1143.08 2046.28H1115.33V2018H1143.08V2046.28ZM1087.58 2046.28H1059.82V2018H1087.58V2046.28ZM1032.25 2046.28H1004.49V2018H1032.25V2046.28ZM976.74 2046.28H948.987V2018H976.74V2046.28ZM921.234 2046.28H893.481V2018H921.234V2046.28ZM865.728 2046.28H837.975V2018H865.728V2046.28ZM810.398 2046.28H782.645V2018H810.398V2046.28ZM754.892 2046.28H727.139V2018H754.892V2046.28ZM699.386 2046.28H671.81V2018H699.563V2046.28H699.386ZM644.057 2046.28H616.304V2018H644.057V2046.28ZM588.551 2046.28H560.798V2018H588.551V2046.28ZM533.045 2046.28H505.291V2018H533.045V2046.28ZM477.715 2046.28H449.962V2018H477.715V2046.28ZM422.209 2046.28H394.456V2018H422.209V2046.28ZM366.703 2046.28H338.95V2018H366.703V2046.28ZM311.374 2046.28H283.621V2018H311.374V2046.28ZM255.868 2046.28H228.115V2018H255.868V2046.28ZM1503.52 2018H1531.8V2046.28H1503.52V2018ZM1531.8 1988.83H1503.52V1959.84H1531.8V1988.83ZM1531.8 1930.67H1503.52V1901.68H1531.8V1930.67ZM1531.8 1872.69H1503.52V1843.7H1531.8V1872.69ZM1531.8 1814.53H1503.52V1785.54H1531.8V1814.53ZM1531.8 1756.37H1503.52V1727.38H1531.8V1756.37ZM1531.8 1698.22H1503.52V1669.23H1531.8V1698.22ZM1531.8 1640.06H1503.52V1611.07H1531.8V1640.06ZM1531.8 1581.9H1503.52V1552.91H1531.8V1581.9ZM1531.8 1523.74H1503.52V1494.75H1531.8V1523.74ZM1531.8 1465.59H1503.52V1436.6H1531.8V1465.59ZM1531.8 1407.43H1503.52V1378.44H1531.8V1407.43ZM1531.8 1349.27H1503.52V1320.28H1531.8V1349.27ZM1531.8 1291.11H1503.52V1262.12H1531.8V1291.11ZM1531.8 1232.96H1503.52V1203.96H1531.8V1232.96Z" fill="white"/>
<path d="M287.68 1280.33H1428.21V2084.46H287.68V1280.33Z" fill="#7297FF"/>
<path d="M74.1406 2029.49H1629.9V2177.8H74.1406V2029.49Z" fill="#7297FF"/>
<path d="M1643.87 2191.94H60V2015.34H1644.05V2191.94H1643.87ZM88.2834 2163.65H1615.76V2043.63H88.2834V2163.65Z" fill="#3F51B5"/>
<path d="M502.988 1091.89H652.183V1657.03H502.988V1091.89Z" fill="#7297FF"/>
<path d="M666.322 1671.17H488.844V1077.75H666.322V1671.17ZM517.127 1642.89H638.038V1106.03H517.127V1642.89Z" fill="#3F51B5"/>
<path d="M787.238 758.855H936.433V1657.03H787.238V758.855Z" fill="#7297FF"/>
<path d="M950.399 1671.17H773.098V744.713H950.576V1671.17H950.399ZM801.381 1642.89H922.292V772.997H801.381V1642.89Z" fill="#3F51B5"/>
<path d="M1071.31 928.732H1220.5V1657.03H1071.31V928.732Z" fill="#3F51B5"/>
<path d="M1234.65 1671.17H1057.17V914.591H1234.65V1671.17ZM1085.45 1642.89H1206.36V942.874H1085.45V1642.89Z" fill="#3F51B5"/>
<path d="M502.988 1046.99H652.183V1242.85H502.988V1046.99Z" fill="white"/>
<path d="M666.322 1257H488.844V1032.85H666.322V1257ZM517.127 1228.71H638.038V1061.13H517.127V1228.71Z" fill="#3F51B5"/>
<path d="M787.238 685.142H936.433V881.004H787.238V685.142Z" fill="white"/>
<path d="M950.399 895.146H773.098V671H950.576V895.146H950.399ZM801.381 866.862H922.292V699.283H801.381V866.862Z" fill="#3F51B5"/>
<path d="M1071.31 896.03H1220.5V1091.89H1071.31V896.03Z" fill="white"/>
<path d="M1234.65 1106.03H1057.17V881.888H1234.65V1106.03ZM1085.45 1077.75H1206.36V910.172H1085.45V1077.75Z" fill="#3F51B5"/>
<path d="M502.988 1813.29H517.13V1841.58H502.988V1813.29ZM1178.78 1841.58H1151.21V1813.29H1178.78V1841.58ZM1123.63 1841.58H1096.06V1813.29H1123.63V1841.58ZM1068.48 1841.58H1040.9V1813.29H1068.48V1841.58ZM1013.33 1841.58H985.75V1813.29H1013.33V1841.58ZM958.174 1841.58H930.597V1813.29H958.174V1841.58ZM903.021 1841.58H875.445V1813.29H903.021V1841.58ZM848.045 1841.58H820.469V1813.29H848.045V1841.58ZM792.893 1841.58H765.316V1813.29H792.893V1841.58ZM737.74 1841.58H710.164V1813.29H737.74V1841.58ZM682.588 1841.58H655.011V1813.29H682.588V1841.58ZM627.435 1841.58H599.859V1813.29H627.435V1841.58ZM572.283 1841.58H544.706V1813.29H572.283V1841.58ZM1206.36 1813.29H1220.5V1841.58H1206.36V1813.29Z" fill="#7297FF"/>
<path d="M141.316 1115.76H231.293V1205.73H141.316V1115.76Z" fill="#DC444A"/>
<path d="M245.436 1219.87H127.176V1101.61H245.436V1219.87ZM155.459 1191.59H217.152V1129.9H155.459V1191.59Z" fill="#3F51B5"/>
<path d="M1473.82 1114.52H1563.79V1204.49H1473.82V1114.52Z" fill="#DC444A"/>
<path d="M1577.94 1218.46H1459.68V1100.2H1577.94V1218.46ZM1487.96 1190.18H1549.65V1128.48H1487.96V1190.18Z" fill="#3F51B5"/>
<path d="M1523.27 2284.64H180.727C98.9937 2284.64 39 2224.64 39 2142.91V180.727C39 98.9937 98.9937 39 180.727 39H1523.27C1605.01 39 1665 98.9936 1665 180.727V2142.91C1665 2224.64 1605.01 2284.64 1523.27 2284.64Z" fill="white" stroke="#154B8B" stroke-width="78"/>
<path d="M216.625 437.815H1151.38V1049.73H216.625V437.815Z" fill="#154B8B"/>
<path d="M1141.58 427.886H1161.43V447.745H1141.58V427.886ZM1122.09 447.745H1102.6V427.886H1122.09V447.745ZM1083.11 447.745H1063.63V427.886H1083.11V447.745ZM1044.26 447.745H1024.78V427.886H1044.26V447.745ZM1005.29 447.745H985.803V427.886H1005.29V447.745ZM966.316 447.745H946.829V427.886H966.316V447.745ZM927.467 447.745H907.979V427.886H927.467V447.745ZM888.492 447.745H869.006V427.886H888.492V447.745ZM849.518 447.745H830.031V427.886H849.518V447.745ZM810.669 447.745H791.182V427.886H810.669V447.745ZM771.695 447.745H752.208V427.886H771.695V447.745ZM732.72 447.745H713.234V427.886H732.72V447.745ZM693.747 447.745H674.259V427.886H693.747V447.745ZM654.897 447.745H635.41V427.886H654.897V447.745ZM615.923 447.745H596.436V427.886H615.923V447.745ZM576.949 447.745H557.586V427.886H577.073V447.745H576.949ZM538.099 447.745H518.612V427.886H538.099V447.745ZM499.125 447.745H479.638V427.886H499.125V447.745ZM460.151 447.745H440.664V427.886H460.151V447.745ZM421.301 447.745H401.814V427.886H421.301V447.745ZM382.327 447.745H362.84V427.886H382.327V447.745ZM343.353 447.745H323.866V427.886H343.353V447.745ZM304.503 447.745H285.016V427.886H304.503V447.745ZM265.529 447.745H246.042V427.886H265.529V447.745ZM206.695 427.886H226.555V447.745H206.695V427.886ZM226.555 1019.32H206.695V998.967H226.555V1019.32ZM226.555 978.487H206.695V958.131H226.555V978.487ZM226.555 937.775H206.695V917.419H226.555V937.775ZM226.555 896.939H206.695V876.583H226.555V896.939ZM226.555 856.104H206.695V835.748H226.555V856.104ZM226.555 815.268H206.695V794.912H226.555V815.268ZM226.555 774.432H206.695V754.076H226.555V774.432ZM226.555 733.596H206.695V713.24H226.555V733.596ZM226.555 692.76H206.695V672.404H226.555V692.76ZM226.555 651.924H206.695V631.568H226.555V651.924ZM226.555 611.088H206.695V590.733H226.555V611.088ZM226.555 570.253H206.695V549.897H226.555V570.253ZM226.555 529.417H206.695V509.061H226.555V529.417ZM226.555 488.581H206.695V468.225H226.555V488.581ZM206.695 1039.8H226.555V1059.66H206.695V1039.8ZM1122.09 1059.66H1102.6V1039.8H1122.09V1059.66ZM1083.11 1059.66H1063.63V1039.8H1083.11V1059.66ZM1044.26 1059.66H1024.78V1039.8H1044.26V1059.66ZM1005.29 1059.66H985.803V1039.8H1005.29V1059.66ZM966.316 1059.66H946.829V1039.8H966.316V1059.66ZM927.467 1059.66H907.979V1039.8H927.467V1059.66ZM888.492 1059.66H869.006V1039.8H888.492V1059.66ZM849.518 1059.66H830.031V1039.8H849.518V1059.66ZM810.669 1059.66H791.182V1039.8H810.669V1059.66ZM771.695 1059.66H752.208V1039.8H771.695V1059.66ZM732.72 1059.66H713.234V1039.8H732.72V1059.66ZM693.747 1059.66H674.259V1039.8H693.747V1059.66ZM654.897 1059.66H635.41V1039.8H654.897V1059.66ZM615.923 1059.66H596.436V1039.8H615.923V1059.66ZM576.949 1059.66H557.586V1039.8H577.073V1059.66H576.949ZM538.099 1059.66H518.612V1039.8H538.099V1059.66ZM499.125 1059.66H479.638V1039.8H499.125V1059.66ZM460.151 1059.66H440.664V1039.8H460.151V1059.66ZM421.301 1059.66H401.814V1039.8H421.301V1059.66ZM382.327 1059.66H362.84V1039.8H382.327V1059.66ZM343.353 1059.66H323.866V1039.8H343.353V1059.66ZM304.503 1059.66H285.016V1039.8H304.503V1059.66ZM265.529 1059.66H246.042V1039.8H265.529V1059.66ZM1141.58 1039.8H1161.43V1059.66H1141.58V1039.8ZM1161.43 1019.32H1141.58V998.967H1161.43V1019.32ZM1161.43 978.487H1141.58V958.131H1161.43V978.487ZM1161.43 937.775H1141.58V917.419H1161.43V937.775ZM1161.43 896.939H1141.58V876.583H1161.43V896.939ZM1161.43 856.104H1141.58V835.748H1161.43V856.104ZM1161.43 815.268H1141.58V794.912H1161.43V815.268ZM1161.43 774.432H1141.58V754.076H1161.43V774.432ZM1161.43 733.596H1141.58V713.24H1161.43V733.596ZM1161.43 692.76H1141.58V672.404H1161.43V692.76ZM1161.43 651.924H1141.58V631.568H1161.43V651.924ZM1161.43 611.088H1141.58V590.733H1161.43V611.088ZM1161.43 570.253H1141.58V549.897H1161.43V570.253ZM1161.43 529.417H1141.58V509.061H1161.43V529.417ZM1161.43 488.581H1141.58V468.225H1161.43V488.581Z" fill="white"/>
<path d="M287.867 521.845H1088.7V1086.47H287.867V521.845Z" fill="#7297FF"/>
<path d="M137.93 1047.87H1230.32V1152.01H137.93V1047.87Z" fill="#7297FF"/>
<path d="M1240.13 1161.94H128V1037.94H1240.25V1161.94H1240.13ZM147.859 1142.08H1220.39V1057.8H147.859V1142.08Z" fill="#3F51B5"/>
<path d="M439.047 389.532H543.805V786.347H439.047V389.532Z" fill="#7297FF"/>
<path d="M553.735 796.277H429.117V379.603H553.735V796.277ZM448.977 776.418H533.875V399.462H448.977V776.418Z" fill="#3F51B5"/>
<path d="M638.637 155.688H743.395V786.347H638.637V155.688Z" fill="#7297FF"/>
<path d="M753.2 796.277H628.707V145.758H753.325V796.277H753.2ZM648.566 776.418H733.465V165.618H648.566V776.418Z" fill="#3F51B5"/>
<path d="M838.098 274.969H942.856V786.348H838.098V274.969Z" fill="#3F51B5"/>
<path d="M952.786 796.277H828.168V265.039H952.786V796.277ZM848.027 776.418H932.926V284.898H848.027V776.418Z" fill="#3F51B5"/>
<path d="M439.047 358.005H543.805V495.532H439.047V358.005Z" fill="white"/>
<path d="M553.735 505.461H429.117V348.076H553.735V505.461ZM448.977 485.602H533.875V367.935H448.977V485.602Z" fill="#3F51B5"/>
<path d="M638.637 103.93H743.395V241.456H638.637V103.93Z" fill="white"/>
<path d="M753.2 251.386H628.707V94H753.325V251.386H753.2ZM648.566 231.526H733.465V113.859H648.566V231.526Z" fill="#3F51B5"/>
<path d="M838.098 252.006H942.856V389.533H838.098V252.006Z" fill="white"/>
<path d="M952.786 399.462H828.168V242.077H952.786V399.462ZM848.027 379.603H932.926V261.936H848.027V379.603Z" fill="#3F51B5"/>
<path d="M439.047 896.07H448.977V915.93H439.047V896.07ZM913.562 915.93H894.199V896.07H913.562V915.93ZM874.836 915.93H855.473V896.07H874.836V915.93ZM836.11 915.93H816.747V896.07H836.11V915.93ZM797.384 915.93H778.022V896.07H797.384V915.93ZM758.659 915.93H739.296V896.07H758.659V915.93ZM719.933 915.93H700.57V896.07H719.933V915.93ZM681.331 915.93H661.968V896.07H681.331V915.93ZM642.605 915.93H623.243V896.07H642.605V915.93ZM603.88 915.93H584.517V896.07H603.88V915.93ZM565.154 915.93H545.791V896.07H565.154V915.93ZM526.428 915.93H507.065V896.07H526.428V915.93ZM487.702 915.93H468.339V896.07H487.702V915.93ZM932.925 896.07H942.854V915.93H932.925V896.07Z" fill="#7297FF"/>
<path d="M185.098 406.289H248.275V469.466H185.098V406.289Z" fill="#DC444A"/>
<path d="M258.205 479.396H175.168V396.359H258.205V479.396ZM195.027 459.537H238.346V416.218H195.027V459.537Z" fill="#3F51B5"/>
<path d="M1120.72 405.42H1183.9V468.598H1120.72V405.42Z" fill="#DC444A"/>
<path d="M1193.83 478.403H1110.79V395.366H1193.83V478.403ZM1130.65 458.544H1173.97V415.226H1130.65V458.544Z" fill="#3F51B5"/>
<path opacity="0.5" d="M1547.73 1789.3C1722.57 1789.3 1864.31 1647.57 1864.31 1472.73C1864.31 1297.89 1722.57 1156.15 1547.73 1156.15C1372.9 1156.15 1231.16 1297.89 1231.16 1472.73C1231.16 1647.57 1372.9 1789.3 1547.73 1789.3Z" fill="#7297FF"/>
<path opacity="0.5" d="M1400.26 1658.33C1294.6 1552.66 1293.21 1382.73 1397.18 1278.77C1420.37 1255.57 1446.96 1237.92 1475.29 1225.2C1435.04 1236.94 1397.09 1258.63 1365.36 1290.36C1264.64 1391.08 1264.64 1554.37 1365.36 1655.1C1409.96 1699.69 1466.83 1724.45 1525.1 1729.55C1479.49 1717.76 1436.14 1694.21 1400.26 1658.33Z" fill="white"/>
<path d="M1821.18 1199.27C1670.15 1048.24 1425.29 1048.24 1274.27 1199.27C1123.25 1350.3 1123.24 1595.16 1274.27 1746.18C1413.44 1885.36 1632.13 1895.95 1783.81 1778.61L1818.4 1813.21L1888.2 1743.41L1853.61 1708.81C1970.94 1557.13 1960.36 1338.44 1821.18 1199.27ZM1771.58 1696.58C1647.95 1820.21 1447.5 1820.21 1323.87 1696.58C1200.24 1572.95 1200.24 1372.51 1323.87 1248.88C1447.51 1125.25 1647.94 1125.25 1771.57 1248.88C1895.21 1372.51 1895.21 1572.95 1771.58 1696.58Z" fill="#3F51B5"/>
<path d="M1907.02 1717.47L1792.47 1832.02C1785.96 1838.53 1785.96 1849.08 1792.47 1855.59L2217.75 2280.87C2247.34 2310.47 2385.47 2172.34 2355.87 2142.74L1930.6 1717.47C1924.09 1710.96 1913.53 1710.96 1907.02 1717.47Z" fill="#3F51B5"/>
<path d="M2199.98 2263.1L2338.1 2124.98L2314.65 2101.53L2176.53 2239.65L2199.98 2263.1Z" fill="#EBF0F3"/>
<path d="M1837.22 1900.27L1975.34 1762.15L1951.89 1738.7L1813.77 1876.82L1837.22 1900.27Z" fill="#EBF0F3"/>
</svg>
